# Blender v2.92.0 OBJ File: 'bridge_export_platform.blend'
# www.blender.org
mtllib bridge_platform.mtl
o Plane.010_Plane.014
v 0.000000 -0.000864 0.772418
v 0.000000 -0.036424 0.772418
v 0.000000 -0.000864 -0.772418
v 0.000000 -0.036424 -0.772418
v -1.040000 -0.007189 -0.772418
v -0.940000 -0.000864 0.772418
v -0.940000 -0.036424 0.772418
v -1.040000 -0.030099 -0.772418
v 0.000000 -0.000864 -0.719885
v 0.000000 -0.000864 -0.491538
v 0.000000 -0.000864 -0.351099
v 0.000000 -0.000864 -0.210659
v 0.000000 -0.000864 -0.070220
v 0.000000 -0.000864 0.070220
v 0.000000 -0.000864 0.210659
v 0.000000 -0.000864 0.351099
v 0.000000 -0.000864 0.491538
v 0.000000 -0.000864 0.719885
v -1.040000 -0.007189 -0.631978
v -0.940000 -0.000864 -0.491538
v -0.940000 -0.000864 -0.351099
v -1.040000 -0.007189 -0.210659
v -1.040000 -0.007189 -0.070220
v -0.940000 -0.000864 0.070220
v -0.940000 -0.000864 0.210659
v -1.040000 -0.007189 0.351099
v -1.040000 -0.007189 0.491538
v -0.940000 -0.000864 0.631978
v 0.000000 -0.036424 0.631978
v 0.000000 -0.036424 0.491538
v 0.000000 -0.036424 0.351099
v 0.000000 -0.036424 0.210659
v 0.000000 -0.036424 0.070220
v 0.000000 -0.036424 -0.070220
v 0.000000 -0.036424 -0.210659
v 0.000000 -0.036424 -0.351099
v 0.000000 -0.036424 -0.491538
v 0.000000 -0.036424 -0.631978
v -0.940000 -0.036424 0.631978
v -1.040000 -0.030099 0.491538
v -1.040000 -0.030099 0.351099
v -0.940000 -0.036424 0.210659
v -0.940000 -0.036424 0.070220
v -1.040000 -0.030099 -0.070220
v -1.040000 -0.030099 -0.210659
v -0.940000 -0.036424 -0.351099
v -0.940000 -0.036424 -0.491538
v -1.040000 -0.030099 -0.631978
v -0.888281 -0.000864 -0.772418
v -0.888281 -0.036424 -0.772418
v -0.888281 -0.036424 0.772418
v -0.888281 -0.000864 0.772418
v -0.888281 -0.036424 0.631978
v -0.888281 -0.036424 0.491538
v -0.888281 -0.036424 0.351099
v -0.888281 -0.036424 0.210659
v -0.888281 -0.036424 0.070220
v -0.888281 -0.036424 -0.070220
v -0.888281 -0.036424 -0.210659
v -0.888281 -0.036424 -0.351099
v -0.888281 -0.036424 -0.491538
v -0.888281 -0.036424 -0.631978
v -0.888281 -0.000864 0.719885
v -0.888281 -0.000864 0.491538
v -0.888281 -0.000864 0.351099
v -0.888281 -0.000864 0.210659
v -0.888281 -0.000864 0.070220
v -0.888281 -0.000864 -0.070220
v -0.888281 -0.000864 -0.210659
v -0.888281 -0.000864 -0.351099
v -0.888281 -0.000864 -0.491538
v -0.888281 -0.000864 -0.719885
v -0.058693 -0.036424 -0.772418
v -0.058693 -0.000864 0.772418
v -0.058693 -0.036424 0.631978
v -0.058693 -0.036424 0.491538
v -0.058693 -0.036424 0.351099
v -0.058693 -0.036424 0.210659
v -0.058693 -0.036424 0.070220
v -0.058693 -0.036424 -0.070220
v -0.058693 -0.036424 -0.210659
v -0.058693 -0.036424 -0.351099
v -0.058693 -0.036424 -0.491538
v -0.058693 -0.036424 -0.631978
v -0.058693 -0.000864 -0.772418
v -0.058693 -0.036424 0.772418
v -0.058693 -0.000864 0.719885
v -0.058693 -0.000864 0.491538
v -0.058693 -0.000864 0.351099
v -0.058693 -0.000864 0.210659
v -0.058693 -0.000864 0.070220
v -0.058693 -0.000864 -0.070220
v -0.058693 -0.000864 -0.210659
v -0.058693 -0.000864 -0.351099
v -0.058693 -0.000864 -0.491538
v -0.058693 -0.000864 -0.719885
v -0.856411 -0.073683 -0.491538
v -0.856411 -0.073683 -0.351099
v -0.856411 -0.073683 -0.210659
v -0.856411 -0.073683 0.210659
v -0.856411 -0.073683 0.351099
v -0.856411 -0.073683 0.491538
v -0.058693 -0.073683 0.491538
v -0.058693 -0.073683 0.351099
v -0.058693 -0.073683 0.210659
v -0.058693 -0.073683 -0.210659
v -0.058693 -0.073683 -0.351099
v -0.058693 -0.073683 -0.491538
v 0.000000 0.051912 0.736927
v -0.036708 0.036708 0.736927
v -0.051912 0.000000 0.736927
v -0.036708 -0.036708 0.736927
v 0.000000 -0.051912 0.736927
v 0.036708 -0.036708 0.736927
v 0.051912 0.000000 0.736927
v 0.036708 0.036708 0.736927
v -0.036708 0.036708 0.790113
v 0.000000 0.051912 0.790113
v -0.051912 0.000000 0.790113
v -0.036708 -0.036708 0.790113
v 0.000000 -0.051912 0.790113
v 0.036708 -0.036708 0.790113
v 0.051912 0.000000 0.790113
v 0.036708 0.036708 0.790113
v 0.000000 0.051912 -0.736927
v -0.036708 0.036708 -0.736927
v -0.051912 0.000000 -0.736927
v -0.036708 -0.036708 -0.736927
v 0.000000 -0.051912 -0.736927
v 0.036708 -0.036708 -0.736927
v 0.051912 0.000000 -0.736927
v 0.036708 0.036708 -0.736927
v -0.036708 0.036708 -0.790113
v 0.000000 0.051912 -0.790113
v -0.051912 0.000000 -0.790113
v -0.036708 -0.036708 -0.790113
v 0.000000 -0.051912 -0.790113
v 0.036708 -0.036708 -0.790113
v 0.051912 0.000000 -0.790113
v 0.036708 0.036708 -0.790113
v -0.000000 0.193586 0.843081
v -0.000000 0.193586 0.947391
v 0.136886 0.136886 0.843081
v 0.136886 0.136886 0.947391
v 0.193586 0.000000 0.843081
v 0.193586 -0.000000 0.947391
v 0.136886 -0.136886 0.843081
v 0.136886 -0.136886 0.947391
v -0.000000 -0.193586 0.843081
v -0.000000 -0.193586 0.947391
v -0.136886 -0.136886 0.843081
v -0.136886 -0.136886 0.947391
v -0.193586 0.000000 0.843081
v -0.193586 0.000000 0.947391
v -0.136886 0.136886 0.843081
v -0.136886 0.136886 0.947391
v 0.073997 0.178644 0.843081
v 0.073997 0.178644 0.947391
v 0.178644 0.073997 0.843081
v 0.178644 0.073997 0.947391
v 0.178644 -0.073997 0.843081
v 0.178644 -0.073997 0.947391
v 0.073997 -0.178644 0.843081
v 0.073997 -0.178644 0.947391
v -0.073997 -0.178644 0.843081
v -0.073997 -0.178644 0.947391
v -0.178644 -0.073997 0.843081
v -0.178644 -0.073997 0.947391
v -0.178644 0.073997 0.843081
v -0.178644 0.073997 0.947391
v -0.073997 0.178644 0.843081
v -0.073997 0.178644 0.947391
v -0.000000 0.193586 -0.843081
v -0.000000 0.193586 -0.947391
v 0.136886 0.136886 -0.843081
v 0.136886 0.136886 -0.947391
v 0.193586 0.000000 -0.843081
v 0.193586 -0.000000 -0.947391
v 0.136886 -0.136886 -0.843081
v 0.136886 -0.136886 -0.947391
v -0.000000 -0.193586 -0.843081
v -0.000000 -0.193586 -0.947391
v -0.136886 -0.136886 -0.843081
v -0.136886 -0.136886 -0.947391
v -0.193586 0.000000 -0.843081
v -0.193586 0.000000 -0.947391
v -0.136886 0.136886 -0.843081
v -0.136886 0.136886 -0.947391
v 0.073997 0.178644 -0.843081
v 0.073997 0.178644 -0.947391
v 0.178644 0.073997 -0.843081
v 0.178644 0.073997 -0.947391
v 0.178644 -0.073997 -0.843081
v 0.178644 -0.073997 -0.947391
v 0.073997 -0.178644 -0.843081
v 0.073997 -0.178644 -0.947391
v -0.073997 -0.178644 -0.843081
v -0.073997 -0.178644 -0.947391
v -0.178644 -0.073997 -0.843081
v -0.178644 -0.073997 -0.947391
v -0.178644 0.073997 -0.843081
v -0.178644 0.073997 -0.947391
v -0.073997 0.178644 -0.843081
v -0.073997 0.178644 -0.947391
vt 0.983759 0.049383
vt 0.983759 0.002868
vt 0.995537 0.002868
vt 0.995537 0.020267
vt 0.809797 0.575648
vt 0.812644 0.507361
vt 0.822955 0.507361
vt 0.825802 0.575648
vt 0.849602 0.907168
vt 0.849602 0.930446
vt 0.833597 0.930446
vt 0.833597 0.907168
vt 0.715043 0.531984
vt 0.703266 0.531984
vt 0.703266 0.485469
vt 0.715043 0.485469
vt 0.678090 0.497132
vt 0.697529 0.497132
vt 0.697529 0.514531
vt 0.678090 0.514531
vt 0.022307 0.468017
vt 0.022307 0.514532
vt 0.002868 0.514532
vt 0.002868 0.468017
vt 0.022307 0.002869
vt 0.022307 0.049384
vt 0.002868 0.049384
vt 0.002868 0.002869
vt 0.022307 0.095898
vt 0.002868 0.095899
vt 0.022307 0.142413
vt 0.002868 0.142413
vt 0.022307 0.188928
vt 0.002868 0.188928
vt 0.022307 0.235443
vt 0.002868 0.235443
vt 0.022307 0.281958
vt 0.002868 0.281958
vt 0.022307 0.328472
vt 0.002868 0.328473
vt 0.022307 0.374987
vt 0.002868 0.374987
vt 0.022307 0.421502
vt 0.002868 0.421502
vt 0.678090 0.002869
vt 0.697529 0.002869
vt 0.697529 0.020268
vt 0.678090 0.020268
vt 0.697529 0.095898
vt 0.678090 0.095898
vt 0.697529 0.142413
vt 0.678090 0.142413
vt 0.697529 0.188928
vt 0.678090 0.188928
vt 0.697529 0.235443
vt 0.678090 0.235443
vt 0.697529 0.281957
vt 0.678090 0.281957
vt 0.697529 0.328472
vt 0.678090 0.328472
vt 0.697529 0.374987
vt 0.678090 0.374987
vt 0.697529 0.421502
vt 0.678090 0.421502
vt 0.712948 0.997132
vt 0.705360 0.997132
vt 0.705360 0.950617
vt 0.712948 0.950617
vt 0.703266 0.904102
vt 0.715043 0.904102
vt 0.703266 0.857587
vt 0.715043 0.857587
vt 0.705360 0.811073
vt 0.712948 0.811073
vt 0.705360 0.764558
vt 0.712948 0.764558
vt 0.703266 0.718043
vt 0.715043 0.718043
vt 0.703266 0.671528
vt 0.715043 0.671528
vt 0.705360 0.625013
vt 0.712948 0.625013
vt 0.705360 0.578499
vt 0.712948 0.578499
vt 0.983759 0.514531
vt 0.983759 0.468016
vt 0.995536 0.497132
vt 0.995536 0.514531
vt 0.983759 0.421501
vt 0.995536 0.421501
vt 0.983759 0.374987
vt 0.995536 0.374987
vt 0.983759 0.328472
vt 0.995536 0.328472
vt 0.983759 0.281957
vt 0.995536 0.281957
vt 0.983759 0.235442
vt 0.995536 0.235442
vt 0.983759 0.188927
vt 0.995536 0.188927
vt 0.983759 0.142413
vt 0.995536 0.142413
vt 0.983759 0.095898
vt 0.995536 0.095898
vt 0.386204 0.421501
vt 0.403333 0.421501
vt 0.403333 0.497132
vt 0.353067 0.468017
vt 0.386204 0.374987
vt 0.403333 0.374987
vt 0.353067 0.328472
vt 0.403333 0.328472
vt 0.353067 0.281957
vt 0.403333 0.281957
vt 0.386204 0.235442
vt 0.403333 0.235442
vt 0.386204 0.188927
vt 0.403333 0.188927
vt 0.353067 0.142413
vt 0.403333 0.142413
vt 0.353067 0.095898
vt 0.403333 0.095898
vt 0.386204 0.049383
vt 0.403333 0.020267
vt 0.386204 0.002868
vt 0.403333 0.002868
vt 0.314193 0.421501
vt 0.347331 0.468017
vt 0.297064 0.468016
vt 0.297064 0.421501
vt 0.314193 0.374987
vt 0.297064 0.374987
vt 0.347331 0.328472
vt 0.297064 0.328472
vt 0.347331 0.281958
vt 0.297064 0.281957
vt 0.314193 0.235442
vt 0.297064 0.235442
vt 0.314193 0.188927
vt 0.297064 0.188927
vt 0.347331 0.142413
vt 0.297064 0.142413
vt 0.347331 0.095898
vt 0.297064 0.095898
vt 0.314193 0.049383
vt 0.297064 0.049383
vt 0.314193 0.002868
vt 0.297064 0.002868
vt 0.347331 0.514532
vt 0.297064 0.514531
vt 0.403333 0.514531
vt 0.353067 0.514531
vt 0.849602 0.533778
vt 0.833597 0.533778
vt 0.809797 0.949038
vt 0.825802 0.949038
vt 0.809797 0.975455
vt 0.825802 0.975455
vt 0.849602 0.507361
vt 0.833597 0.507361
vt 0.703266 0.404102
vt 0.978023 0.404103
vt 0.978023 0.479733
vt 0.703266 0.479732
vt 0.703266 0.357587
vt 0.978023 0.357588
vt 0.703266 0.311072
vt 0.978023 0.311073
vt 0.703266 0.264558
vt 0.978023 0.264558
vt 0.703266 0.218043
vt 0.978023 0.218043
vt 0.703266 0.171528
vt 0.978023 0.171528
vt 0.703266 0.125013
vt 0.978023 0.125014
vt 0.703266 0.078498
vt 0.978023 0.078499
vt 0.703266 0.002868
vt 0.978023 0.002869
vt 0.626704 0.410586
vt 0.626704 0.135819
vt 0.639044 0.146375
vt 0.639044 0.410586
vt 0.409102 0.620580
vt 0.502204 0.620579
vt 0.502204 0.645280
vt 0.409102 0.645280
vt 0.502204 0.548216
vt 0.595307 0.548216
vt 0.595307 0.572916
vt 0.502204 0.572916
vt 0.502204 0.656761
vt 0.595307 0.656761
vt 0.595307 0.681461
vt 0.502204 0.681461
vt 0.475687 0.135819
vt 0.522202 0.135820
vt 0.522202 0.400021
vt 0.475687 0.400021
vt 0.429172 0.135819
vt 0.429172 0.400021
vt 0.574453 0.135819
vt 0.620968 0.135820
vt 0.620968 0.400021
vt 0.574453 0.400021
vt 0.527938 0.135819
vt 0.527938 0.400021
vt 0.898732 0.507361
vt 0.898732 0.880751
vt 0.881962 0.880751
vt 0.881962 0.521705
vt 0.409102 0.548216
vt 0.409102 0.572917
vt 0.595307 0.620579
vt 0.595307 0.645280
vt 0.502204 0.584398
vt 0.595306 0.584398
vt 0.595306 0.609098
vt 0.502204 0.609098
vt 0.644780 0.410586
vt 0.644780 0.135819
vt 0.657121 0.146375
vt 0.657121 0.410586
vt 0.409102 0.656761
vt 0.409102 0.681461
vt 0.409102 0.584398
vt 0.409102 0.609098
vt 0.874167 0.507361
vt 0.874167 0.880751
vt 0.857397 0.880751
vt 0.857397 0.521705
vt 0.016620 0.944956
vt 0.016620 0.917652
vt 0.035927 0.898345
vt 0.063231 0.898346
vt 0.082537 0.917652
vt 0.082537 0.944956
vt 0.063231 0.964263
vt 0.035927 0.964263
vt 0.094439 0.917652
vt 0.113746 0.898346
vt 0.141050 0.898346
vt 0.160357 0.917652
vt 0.160357 0.944956
vt 0.141050 0.964263
vt 0.113746 0.964263
vt 0.094439 0.944956
vt 0.583948 0.900867
vt 0.583948 0.918626
vt 0.550327 0.918626
vt 0.550327 0.900867
vt 0.494809 0.918626
vt 0.494809 0.943743
vt 0.461188 0.943743
vt 0.461188 0.918626
vt 0.450240 0.943743
vt 0.450240 0.961502
vt 0.416619 0.961502
vt 0.416619 0.943743
vt 0.583948 0.943743
vt 0.550327 0.943743
vt 0.494809 0.961502
vt 0.461188 0.961502
vt 0.494809 0.900867
vt 0.461188 0.900867
vt 0.450240 0.918626
vt 0.416619 0.918626
vt 0.450240 0.900867
vt 0.416619 0.900867
vt 0.250077 0.917652
vt 0.269384 0.898345
vt 0.296688 0.898346
vt 0.315995 0.917652
vt 0.315995 0.944956
vt 0.296688 0.964263
vt 0.269384 0.964263
vt 0.250077 0.944956
vt 0.172258 0.944956
vt 0.172258 0.917652
vt 0.191565 0.898346
vt 0.218869 0.898346
vt 0.238176 0.917652
vt 0.238176 0.944956
vt 0.218869 0.964263
vt 0.191565 0.964263
vt 0.594896 0.900867
vt 0.628518 0.900867
vt 0.628518 0.918626
vt 0.594896 0.918626
vt 0.505758 0.918626
vt 0.539379 0.918626
vt 0.539379 0.943743
vt 0.505758 0.943743
vt 0.372049 0.943743
vt 0.405671 0.943743
vt 0.405671 0.961502
vt 0.372049 0.961502
vt 0.628518 0.943743
vt 0.594896 0.943743
vt 0.539379 0.961502
vt 0.505758 0.961502
vt 0.505758 0.900867
vt 0.539379 0.900867
vt 0.372049 0.918626
vt 0.405671 0.918626
vt 0.372049 0.900867
vt 0.405671 0.900867
vt 0.372049 0.845794
vt 0.437988 0.845794
vt 0.437988 0.889919
vt 0.372049 0.889919
vt 0.514875 0.720153
vt 0.514875 0.754023
vt 0.448936 0.754023
vt 0.448936 0.720153
vt 0.514875 0.798074
vt 0.448936 0.798074
vt 0.514875 0.845794
vt 0.448936 0.845794
vt 0.514875 0.889919
vt 0.448936 0.889919
vt 0.525823 0.889919
vt 0.525823 0.856049
vt 0.591761 0.856049
vt 0.591761 0.889919
vt 0.525823 0.811998
vt 0.591761 0.811998
vt 0.525823 0.764278
vt 0.591761 0.764278
vt 0.525823 0.720153
vt 0.591761 0.720153
vt 0.668648 0.720153
vt 0.668648 0.754023
vt 0.602709 0.754023
vt 0.602709 0.720153
vt 0.668648 0.798074
vt 0.602709 0.798074
vt 0.668648 0.845794
vt 0.602709 0.845794
vt 0.668648 0.889919
vt 0.602709 0.889919
vt 0.437988 0.720153
vt 0.437988 0.754023
vt 0.372049 0.754023
vt 0.372049 0.720153
vt 0.437988 0.798074
vt 0.372049 0.798074
vt 0.183788 0.749859
vt 0.183788 0.701890
vt 0.255470 0.701890
vt 0.255470 0.749859
vt 0.171886 0.886444
vt 0.100204 0.886444
vt 0.100204 0.849624
vt 0.171886 0.849624
vt 0.100204 0.801736
vt 0.171886 0.801736
vt 0.100204 0.749859
vt 0.171886 0.749859
vt 0.100204 0.701890
vt 0.171886 0.701891
vt 0.088302 0.886444
vt 0.016620 0.886444
vt 0.016620 0.849624
vt 0.088302 0.849624
vt 0.016620 0.801736
vt 0.088302 0.801736
vt 0.016620 0.749859
vt 0.088302 0.749859
vt 0.016620 0.701891
vt 0.088302 0.701891
vt 0.339054 0.886444
vt 0.267372 0.886444
vt 0.267372 0.849624
vt 0.339054 0.849624
vt 0.267372 0.801736
vt 0.339054 0.801736
vt 0.267372 0.749859
vt 0.339054 0.749859
vt 0.267372 0.701890
vt 0.339054 0.701891
vt 0.255470 0.886444
vt 0.183788 0.886444
vt 0.183788 0.849624
vt 0.255470 0.849624
vt 0.183788 0.801736
vt 0.255470 0.801736
vn 1.0000 0.0000 0.0000
vn 0.0000 0.0000 -1.0000
vn 0.0000 0.0000 1.0000
vn -1.0000 0.0000 0.0000
vn 0.0000 1.0000 0.0000
vn 0.0000 -1.0000 0.0000
vn -0.8146 -0.0000 0.5800
vn -0.8146 0.0000 -0.5800
vn -0.0344 0.9994 -0.0078
vn -0.0311 0.9995 0.0114
vn -0.0417 0.9991 0.0000
vn -0.0311 0.9995 -0.0114
vn -0.0268 0.9996 -0.0099
vn -0.0311 -0.9995 -0.0114
vn -0.0311 -0.9995 0.0114
vn -0.0417 -0.9991 0.0000
vn -0.7599 -0.6500 0.0000
vn 0.9239 -0.3827 0.0000
vn -0.3827 -0.9239 0.0000
vn -0.9239 0.3827 0.0000
vn 0.9239 0.3827 0.0000
vn 0.3827 -0.9239 0.0000
vn -0.9239 -0.3827 0.0000
vn -0.3827 0.9239 0.0000
vn 0.3827 0.9239 0.0000
vn 0.5532 0.8331 0.0000
vn 0.8331 0.5532 0.0000
vn 0.9802 0.1979 0.0000
vn 0.9802 -0.1979 -0.0000
vn 0.8331 -0.5532 -0.0000
vn 0.5532 -0.8331 -0.0000
vn 0.1979 -0.9802 -0.0000
vn -0.1979 -0.9802 -0.0000
vn -0.5532 -0.8331 -0.0000
vn -0.8331 -0.5532 -0.0000
vn -0.9802 -0.1979 -0.0000
vn -0.9802 0.1979 0.0000
vn -0.8331 0.5532 0.0000
vn -0.5532 0.8331 0.0000
vn -0.1979 0.9802 0.0000
vn 0.1979 0.9802 0.0000
usemtl Texture
s off
f 38/1/1 4/2/1 3/3/1 9/4/1
f 50/5/2 8/6/2 5/7/2 49/8/2
f 52/9/3 6/10/3 7/11/3 51/12/3
f 28/13/4 39/14/4 7/15/4 6/16/4
f 96/17/5 9/18/5 3/19/5 85/20/5
f 84/21/6 73/22/6 4/23/6 38/24/6
f 86/25/6 75/26/6 29/27/6 2/28/6
f 75/26/6 76/29/6 30/30/6 29/27/6
f 76/29/6 77/31/6 31/32/6 30/30/6
f 77/31/6 78/33/6 32/34/6 31/32/6
f 78/33/6 79/35/6 33/36/6 32/34/6
f 79/35/6 80/37/6 34/38/6 33/36/6
f 80/37/6 81/39/6 35/40/6 34/38/6
f 81/39/6 82/41/6 36/42/6 35/40/6
f 82/41/6 83/43/6 37/44/6 36/42/6
f 83/43/6 84/21/6 38/24/6 37/44/6
f 74/45/5 1/46/5 18/47/5 87/48/5
f 87/48/5 18/47/5 17/49/5 88/50/5
f 88/50/5 17/49/5 16/51/5 89/52/5
f 89/52/5 16/51/5 15/53/5 90/54/5
f 90/54/5 15/53/5 14/55/5 91/56/5
f 91/56/5 14/55/5 13/57/5 92/58/5
f 92/58/5 13/57/5 12/59/5 93/60/5
f 93/60/5 12/59/5 11/61/5 94/62/5
f 94/62/5 11/61/5 10/63/5 95/64/5
f 95/64/5 10/63/5 9/18/5 96/17/5
f 5/65/4 8/66/4 48/67/4 19/68/4
f 19/68/7 48/67/7 47/69/7 20/70/7
f 20/70/4 47/69/4 46/71/4 21/72/4
f 21/72/8 46/71/8 45/73/8 22/74/8
f 22/74/4 45/73/4 44/75/4 23/76/4
f 23/76/7 44/75/7 43/77/7 24/78/7
f 24/78/4 43/77/4 42/79/4 25/80/4
f 25/80/8 42/79/8 41/81/8 26/82/8
f 26/82/4 41/81/4 40/83/4 27/84/4
f 27/84/7 40/83/7 39/14/7 28/13/7
f 2/85/1 29/86/1 18/87/1 1/88/1
f 29/86/1 30/89/1 17/90/1 18/87/1
f 30/89/1 31/91/1 16/92/1 17/90/1
f 31/91/1 32/93/1 15/94/1 16/92/1
f 32/93/1 33/95/1 14/96/1 15/94/1
f 33/95/1 34/97/1 13/98/1 14/96/1
f 34/97/1 35/99/1 12/100/1 13/98/1
f 35/99/1 36/101/1 11/102/1 12/100/1
f 36/101/1 37/103/1 10/104/1 11/102/1
f 37/103/1 38/1/1 9/4/1 10/104/1
f 20/105/9 71/106/9 72/107/9 19/108/9
f 21/109/5 70/110/5 71/106/5 20/105/5
f 22/111/10 69/112/10 70/110/10 21/109/10
f 23/113/11 68/114/11 69/112/11 22/111/11
f 24/115/12 67/116/12 68/114/12 23/113/12
f 25/117/5 66/118/5 67/116/5 24/115/5
f 26/119/10 65/120/10 66/118/10 25/117/10
f 27/121/11 64/122/11 65/120/11 26/119/11
f 28/123/13 63/124/13 64/122/13 27/121/13
f 6/125/5 52/126/5 63/124/5 28/123/5
f 47/127/14 48/128/14 62/129/14 61/130/14
f 46/131/6 47/127/6 61/130/6 60/132/6
f 45/133/15 46/131/15 60/132/15 59/134/15
f 44/135/16 45/133/16 59/134/16 58/136/16
f 43/137/14 44/135/14 58/136/14 57/138/14
f 42/139/6 43/137/6 57/138/6 56/140/6
f 41/141/15 42/139/15 56/140/15 55/142/15
f 40/143/16 41/141/16 55/142/16 54/144/16
f 39/145/14 40/143/14 54/144/14 53/146/14
f 7/147/6 39/145/6 53/146/6 51/148/6
f 48/128/16 8/149/16 50/150/16 62/129/16
f 19/108/11 72/107/11 49/151/11 5/152/11
f 74/153/3 52/9/3 51/12/3 86/154/3
f 73/155/2 50/5/2 49/8/2 85/156/2
f 4/157/2 73/155/2 85/156/2 3/158/2
f 1/159/3 74/153/3 86/154/3 2/160/3
f 71/161/5 95/162/5 96/163/5 72/164/5
f 70/165/5 94/166/5 95/162/5 71/161/5
f 69/167/5 93/168/5 94/166/5 70/165/5
f 68/169/5 92/170/5 93/168/5 69/167/5
f 67/171/5 91/172/5 92/170/5 68/169/5
f 66/173/5 90/174/5 91/172/5 67/171/5
f 65/175/5 89/176/5 90/174/5 66/173/5
f 64/177/5 88/178/5 89/176/5 65/175/5
f 63/179/5 87/180/5 88/178/5 64/177/5
f 52/126/5 74/45/5 87/48/5 63/124/5
f 61/130/6 62/129/6 84/21/6 83/43/6
f 81/181/3 59/182/3 99/183/3 106/184/3
f 78/185/1 77/186/1 104/187/1 105/188/1
f 58/136/6 59/134/6 81/39/6 80/37/6
f 57/138/6 58/136/6 80/37/6 79/35/6
f 56/140/6 57/138/6 79/35/6 78/33/6
f 60/189/17 61/190/17 97/191/17 98/192/17
f 82/193/1 81/194/1 106/195/1 107/196/1
f 53/146/6 54/144/6 76/29/6 75/26/6
f 51/148/6 53/146/6 75/26/6 86/25/6
f 62/129/6 50/150/6 73/22/6 84/21/6
f 72/107/5 96/17/5 85/20/5 49/151/5
f 98/197/6 97/198/6 108/199/6 107/200/6
f 99/201/6 98/197/6 107/200/6 106/202/6
f 101/203/6 100/204/6 105/205/6 104/206/6
f 102/207/6 101/203/6 104/206/6 103/208/6
f 56/209/2 78/210/2 105/211/2 100/212/2
f 59/213/17 60/189/17 98/192/17 99/214/17
f 77/186/1 76/215/1 103/216/1 104/187/1
f 55/217/17 56/218/17 100/219/17 101/220/17
f 76/221/3 54/222/3 102/223/3 103/224/3
f 83/225/1 82/193/1 107/196/1 108/226/1
f 54/227/17 55/217/17 101/220/17 102/228/17
f 61/229/2 83/230/2 108/231/2 97/232/2
f 110/233/2 109/234/2 116/235/2 115/236/2 114/237/2 113/238/2 112/239/2 111/240/2
f 117/241/3 119/242/3 120/243/3 121/244/3 122/245/3 123/246/3 124/247/3 118/248/3
f 114/249/18 115/250/18 123/251/18 122/252/18
f 112/253/19 113/254/19 121/255/19 120/256/19
f 110/257/20 111/258/20 119/259/20 117/260/20
f 115/250/21 116/261/21 124/262/21 123/251/21
f 113/254/22 114/263/22 122/264/22 121/255/22
f 111/265/23 112/253/23 120/256/23 119/266/23
f 109/267/24 110/257/24 117/260/24 118/268/24
f 116/269/25 109/267/25 118/268/25 124/270/25
f 126/271/3 127/272/3 128/273/3 129/274/3 130/275/3 131/276/3 132/277/3 125/278/3
f 133/279/2 134/280/2 140/281/2 139/282/2 138/283/2 137/284/2 136/285/2 135/286/2
f 130/287/18 138/288/18 139/289/18 131/290/18
f 128/291/19 136/292/19 137/293/19 129/294/19
f 126/295/20 133/296/20 135/297/20 127/298/20
f 131/290/21 139/289/21 140/299/21 132/300/21
f 129/294/22 137/293/22 138/301/22 130/302/22
f 127/303/23 135/304/23 136/292/23 128/291/23
f 125/305/24 134/306/24 133/296/24 126/295/24
f 132/307/25 140/308/25 134/306/25 125/305/25
f 157/309/26 158/310/26 144/311/26 143/312/26
f 144/313/27 160/314/27 159/315/27 143/316/27
f 159/315/28 160/314/28 146/317/28 145/318/28
f 146/317/29 162/319/29 161/320/29 145/318/29
f 161/320/30 162/319/30 148/321/30 147/322/30
f 148/323/31 164/324/31 163/325/31 147/326/31
f 163/325/32 164/324/32 150/327/32 149/328/32
f 150/327/33 166/329/33 165/330/33 149/328/33
f 165/330/34 166/329/34 152/331/34 151/332/34
f 152/333/35 168/334/35 167/335/35 151/336/35
f 167/335/36 168/334/36 154/337/36 153/338/36
f 154/337/37 170/339/37 169/340/37 153/338/37
f 169/340/38 170/339/38 156/341/38 155/342/38
f 156/343/39 172/344/39 171/345/39 155/346/39
f 171/345/40 172/344/40 142/347/40 141/348/40
f 141/348/41 142/347/41 158/310/41 157/309/41
f 189/349/26 175/350/26 176/351/26 190/352/26
f 176/353/27 175/354/27 191/355/27 192/356/27
f 191/355/28 177/357/28 178/358/28 192/356/28
f 178/358/29 177/357/29 193/359/29 194/360/29
f 193/359/30 179/361/30 180/362/30 194/360/30
f 180/363/31 179/364/31 195/365/31 196/366/31
f 195/365/32 181/367/32 182/368/32 196/366/32
f 182/368/33 181/367/33 197/369/33 198/370/33
f 197/369/34 183/371/34 184/372/34 198/370/34
f 184/373/35 183/374/35 199/375/35 200/376/35
f 199/375/36 185/377/36 186/378/36 200/376/36
f 186/378/37 185/377/37 201/379/37 202/380/37
f 201/379/38 187/381/38 188/382/38 202/380/38
f 188/383/39 187/384/39 203/385/39 204/386/39
f 203/385/40 173/387/40 174/388/40 204/386/40
f 173/387/41 189/349/41 190/352/41 174/388/41
