# Blender v2.92.0 OBJ File: 'canal_corner_out_export.blend'
# www.blender.org
mtllib canal_corner_out.mtl
o Plane.003
v 0.958008 0.100000 -0.958008
v 0.841992 0.100000 -0.958008
v 0.841992 0.100000 -0.841992
v 0.958008 0.100000 -0.841992
v 0.866860 0.150000 -0.933140
v 0.933140 0.150000 -0.933140
v 0.933140 0.150000 -0.866860
v 0.866860 0.150000 -0.866860
v 0.847793 0.150000 -0.952207
v 0.952207 0.150000 -0.952207
v 0.952207 0.150000 -0.847793
v 0.847793 0.150000 -0.847793
v 0.881885 0.286347 -0.918115
v 0.918115 0.286347 -0.918115
v 0.918115 0.286347 -0.881885
v 0.881885 0.286347 -0.881885
v 0.875953 0.286347 -0.924047
v 0.924047 0.286347 -0.924047
v 0.924047 0.286347 -0.875953
v 0.875953 0.286347 -0.875953
v 0.890854 0.327180 -0.909147
v 0.909147 0.327180 -0.909147
v 0.909147 0.327180 -0.890854
v 0.890854 0.327180 -0.890854
v 0.900000 0.339463 -0.900000
v 1.000000 0.000000 -1.000000
v 1.000000 0.100000 -1.000000
v 0.800000 0.100000 -1.000000
v -1.000000 -0.800000 -1.000000
v 0.600000 -0.800000 -1.000000
v 0.800000 0.000000 -1.000000
v 0.600000 -0.700000 -1.000000
v 1.000000 -0.800000 1.000000
v 0.800000 -0.800000 1.000000
v 0.800000 -0.800000 -0.600000
v 1.000000 -0.800000 -0.600000
v 1.000000 -0.700000 -0.600000
v 0.800000 -0.700000 -0.600000
v 0.600000 -0.700000 -0.800000
v 0.800000 0.000000 -0.800000
v 0.600000 -0.800000 -0.800000
v -1.000000 -0.800000 -0.800000
v 0.800000 0.100000 -0.800000
v 1.000000 0.100000 -0.800000
v 1.000000 0.000000 -0.800000
v -1.000000 -0.800000 1.000000
v 0.316490 -0.799981 -0.537558
v 0.294976 -0.799981 -0.506282
v 0.301879 -0.799981 -0.468954
v 0.333155 -0.799981 -0.447440
v 0.370483 -0.799981 -0.454343
v 0.391997 -0.799981 -0.485619
v 0.385094 -0.799981 -0.522947
v 0.353818 -0.799981 -0.544461
v 0.305354 -0.781930 -0.504072
v 0.322265 -0.781930 -0.528657
v 0.310780 -0.781930 -0.474730
v 0.335365 -0.781930 -0.457818
v 0.364708 -0.781930 -0.463245
v 0.381619 -0.781930 -0.487830
v 0.376193 -0.781930 -0.517172
v 0.351608 -0.781930 -0.534083
v 0.343487 -0.766494 -0.495951
v -0.461642 -0.799981 0.729656
v -0.458713 -0.799981 0.781096
v -0.420267 -0.799981 0.815399
v -0.368827 -0.799981 0.812470
v -0.334524 -0.799981 0.774024
v -0.337453 -0.799981 0.722584
v -0.375899 -0.799981 0.688281
v -0.427340 -0.799981 0.691210
v -0.445742 -0.775481 0.774837
v -0.448044 -0.775481 0.734402
v -0.415521 -0.775481 0.801801
v -0.375086 -0.775481 0.799499
v -0.348122 -0.775481 0.769278
v -0.350424 -0.775481 0.728842
v -0.380645 -0.775481 0.701879
v -0.421080 -0.775481 0.704181
v -0.398083 -0.754530 0.751840
vt 0.379521 0.684927
vt 0.454571 0.684927
vt 0.444274 0.836840
vt 0.389817 0.836840
vt 0.935504 0.241548
vt 0.710087 0.241548
vt 0.721357 0.144734
vt 0.924233 0.144734
vt 0.935504 0.131563
vt 0.710087 0.131563
vt 0.721357 0.034748
vt 0.924233 0.034748
vt 0.935504 0.461518
vt 0.710087 0.461518
vt 0.721357 0.364704
vt 0.924233 0.364704
vt 0.935504 0.351533
vt 0.710087 0.351533
vt 0.721357 0.254719
vt 0.924233 0.254719
vt 0.282918 0.479415
vt 0.202689 0.479415
vt 0.179610 0.456336
vt 0.305997 0.456336
vt 0.202689 0.559644
vt 0.179610 0.582723
vt 0.282918 0.559644
vt 0.305997 0.582723
vt 0.092142 0.880006
vt 0.014272 0.880006
vt 0.033549 0.790230
vt 0.072865 0.790230
vt 0.214069 0.684927
vt 0.289119 0.684927
vt 0.278823 0.836840
vt 0.224366 0.836840
vt 0.296795 0.684927
vt 0.371845 0.684927
vt 0.361548 0.836840
vt 0.307092 0.836840
vt 0.482185 0.785495
vt 0.529335 0.785495
vt 0.522866 0.880934
vt 0.488654 0.880934
vt 0.944654 0.645989
vt 0.890559 0.645989
vt 0.881703 0.637133
vt 0.953510 0.637133
vt 0.890559 0.700083
vt 0.881703 0.708939
vt 0.944654 0.700083
vt 0.953510 0.708939
vt 0.170384 0.646339
vt 0.131068 0.646339
vt 0.150726 0.615802
vt 0.189661 0.736116
vt 0.111791 0.736116
vt 0.184581 0.880006
vt 0.106711 0.880006
vt 0.125988 0.790230
vt 0.165304 0.790230
vt 0.091999 0.739232
vt 0.014129 0.739232
vt 0.033405 0.649456
vt 0.072722 0.649456
vt 0.145646 0.759692
vt 0.053064 0.618918
vt 0.053207 0.759692
vt 0.030975 0.456336
vt 0.171405 0.456336
vt 0.171405 0.596766
vt 0.030975 0.596766
vt 0.564715 0.739585
vt 0.482185 0.739585
vt 0.482185 0.444343
vt 0.564715 0.444343
vt 0.482185 0.062102
vt 0.482185 0.021013
vt 0.564715 0.021013
vt 0.564715 0.062102
vt 0.482185 0.780673
vt 0.564715 0.780673
vt 0.482185 0.357344
vt 0.564715 0.357344
vt 0.647245 0.069725
vt 0.482185 0.398432
vt 0.564715 0.398432
vt 0.482185 0.403254
vt 0.564715 0.403254
vt 0.343233 0.014421
vt 0.343233 0.056104
vt 0.009770 0.056104
vt 0.009770 0.014421
vt 0.426598 0.097787
vt 0.426598 0.431249
vt 0.384916 0.431249
vt 0.384916 0.097787
vt 0.647245 0.028636
vt 0.935504 0.474689
vt 0.935504 0.587398
vt 0.710087 0.587398
vt 0.710087 0.474689
vt 0.009770 0.431249
vt 0.644266 0.878572
vt 0.661583 0.847130
vt 0.685332 0.880699
vt 0.815968 0.637133
vt 0.848436 0.663059
vt 0.825095 0.680687
vt 0.799573 0.660307
vt 0.815572 0.950304
vt 0.769907 0.950304
vt 0.774792 0.925595
vt 0.810688 0.925595
vt 0.620265 0.870930
vt 0.642295 0.830930
vt 0.871582 0.710772
vt 0.843289 0.718192
vt 0.676102 0.663059
vt 0.699248 0.710772
vt 0.670955 0.718192
vt 0.652761 0.680687
vt 0.643634 0.637133
vt 0.627239 0.660307
vt 0.671372 0.810081
vt 0.684439 0.830740
vt 0.618187 0.906649
vt 0.642632 0.906649
vt 0.795536 0.718192
vt 0.623202 0.718192
vt 0.792740 0.888598
vt 0.720126 0.878572
vt 0.737443 0.847130
vt 0.761192 0.880699
vt 0.729801 0.637133
vt 0.762269 0.663059
vt 0.738928 0.680687
vt 0.713406 0.660307
vt 0.934733 0.790719
vt 0.881703 0.790719
vt 0.887375 0.762024
vt 0.929061 0.762024
vt 0.696126 0.870930
vt 0.718155 0.830930
vt 0.785415 0.710772
vt 0.757122 0.718192
vt 0.815460 0.832407
vt 0.835392 0.873493
vt 0.811028 0.879882
vt 0.795361 0.847586
vt 0.787501 0.810081
vt 0.773383 0.830037
vt 0.747232 0.810081
vt 0.760299 0.830740
vt 0.694047 0.906649
vt 0.718492 0.906649
vt 0.709369 0.718192
vt 0.769907 0.879882
vt 0.908218 0.719060
vn -0.9978 0.0665 0.0000
vn -0.9933 0.1152 0.0000
vn 0.9933 0.1152 0.0000
vn 0.0000 0.1152 0.9933
vn 0.0000 0.1152 -0.9933
vn 0.0000 1.0000 0.0000
vn 0.0000 0.2145 0.9767
vn 0.9978 0.0665 0.0000
vn 0.0000 0.0665 0.9978
vn 0.0000 0.0665 -0.9978
vn 0.0000 0.5973 -0.8021
vn 0.0000 0.2145 -0.9767
vn -0.9767 0.2145 0.0000
vn 0.9767 0.2145 0.0000
vn -0.8021 0.5972 0.0000
vn 0.8021 0.5973 0.0000
vn 0.0000 0.5972 0.8021
vn 0.0000 0.2747 0.9615
vn -1.0000 0.0000 0.0000
vn 0.0000 0.0000 1.0000
vn -0.9615 0.2747 0.0000
vn -0.6931 0.1980 0.6931
vn -0.7071 0.0000 0.7071
vn 1.0000 0.0000 0.0000
vn 0.3245 0.9192 0.2232
vn -0.8641 0.4773 0.1598
vn 0.4980 0.4773 -0.7240
vn 0.7240 0.4773 0.4980
vn -0.4980 0.4773 0.7240
vn -0.7240 0.4773 -0.4980
vn -0.1598 0.4773 -0.8641
vn 0.8641 0.4773 -0.1598
vn 0.1598 0.4773 0.8641
vn -0.2232 0.9192 0.3245
vn -0.3245 0.9192 -0.2232
vn -0.0716 0.9192 -0.3873
vn 0.3873 0.9192 -0.0716
vn 0.0716 0.9192 0.3873
vn -0.3873 0.9192 0.0716
vn 0.2232 0.9192 -0.3245
vn 0.3933 0.9192 -0.0224
vn -0.5850 0.4773 0.6557
vn -0.0500 0.4773 -0.8773
vn 0.8773 0.4773 -0.0500
vn 0.0500 0.4773 0.8773
vn -0.8773 0.4773 0.0500
vn -0.6557 0.4773 -0.5850
vn 0.5850 0.4773 -0.6557
vn 0.6557 0.4773 0.5850
vn 0.0224 0.9192 0.3933
vn -0.3933 0.9192 0.0224
vn -0.2939 0.9192 -0.2622
vn 0.2622 0.9192 -0.2939
vn 0.2939 0.9192 0.2622
vn -0.2622 0.9192 0.2939
vn -0.0224 0.9192 -0.3933
usemtl Texture
s off
f 5/1/1 8/2/1 20/3/1 17/4/1
f 2/5/2 3/6/2 12/7/2 9/8/2
f 4/9/3 1/10/3 10/11/3 11/12/3
f 3/13/4 4/14/4 11/15/4 12/16/4
f 1/17/5 2/18/5 9/19/5 10/20/5
f 5/21/6 6/22/6 10/23/6 9/24/6
f 6/22/6 7/25/6 11/26/6 10/23/6
f 7/25/6 8/27/6 12/28/6 11/26/6
f 8/27/6 5/21/6 9/24/6 12/28/6
f 16/29/7 15/30/7 23/31/7 24/32/7
f 7/33/8 6/34/8 18/35/8 19/36/8
f 8/37/9 7/38/9 19/39/9 20/40/9
f 6/41/10 5/42/10 17/43/10 18/44/10
f 13/45/6 14/46/6 18/47/6 17/48/6
f 14/46/6 15/49/6 19/50/6 18/47/6
f 15/49/6 16/51/6 20/52/6 19/50/6
f 16/51/6 13/45/6 17/48/6 20/52/6
f 22/53/11 21/54/11 25/55/11
f 14/56/12 13/57/12 21/54/12 22/53/12
f 13/58/13 16/59/13 24/60/13 21/61/13
f 15/62/14 14/63/14 22/64/14 23/65/14
f 21/61/15 24/60/15 25/66/15
f 23/65/16 22/64/16 25/67/16
f 24/32/17 23/31/17 25/68/17
f 27/69/6 28/70/6 43/71/6 44/72/6
f 45/73/18 40/74/18 38/75/18 37/76/18
f 32/77/19 30/78/19 41/79/19 39/80/19
f 43/81/20 40/74/20 45/73/20 44/82/20
f 31/83/21 32/77/21 39/80/21 40/84/21
f 38/85/22 40/84/22 39/80/22
f 28/86/19 31/83/19 40/84/19 43/87/19
f 37/76/20 38/75/20 35/88/20 36/89/20
f 36/90/6 35/91/6 34/92/6 33/93/6
f 30/94/6 29/95/6 42/96/6 41/97/6
f 39/80/23 41/79/23 35/98/23 38/85/23
f 26/99/24 27/100/24 44/101/24 45/102/24
f 41/97/6 42/96/6 46/103/6 34/92/6 35/91/6
f 59/104/25 60/105/25 63/106/25
f 48/107/26 49/108/26 57/109/26 55/110/26
f 53/111/27 54/112/27 62/113/27 61/114/27
f 51/115/28 52/116/28 60/105/28 59/104/28
f 49/108/29 50/117/29 58/118/29 57/109/29
f 47/119/30 48/120/30 55/121/30 56/122/30
f 54/123/31 47/119/31 56/122/31 62/124/31
f 52/116/32 53/125/32 61/126/32 60/105/32
f 50/127/33 51/115/33 59/104/33 58/128/33
f 57/109/34 58/118/34 63/129/34
f 56/122/35 55/121/35 63/130/35
f 62/124/36 56/122/36 63/130/36
f 60/105/37 61/126/37 63/106/37
f 58/128/38 59/104/38 63/106/38
f 55/110/39 57/109/39 63/129/39
f 61/114/40 62/113/40 63/131/40
f 76/132/41 77/133/41 80/134/41
f 65/135/42 66/136/42 74/137/42 72/138/42
f 70/139/43 71/140/43 79/141/43 78/142/43
f 68/143/44 69/144/44 77/133/44 76/132/44
f 66/136/45 67/145/45 75/146/45 74/137/45
f 64/147/46 65/148/46 72/149/46 73/150/46
f 71/151/47 64/147/47 73/150/47 79/152/47
f 69/144/48 70/153/48 78/154/48 77/133/48
f 67/155/49 68/143/49 76/132/49 75/156/49
f 74/137/50 75/146/50 80/157/50
f 73/150/51 72/149/51 80/158/51
f 79/152/52 73/150/52 80/158/52
f 77/133/53 78/154/53 80/134/53
f 75/156/54 76/132/54 80/134/54
f 72/138/55 74/137/55 80/157/55
f 78/142/56 79/141/56 80/159/56
