# Blender v2.92.0 OBJ File: 'lab_windows_export.blend'
# www.blender.org
mtllib lab_windows.mtl
o Circle.001
v -0.670764 1.493569 -0.689687
v -0.718805 1.493569 -0.641646
v -0.718805 1.493569 -0.573706
v -0.670764 1.493569 -0.525665
v -0.602824 1.493569 -0.525665
v -0.554783 1.493569 -0.573706
v -0.554783 1.493569 -0.641646
v -0.602824 1.493569 -0.689687
v -0.693663 1.658349 -0.631232
v -0.660350 1.658349 -0.664545
v -0.693663 1.658349 -0.584120
v -0.660350 1.658349 -0.550806
v -0.613238 1.658349 -0.550806
v -0.579925 1.658349 -0.584120
v -0.579925 1.658349 -0.631232
v -0.613238 1.658349 -0.664545
v -1.000000 0.000000 1.000000
v 1.000000 0.000000 1.000000
v -1.000000 0.000000 -1.000000
v 1.000000 0.000000 -1.000000
v -1.000000 0.000000 0.595994
v 1.000000 0.000000 0.595994
v -1.000000 0.000000 -1.000000
v 1.000000 0.000000 -1.000000
v -0.883914 0.463263 -0.974714
v -1.000000 0.418449 0.266028
v 1.000000 0.418449 0.266028
v 0.883914 0.463263 -0.974714
v -0.883914 1.304170 -0.787038
v -1.000000 1.206244 -0.496362
v 1.000000 1.206244 -0.496362
v 0.883914 1.304170 -0.787038
v 0.000000 0.349965 0.595994
v 0.066266 0.397583 0.549910
v 0.066266 1.369849 -0.391002
v 0.805092 1.369849 -0.391002
v 0.805092 0.397583 0.549910
v -0.805092 0.397583 0.549910
v -0.805092 1.369849 -0.391002
v -0.066266 1.369849 -0.391002
v -0.066266 0.397583 0.549910
v 0.066266 1.320370 -0.442130
v 0.066266 0.348104 0.498782
v 0.805092 0.348104 0.498782
v 0.805092 1.320370 -0.442130
v -0.805092 0.348104 0.498782
v -0.805092 1.320370 -0.442130
v -0.066266 0.348104 0.498782
v -0.066266 1.320370 -0.442130
v 1.000000 0.418449 -0.825492
v 1.000000 1.206244 -0.649670
v -1.000000 1.206244 -0.649670
v -1.000000 0.418449 -0.825492
v 0.844186 0.514366 -0.987919
v 0.844186 1.270543 -0.819153
v -0.844186 1.270543 -0.819153
v -0.844186 0.514366 -0.987919
v -1.000000 0.349965 -1.000000
v -1.000000 0.349965 0.595994
v 1.000000 0.349965 0.595994
v 1.000000 0.349965 -1.000000
v -0.942936 1.417468 -0.704687
v -0.942936 1.417468 -0.494150
v 0.942936 1.417468 -0.494150
v 0.942936 1.417468 -0.704687
v -0.938776 0.418449 -0.825492
v -0.938776 0.418449 0.266028
v 0.938776 0.418449 0.266028
v 0.938776 0.418449 -0.825492
v -0.938776 1.206244 -0.649670
v -0.938776 1.206244 -0.496362
v 0.938776 1.206244 -0.496362
v 0.938776 1.206244 -0.649670
v -1.000000 1.417468 -0.761752
v -1.000000 1.417468 -0.437086
v 0.000000 1.417468 -0.437086
v 1.000000 1.417468 -0.437086
v 1.000000 1.417468 -0.761752
v -0.857129 1.506952 -0.693192
v -0.857129 1.506952 -0.501813
v 0.857129 1.506952 -0.501813
v 0.857129 1.506952 -0.693192
v 1.000000 0.123409 -1.000000
v 1.000000 0.123409 0.595994
v -1.000000 0.123409 0.595994
v -1.000000 0.123409 -1.000000
v -0.737724 0.000000 0.595994
v 0.737724 0.000000 0.595994
v -0.737724 0.042818 0.595994
v 0.737724 0.042818 0.595994
v -0.655258 0.000000 0.913985
v 0.655258 0.000000 0.913985
v -0.655258 0.042818 0.913985
v 0.655258 0.042818 0.913985
v -0.355622 1.493569 -0.689687
v -0.403663 1.493569 -0.641646
v -0.403663 1.493569 -0.573706
v -0.355622 1.493569 -0.525665
v -0.287682 1.493569 -0.525665
v -0.239641 1.493569 -0.573706
v -0.239641 1.493569 -0.641646
v -0.287682 1.493569 -0.689687
v -0.378522 1.658349 -0.631232
v -0.345208 1.658349 -0.664545
v -0.378522 1.658349 -0.584120
v -0.345208 1.658349 -0.550806
v -0.298096 1.658349 -0.550806
v -0.264783 1.658349 -0.584120
v -0.264783 1.658349 -0.631232
v -0.298096 1.658349 -0.664545
v 0.888985 0.602289 0.816287
v 0.846829 0.602289 0.816287
v 0.888985 0.641498 0.816287
v 0.846829 0.641498 0.816287
v 0.888985 0.482045 0.953743
v 0.846829 0.482045 0.953743
v 0.888985 0.482045 0.992952
v 0.846829 0.482045 0.992952
v 0.888985 -0.002045 0.953743
v 0.846829 -0.002045 0.953743
v 0.888985 -0.002045 0.992952
v 0.846829 -0.002045 0.992952
v 0.846829 0.264205 0.992952
v 0.846829 0.215796 0.992952
v 0.846829 0.215796 0.953743
v 0.846829 0.264205 0.953743
v 0.888985 0.215796 0.953743
v 0.888985 0.264205 0.953743
v 0.888985 0.215796 0.992952
v 0.888985 0.264205 0.992952
v 0.888985 0.215796 0.638369
v 0.888985 0.215796 0.683507
v 0.888985 0.264205 0.638369
v 0.888985 0.264205 0.683507
v 0.846829 0.264205 0.638369
v 0.846829 0.264205 0.683507
v 0.846829 0.215796 0.638369
v 0.846829 0.215796 0.683507
v 0.888985 0.602289 0.639579
v 0.888985 0.602289 0.682297
v 0.888985 0.641498 0.639579
v 0.888985 0.641498 0.682297
v 0.846829 0.602289 0.682297
v 0.846829 0.602289 0.639579
v 0.846829 0.641498 0.682297
v 0.846829 0.641498 0.639579
v -0.888985 0.602289 0.816287
v -0.846828 0.602289 0.816287
v -0.888985 0.641498 0.816287
v -0.846828 0.641498 0.816287
v -0.888985 0.482045 0.953743
v -0.846828 0.482045 0.953743
v -0.888985 0.482045 0.992952
v -0.846828 0.482045 0.992952
v -0.888985 -0.002045 0.953743
v -0.846828 -0.002045 0.953743
v -0.888985 -0.002045 0.992952
v -0.846828 -0.002045 0.992952
v -0.846828 0.264205 0.992952
v -0.846828 0.215796 0.992952
v -0.846828 0.215796 0.953743
v -0.846828 0.264205 0.953743
v -0.888985 0.215796 0.953743
v -0.888985 0.264205 0.953743
v -0.888985 0.215796 0.992952
v -0.888985 0.264205 0.992952
v -0.888985 0.215796 0.638369
v -0.888985 0.215796 0.683507
v -0.888985 0.264205 0.638369
v -0.888985 0.264205 0.683507
v -0.846828 0.264205 0.638369
v -0.846828 0.264205 0.683507
v -0.846828 0.215796 0.638369
v -0.846828 0.215796 0.683507
v -0.888985 0.602289 0.639579
v -0.888985 0.602289 0.682297
v -0.888985 0.641498 0.639579
v -0.888985 0.641498 0.682297
v -0.846828 0.602289 0.682297
v -0.846828 0.602289 0.639579
v -0.846828 0.641498 0.682297
v -0.846828 0.641498 0.639579
v 0.888985 -0.004358 0.638369
v 0.888985 -0.004358 0.683507
v 0.846829 -0.004358 0.638369
v 0.846829 -0.004358 0.683507
v -0.888985 -0.004358 0.638369
v -0.888985 -0.004358 0.683507
v -0.846828 -0.004358 0.638369
v -0.846828 -0.004358 0.683507
v 0.888985 0.602289 0.254659
v 0.888985 0.641498 0.254659
v 0.846829 0.602289 0.254659
v 0.846829 0.641498 0.254659
v -0.888985 0.602289 0.254659
v -0.888985 0.641498 0.254659
v -0.846828 0.602289 0.254659
v -0.846828 0.641498 0.254659
v 0.888985 0.215796 0.579069
v 0.888985 0.264205 0.579069
v 0.846829 0.264205 0.579069
v 0.846829 0.215796 0.579069
v -0.888985 0.215796 0.579069
v -0.888985 0.264205 0.579069
v -0.846828 0.264205 0.579069
v -0.846828 0.215796 0.579069
vt 0.357429 0.871080
vt 0.365823 0.871080
vt 0.371758 0.877015
vt 0.371758 0.885408
vt 0.365823 0.891343
vt 0.357429 0.891343
vt 0.351494 0.885408
vt 0.351494 0.877015
vt 0.644559 0.330364
vt 0.653118 0.331655
vt 0.648639 0.360957
vt 0.642704 0.360061
vt 0.623896 0.331655
vt 0.632455 0.330364
vt 0.634310 0.360061
vt 0.628375 0.360957
vt 0.763040 0.330364
vt 0.771599 0.331655
vt 0.767120 0.360957
vt 0.761185 0.360061
vt 0.404405 0.871080
vt 0.416509 0.871080
vt 0.414654 0.900777
vt 0.406260 0.900777
vt 0.426780 0.871080
vt 0.438885 0.871080
vt 0.437029 0.900777
vt 0.428636 0.900777
vt 0.750936 0.330364
vt 0.752791 0.360061
vt 0.742377 0.331655
vt 0.746856 0.360957
vt 0.361457 0.361457
vt 0.005136 0.361457
vt 0.005136 0.005136
vt 0.361457 0.005136
vt 0.845791 0.808149
vt 0.845791 0.835462
vt 0.834883 0.835462
vt 0.834883 0.808149
vt 0.249831 0.371728
vt 0.290194 0.371728
vt 0.290194 0.656071
vt 0.249831 0.656071
vt 0.490652 0.371728
vt 0.531016 0.371728
vt 0.531016 0.656071
vt 0.490652 0.656071
vt 0.239559 0.728049
vt 0.199839 0.728049
vt 0.199839 0.371728
vt 0.239559 0.371728
vt 0.827804 0.361457
vt 0.787542 0.361457
vt 0.787542 0.183296
vt 0.787542 0.005136
vt 0.827804 0.005136
vt 0.898420 0.950364
vt 0.898420 0.808149
vt 0.909328 0.808149
vt 0.909328 0.950364
vt 0.978812 0.341123
vt 0.978812 0.005136
vt 0.994864 0.020423
vt 0.994864 0.325836
vt 0.143149 0.738320
vt 0.143149 0.979372
vt 0.130473 0.979372
vt 0.130473 0.738320
vt 0.570789 0.975877
vt 0.570789 0.844247
vt 0.580226 0.844247
vt 0.580226 0.975877
vt 0.777270 0.005136
vt 0.777270 0.320093
vt 0.768729 0.313015
vt 0.768729 0.012214
vt 0.371728 0.183296
vt 0.555782 0.183296
vt 0.547572 0.195102
vt 0.379938 0.195102
vt 0.555782 0.361457
vt 0.547572 0.326732
vt 0.371728 0.361457
vt 0.379938 0.326732
vt 0.371728 0.005136
vt 0.555782 0.005136
vt 0.547572 0.039861
vt 0.379938 0.039861
vt 0.547572 0.171490
vt 0.379938 0.171490
vt 0.692982 0.833976
vt 0.692982 0.666342
vt 0.824612 0.666342
vt 0.824612 0.833976
vt 0.551081 0.833976
vt 0.551081 0.666342
vt 0.682711 0.666342
vt 0.682711 0.833976
vt 0.189044 0.738320
vt 0.189044 0.979372
vt 0.176368 0.979372
vt 0.176368 0.738320
vt 0.940165 0.939778
vt 0.940165 0.808148
vt 0.950460 0.808148
vt 0.950460 0.939778
vt 0.166097 0.738320
vt 0.166097 0.979372
vt 0.153421 0.979372
vt 0.153421 0.738320
vt 0.919600 0.939778
vt 0.919600 0.808149
vt 0.929894 0.808149
vt 0.929894 0.939778
vt 0.551081 0.975877
vt 0.551081 0.844247
vt 0.560518 0.844247
vt 0.560518 0.975877
vt 0.211991 0.738320
vt 0.211991 0.979372
vt 0.199315 0.979372
vt 0.199315 0.738320
vt 0.025800 0.707367
vt 0.179175 0.707367
vt 0.005136 0.728049
vt 0.179175 0.392410
vt 0.025800 0.392410
vt 0.005136 0.371728
vt 0.630809 0.313015
vt 0.630809 0.012214
vt 0.623896 0.320093
vt 0.623896 0.005136
vt 0.543217 0.402819
vt 0.543217 0.597284
vt 0.302395 0.430515
vt 0.302395 0.624981
vt 0.683571 0.461456
vt 0.683571 0.434143
vt 0.721203 0.414175
vt 0.721203 0.472017
vt 0.442749 0.593656
vt 0.442749 0.566343
vt 0.480381 0.555782
vt 0.480381 0.613625
vt 0.400456 0.860808
vt 0.400456 0.666342
vt 0.540810 0.802170
vt 0.540810 0.829484
vt 0.249831 0.666342
vt 0.390185 0.697667
vt 0.390185 0.724980
vt 0.249831 0.860808
vt 0.989719 0.697654
vt 0.989719 0.892120
vt 0.978812 0.892120
vt 0.978812 0.697654
vt 0.888149 0.808149
vt 0.888149 0.950364
vt 0.877241 0.950364
vt 0.877241 0.808149
vt 0.866970 0.808149
vt 0.866970 0.943976
vt 0.856062 0.943976
vt 0.856062 0.808149
vt 0.866970 0.971290
vt 0.856062 0.971290
vt 0.233171 0.738320
vt 0.233171 0.932786
vt 0.222263 0.932786
vt 0.222263 0.738320
vt 0.845791 0.971290
vt 0.834883 0.971290
vt 0.603458 0.015302
vt 0.565948 0.015302
vt 0.613625 0.005136
vt 0.978812 0.687383
vt 0.978812 0.351395
vt 0.994618 0.366682
vt 0.994618 0.672095
vt 0.565948 0.351290
vt 0.603458 0.351290
vt 0.613625 0.361457
vt 0.838076 0.005136
vt 0.872172 0.005136
vt 0.872172 0.310549
vt 0.838076 0.310549
vt 0.838076 0.358330
vt 0.838076 0.320820
vt 0.854018 0.322185
vt 0.854018 0.356282
vt 0.732753 0.881757
vt 0.732753 0.844247
vt 0.748696 0.846295
vt 0.748696 0.880391
vt 0.904375 0.361457
vt 0.882443 0.361457
vt 0.882443 0.005136
vt 0.904375 0.005136
vt 0.936282 0.361457
vt 0.914646 0.361457
vt 0.914646 0.005136
vt 0.936282 0.005136
vt 0.945723 0.656071
vt 0.923736 0.656071
vt 0.923736 0.371728
vt 0.945723 0.371728
vt 0.968540 0.289479
vt 0.946554 0.289479
vt 0.946554 0.005136
vt 0.968540 0.005136
vt 0.963623 0.605210
vt 0.955994 0.605210
vt 0.955994 0.371728
vt 0.963623 0.371728
vt 0.758967 0.902775
vt 0.758967 0.844247
vt 0.766596 0.844247
vt 0.766596 0.902775
vt 0.784495 0.844247
vt 0.784495 0.902775
vt 0.776867 0.902775
vt 0.776867 0.844247
vt 0.788127 0.634594
vt 0.731474 0.619902
vt 0.731474 0.386420
vt 0.788127 0.371728
vt 0.326894 0.871080
vt 0.335287 0.871080
vt 0.341223 0.877015
vt 0.341223 0.885408
vt 0.335287 0.891343
vt 0.326894 0.891343
vt 0.320959 0.885408
vt 0.320959 0.877015
vt 0.671949 0.330364
vt 0.684053 0.330364
vt 0.682197 0.360061
vt 0.673804 0.360061
vt 0.382029 0.871080
vt 0.394133 0.871080
vt 0.392278 0.900777
vt 0.383884 0.900777
vt 0.711442 0.330364
vt 0.723546 0.330364
vt 0.721691 0.360061
vt 0.713298 0.360061
vt 0.692612 0.331655
vt 0.688133 0.360957
vt 0.663390 0.331655
vt 0.667869 0.360957
vt 0.732105 0.331655
vt 0.727626 0.360957
vt 0.702883 0.331655
vt 0.707362 0.360957
vt 0.449156 0.871080
vt 0.461260 0.871080
vt 0.459405 0.900777
vt 0.451011 0.900777
vt 0.820059 0.844247
vt 0.820059 0.868119
vt 0.812549 0.868119
vt 0.812549 0.844247
vt 0.960221 0.721689
vt 0.960221 0.697817
vt 0.967731 0.697817
vt 0.967731 0.721689
vt 0.798399 0.545009
vt 0.826807 0.513534
vt 0.826807 0.520519
vt 0.805384 0.545009
vt 0.874106 0.673328
vt 0.835295 0.673328
vt 0.835295 0.666342
vt 0.874106 0.666342
vt 0.960221 0.666342
vt 0.967731 0.666342
vt 0.820059 0.892608
vt 0.812549 0.892608
vt 0.942964 0.697817
vt 0.921541 0.673328
vt 0.921541 0.666342
vt 0.949949 0.697817
vt 0.005136 0.918937
vt 0.005136 0.880126
vt 0.012646 0.880126
vt 0.012646 0.918937
vt 0.874242 0.513534
vt 0.913053 0.513534
vt 0.913053 0.520519
vt 0.874242 0.520519
vt 0.608279 0.883058
vt 0.608279 0.844247
vt 0.615790 0.844247
vt 0.615790 0.883058
vt 0.798399 0.568880
vt 0.805384 0.568880
vt 0.292906 0.871080
vt 0.292906 0.919225
vt 0.285395 0.919225
vt 0.285395 0.871080
vt 0.608279 0.930493
vt 0.608279 0.891683
vt 0.615790 0.891683
vt 0.615790 0.930493
vt 0.865617 0.513534
vt 0.865617 0.520519
vt 0.040700 0.918937
vt 0.040700 0.880126
vt 0.048210 0.880126
vt 0.048210 0.918937
vt 0.865617 0.568665
vt 0.874242 0.568665
vt 0.882730 0.673328
vt 0.882730 0.666342
vt 0.882730 0.721473
vt 0.874106 0.721473
vt 0.257341 0.919225
vt 0.249831 0.919225
vt 0.249831 0.871080
vt 0.257341 0.871080
vt 0.871800 0.360043
vt 0.864289 0.360043
vt 0.864289 0.320820
vt 0.871800 0.320820
vt 0.882730 0.729515
vt 0.874106 0.729515
vt 0.865617 0.576707
vt 0.874242 0.576707
vt 0.798399 0.576491
vt 0.805384 0.576491
vt 0.960221 0.729299
vt 0.967731 0.729299
vt 0.949949 0.721689
vt 0.942964 0.721689
vt 0.949949 0.729299
vt 0.942964 0.729299
vt 0.697189 0.844247
vt 0.704700 0.844247
vt 0.704700 0.904481
vt 0.697189 0.904481
vt 0.802277 0.892608
vt 0.794767 0.892608
vt 0.794767 0.868737
vt 0.802277 0.868737
vt 0.960731 0.884337
vt 0.968242 0.884337
vt 0.968242 0.908208
vt 0.960731 0.908208
vt 0.798399 0.471788
vt 0.805384 0.471788
vt 0.826807 0.496277
vt 0.826807 0.503263
vt 0.080979 0.745306
vt 0.080979 0.738320
vt 0.119790 0.738320
vt 0.119790 0.745306
vt 0.968242 0.939683
vt 0.960731 0.939683
vt 0.794767 0.844247
vt 0.802277 0.844247
vt 0.012121 0.769795
vt 0.005136 0.769795
vt 0.033544 0.738320
vt 0.033544 0.745306
vt 0.540810 0.909890
vt 0.533300 0.909890
vt 0.533300 0.871080
vt 0.540810 0.871080
vt 0.874242 0.503263
vt 0.874242 0.496277
vt 0.913053 0.496277
vt 0.913053 0.503263
vt 0.598008 0.883058
vt 0.590497 0.883058
vt 0.590497 0.844247
vt 0.598008 0.844247
vt 0.798399 0.447916
vt 0.805384 0.447916
vt 0.303177 0.871080
vt 0.310687 0.871080
vt 0.310687 0.919225
vt 0.303177 0.919225
vt 0.598008 0.930493
vt 0.590497 0.930493
vt 0.590497 0.891683
vt 0.598008 0.891683
vt 0.865617 0.496277
vt 0.865617 0.503263
vt 0.030428 0.918937
vt 0.022918 0.918937
vt 0.022918 0.880126
vt 0.030428 0.880126
vt 0.865617 0.448132
vt 0.874242 0.448132
vt 0.072354 0.738320
vt 0.072354 0.745306
vt 0.072354 0.793451
vt 0.080979 0.793451
vt 0.267613 0.919225
vt 0.267613 0.871080
vt 0.275123 0.871080
vt 0.275123 0.919225
vt 0.874242 0.440090
vt 0.913465 0.440090
vt 0.913465 0.448132
vt 0.072354 0.801493
vt 0.080979 0.801493
vt 0.865617 0.440090
vt 0.679407 0.844247
vt 0.686918 0.844247
vt 0.686918 0.904481
vt 0.679407 0.904481
vt 0.798399 0.440306
vt 0.805384 0.440306
vt 0.960731 0.876726
vt 0.968242 0.876726
vt 0.012121 0.793667
vt 0.005136 0.793667
vt 0.012121 0.801277
vt 0.005136 0.801277
vt 0.722482 0.844247
vt 0.722482 0.904481
vt 0.714971 0.904481
vt 0.714971 0.844247
vt 0.913465 0.568665
vt 0.913465 0.576707
vt 0.479042 0.910302
vt 0.471532 0.910302
vt 0.471532 0.871080
vt 0.479042 0.871080
vt 0.120202 0.793451
vt 0.120202 0.801493
vt 0.496824 0.910302
vt 0.489314 0.910302
vt 0.489314 0.871080
vt 0.496824 0.871080
vt 0.834883 0.729515
vt 0.834883 0.721473
vt 0.514606 0.910302
vt 0.507096 0.910302
vt 0.507096 0.871080
vt 0.514606 0.871080
vt 0.661625 0.904481
vt 0.661625 0.844247
vt 0.669136 0.844247
vt 0.669136 0.904481
vt 0.633572 0.912825
vt 0.626061 0.912825
vt 0.626061 0.844247
vt 0.633572 0.844247
vt 0.805384 0.645069
vt 0.798399 0.645069
vt 0.960731 0.808149
vt 0.968242 0.808149
vt 0.949949 0.797877
vt 0.942964 0.797877
vt 0.798399 0.371728
vt 0.805384 0.371728
vt 0.643843 0.844247
vt 0.651354 0.844247
vt 0.651354 0.912825
vt 0.643843 0.912825
vt 0.012121 0.869855
vt 0.005136 0.869855
vt 0.967731 0.797877
vt 0.960221 0.797877
vt 0.080979 0.812058
vt 0.072354 0.812058
vt 0.874242 0.587272
vt 0.865617 0.587272
vt 0.058482 0.880126
vt 0.065992 0.880126
vt 0.065992 0.890691
vt 0.058482 0.890691
vt 0.738985 0.655431
vt 0.731474 0.655431
vt 0.731474 0.644866
vt 0.738985 0.644866
vt 0.882730 0.740080
vt 0.874106 0.740080
vt 0.749256 0.644866
vt 0.756767 0.644866
vt 0.756767 0.655431
vt 0.749256 0.655431
vt 0.774549 0.655431
vt 0.767038 0.655431
vt 0.767038 0.644866
vt 0.774549 0.644866
vt 0.865617 0.429525
vt 0.874242 0.429525
vn 0.0000 1.0000 0.0000
vn 0.9886 0.1508 0.0000
vn 0.0000 0.1508 0.9886
vn -0.9886 0.1508 0.0000
vn 0.6990 0.1508 -0.6990
vn 0.6990 0.1508 0.6990
vn -0.6990 0.1508 0.6990
vn -0.6990 0.1508 -0.6990
vn 0.0000 0.1508 -0.9886
vn -1.0000 0.0000 0.0000
vn 1.0000 0.0000 0.0000
vn 0.0000 0.0000 1.0000
vn 0.0000 0.0000 -1.0000
vn 0.0000 0.2178 -0.9760
vn 0.0000 -0.1274 0.9918
vn 0.0000 0.7186 -0.6954
vn 0.0000 0.2502 0.9682
vn 0.0000 -0.6954 -0.7186
vn 0.0000 -0.7186 0.6954
vn -0.0000 -0.2178 0.9760
vn -0.5174 -0.1864 0.8352
vn 0.0000 -0.6907 0.7232
vn 0.5174 -0.1864 0.8352
vn 0.0000 -1.0000 0.0000
vn -0.0000 0.6954 0.7186
vn 0.0000 -0.0853 -0.9964
vn -0.7218 -0.6921 0.0000
vn 0.7218 -0.6921 0.0000
vn 0.9680 0.0000 0.2510
vn -0.9680 0.0000 0.2510
vn 0.0000 0.7423 0.6700
vn 0.0000 -0.7527 -0.6584
vn 0.0000 0.0036 1.0000
vn 0.0000 0.0036 -1.0000
usemtl Texture
s off
f 9/1/1 11/2/1 12/3/1 13/4/1 14/5/1 15/6/1 16/7/1 10/8/1
f 6/9/2 7/10/2 15/11/2 14/12/2
f 4/13/3 5/14/3 13/15/3 12/16/3
f 2/17/4 3/18/4 11/19/4 9/20/4
f 7/21/5 8/22/5 16/23/5 15/24/5
f 5/14/6 6/9/6 14/12/6 13/15/6
f 3/25/7 4/26/7 12/27/7 11/28/7
f 1/29/8 2/17/8 9/20/8 10/30/8
f 8/31/9 1/29/9 10/30/9 16/32/9
f 17/33/1 18/34/1 20/35/1 19/36/1
f 52/37/1 30/38/1 71/39/1 70/40/1
f 84/41/10 60/42/10 61/43/10 83/44/10
f 86/45/11 58/46/11 59/47/11 85/48/11
f 83/49/12 61/50/12 58/51/12 86/52/12
f 85/53/13 59/54/13 33/55/13 60/56/13 84/57/13
f 51/58/14 50/59/14 69/60/14 73/61/14
f 62/62/15 65/63/15 82/64/15 79/65/15
f 40/66/11 41/67/11 48/68/11 49/69/11
f 35/70/16 36/71/16 45/72/16 42/73/16
f 25/74/17 28/75/17 54/76/17 57/77/17
f 33/78/18 76/79/18 35/80/18 34/81/18
f 76/79/18 77/82/18 36/83/18 35/80/18
f 77/82/18 60/84/18 37/85/18 36/83/18
f 60/84/18 33/78/18 34/81/18 37/85/18
f 59/86/18 75/87/18 39/88/18 38/89/18
f 75/87/18 76/79/18 40/90/18 39/88/18
f 76/79/18 33/78/18 41/91/18 40/90/18
f 33/78/18 59/86/18 38/89/18 41/91/18
f 43/92/18 42/93/18 45/94/18 44/95/18
f 46/96/18 47/97/18 49/98/18 48/99/18
f 34/100/10 35/101/10 42/102/10 43/103/10
f 41/104/19 38/105/19 46/106/19 48/107/19
f 36/108/11 37/109/11 44/110/11 45/111/11
f 37/112/19 34/113/19 43/114/19 44/115/19
f 39/116/16 40/117/16 49/118/16 47/119/16
f 38/120/10 39/121/10 47/122/10 46/123/10
f 32/124/20 28/125/20 61/50/20 78/126/20
f 25/127/20 29/128/20 74/129/20 58/51/20
f 28/125/20 25/127/20 58/51/20 61/50/20
f 29/128/20 32/124/20 78/126/20 74/129/20
f 54/76/20 55/130/20 56/131/20 57/77/20
f 28/75/21 32/132/21 55/130/21 54/76/21
f 32/132/22 29/133/22 56/131/22 55/130/22
f 29/133/23 25/74/23 57/77/23 56/131/23
f 53/134/11 26/135/11 59/47/11 58/46/11
f 27/136/10 50/137/10 61/43/10 60/42/10
f 30/138/11 52/139/11 74/140/11 75/141/11
f 51/142/10 31/143/10 77/144/10 78/145/10
f 50/137/10 51/142/10 78/145/10 61/43/10
f 31/143/10 27/136/10 60/42/10 77/144/10
f 26/135/11 30/138/11 75/141/11 59/47/11
f 52/139/11 53/134/11 58/46/11 74/140/11
f 69/146/10 68/147/10 72/148/10 73/149/10
f 66/150/11 70/151/11 71/152/11 67/153/11
f 26/154/24 53/155/24 66/156/24 67/157/24
f 53/158/14 52/159/14 70/160/14 66/161/14
f 27/162/25 31/163/25 72/164/25 68/165/25
f 31/163/1 51/166/1 73/167/1 72/164/1
f 50/168/24 27/169/24 68/170/24 69/171/24
f 30/38/25 26/172/25 67/173/25 71/39/25
f 62/174/24 63/175/24 75/87/24 74/176/24
f 64/177/26 63/178/26 80/179/26 81/180/26
f 64/181/24 65/182/24 78/183/24 77/82/24
f 65/182/24 62/174/24 74/176/24 78/183/24
f 80/184/24 79/185/24 82/186/24 81/187/24
f 65/188/27 64/189/27 81/190/27 82/191/27
f 63/192/28 62/193/28 79/194/28 80/195/28
f 63/175/24 64/181/24 77/82/24 76/79/24 75/87/24
f 21/196/13 85/197/13 84/198/13 22/199/13
f 24/200/12 83/201/12 86/202/12 23/203/12
f 23/204/11 86/205/11 85/206/11 21/207/11
f 22/208/10 84/209/10 83/210/10 24/211/10
f 92/212/12 94/213/12 93/214/12 91/215/12
f 90/216/29 94/217/29 92/218/29 88/219/29
f 87/220/30 91/221/30 93/222/30 89/223/30
f 89/224/1 93/225/1 94/226/1 90/227/1
f 103/228/1 105/229/1 106/230/1 107/231/1 108/232/1 109/233/1 110/234/1 104/235/1
f 100/236/2 101/237/2 109/238/2 108/239/2
f 98/240/3 99/241/3 107/242/3 106/243/3
f 96/244/4 97/245/4 105/246/4 103/247/4
f 101/237/5 102/248/5 110/249/5 109/238/5
f 99/250/6 100/236/6 108/239/6 107/251/6
f 97/245/7 98/252/7 106/253/7 105/246/7
f 95/254/8 96/244/8 103/247/8 104/255/8
f 102/256/9 95/257/9 104/258/9 110/259/9
f 140/260/24 111/261/24 112/262/24 143/263/24
f 145/264/1 114/265/1 113/266/1 142/267/1
f 113/268/11 117/269/11 115/270/11 111/271/11
f 125/272/10 120/273/10 122/274/10 124/275/10
f 114/265/31 118/276/31 117/277/31 113/266/31
f 111/261/32 115/278/32 116/279/32 112/262/32
f 112/280/10 116/281/10 118/282/10 114/283/10
f 127/284/13 119/285/13 120/286/13 125/287/13
f 129/288/11 121/289/11 119/290/11 127/291/11
f 124/292/12 122/293/12 121/294/12 129/295/12
f 142/296/11 113/268/11 111/271/11 140/297/11
f 136/298/1 126/299/1 128/300/1 134/301/1
f 118/302/12 123/303/12 130/304/12 117/305/12
f 123/303/12 124/292/12 129/295/12 130/304/12
f 117/269/11 130/306/11 128/307/11 115/270/11
f 130/306/11 129/288/11 127/291/11 128/307/11
f 115/308/13 128/309/13 126/310/13 116/311/13
f 134/312/11 128/307/11 127/291/11 132/313/11
f 116/281/10 126/314/10 123/315/10 118/282/10
f 126/314/10 125/272/10 124/275/10 123/315/10
f 136/316/10 138/317/10 125/272/10 126/314/10
f 138/318/24 132/319/24 127/320/24 125/321/24
f 137/322/13 131/323/13 183/324/13 185/325/13
f 135/326/10 137/327/10 138/317/10 136/316/10
f 133/328/11 134/312/11 132/313/11 131/329/11
f 141/330/11 142/296/11 140/297/11 139/331/11
f 146/332/1 145/264/1 142/267/1 141/333/1
f 112/280/10 114/283/10 145/334/10 143/335/10
f 143/335/10 145/334/10 146/336/10 144/337/10
f 134/312/11 133/328/11 139/331/11 140/297/11
f 135/326/10 136/316/10 143/335/10 144/337/10
f 136/338/33 134/339/33 140/340/33 143/341/33
f 176/342/24 179/343/24 148/344/24 147/345/24
f 181/346/1 178/347/1 149/348/1 150/349/1
f 149/350/10 147/351/10 151/352/10 153/353/10
f 161/354/11 160/355/11 158/356/11 156/357/11
f 150/349/31 149/348/31 153/358/31 154/359/31
f 147/345/32 148/344/32 152/360/32 151/361/32
f 148/362/11 150/363/11 154/364/11 152/365/11
f 163/366/13 161/367/13 156/368/13 155/369/13
f 165/370/10 163/371/10 155/372/10 157/373/10
f 160/374/12 165/375/12 157/376/12 158/377/12
f 178/378/10 176/379/10 147/351/10 149/350/10
f 172/380/1 170/381/1 164/382/1 162/383/1
f 154/384/12 153/385/12 166/386/12 159/387/12
f 159/387/12 166/386/12 165/375/12 160/374/12
f 153/353/10 151/352/10 164/388/10 166/389/10
f 166/389/10 164/388/10 163/371/10 165/370/10
f 151/390/13 152/391/13 162/392/13 164/393/13
f 170/394/10 168/395/10 163/371/10 164/388/10
f 152/365/11 154/364/11 159/396/11 162/397/11
f 162/397/11 159/396/11 160/355/11 161/354/11
f 172/398/11 162/397/11 161/354/11 174/399/11
f 174/400/24 161/401/24 163/402/24 168/403/24
f 168/395/10 167/404/10 187/405/10 188/406/10
f 171/407/11 172/398/11 174/399/11 173/408/11
f 169/409/10 167/404/10 168/395/10 170/394/10
f 171/410/34 169/411/34 175/412/34 180/413/34
f 177/414/10 175/415/10 176/379/10 178/378/10
f 182/416/1 177/417/1 178/347/1 181/346/1
f 148/362/11 179/418/11 181/419/11 150/363/11
f 179/418/11 180/420/11 182/421/11 181/419/11
f 170/394/10 176/379/10 175/415/10 169/409/10
f 171/407/11 180/420/11 179/418/11 172/398/11
f 172/422/33 179/423/33 176/424/33 170/425/33
f 131/329/11 132/313/11 184/426/11 183/427/11
f 174/428/12 168/429/12 188/430/12 190/431/12
f 173/408/11 174/399/11 190/432/11 189/433/11
f 132/434/12 138/435/12 186/436/12 184/437/12
f 138/317/10 137/327/10 185/438/10 186/439/10
f 167/440/13 173/441/13 189/442/13 187/443/13
f 139/444/34 133/445/34 135/446/34 144/447/34
f 180/448/24 175/449/24 195/450/24 197/451/24
f 141/330/11 139/331/11 191/452/11 192/453/11
f 177/417/1 182/416/1 198/454/1 196/455/1
f 144/337/10 146/336/10 194/456/10 193/457/10
f 175/415/10 177/414/10 196/458/10 195/459/10
f 139/460/24 144/461/24 193/462/24 191/463/24
f 182/421/11 180/420/11 197/464/11 198/465/11
f 146/332/1 141/333/1 192/466/1 194/467/1
f 171/407/11 173/408/11 206/468/11 205/469/11
f 133/328/11 131/329/11 199/470/11 200/471/11
f 173/472/24 167/473/24 203/474/24 206/475/24
f 135/476/1 133/477/1 200/478/1 201/479/1
f 137/327/10 135/326/10 201/480/10 202/481/10
f 131/482/24 137/483/24 202/484/24 199/485/24
f 169/486/1 171/487/1 205/488/1 204/489/1
f 167/404/10 169/409/10 204/490/10 203/491/10
