# Blender v2.92.0 OBJ File: 'lab_path_straight_export.blend'
# www.blender.org
mtllib lab_path_straight.mtl
o Plane
v 1.000000 0.000000 1.000000
v 1.000000 0.000000 -1.000000
v 0.800000 0.000000 -1.000000
v 0.800000 0.000000 1.000000
v 0.839877 0.030422 -1.000000
v 0.960123 0.030422 -1.000000
v 0.960123 0.030422 1.000000
v 0.839877 0.030422 1.000000
v 1.000000 0.000000 -0.600000
v 1.000000 0.000000 -0.200000
v 1.000000 0.000000 0.200000
v 1.000000 0.000000 0.600000
v 0.800000 0.000000 -0.600000
v 0.800000 0.000000 -0.200000
v 0.800000 0.000000 0.200000
v 0.800000 0.000000 0.600000
v 0.960123 0.030422 -0.600000
v 0.960123 0.030422 -0.200000
v 0.960123 0.030422 0.200000
v 0.960123 0.030422 0.600000
v 0.839877 0.030422 -0.600000
v 0.839877 0.030422 -0.200000
v 0.839877 0.030422 0.200000
v 0.839877 0.030422 0.600000
v 1.000000 0.000000 0.300000
v 1.000000 0.000000 0.500000
v 0.850000 0.000000 0.300000
v 0.850000 0.000000 0.500000
v 0.960123 0.030422 0.300000
v 0.960123 0.030422 0.500000
v 0.889877 0.030422 0.300000
v 0.889877 0.030422 0.500000
v 1.000000 0.000000 -0.500000
v 1.000000 0.000000 -0.300000
v 0.850000 0.000000 -0.500000
v 0.850000 0.000000 -0.300000
v 0.960123 0.030422 -0.500000
v 0.960123 0.030422 -0.300000
v 0.889877 0.030422 -0.500000
v 0.889877 0.030422 -0.300000
v 0.300667 0.000000 -1.000000
v 0.519333 0.000000 -1.000000
v 0.519333 0.000000 1.000000
v 0.300667 0.000000 1.000000
v 0.519333 0.000000 0.700000
v 0.300667 0.000000 0.700000
v 0.574000 0.000000 0.100000
v 0.246000 0.000000 0.100000
v 0.574000 0.000000 -0.100000
v 0.246000 0.000000 -0.100000
v 0.519333 0.000000 -0.700000
v 0.300667 0.000000 -0.700000
v 0.574000 0.000000 0.500000
v 0.246000 0.000000 0.500000
v 0.574000 0.000000 0.300000
v 0.246000 0.000000 0.300000
v 0.574000 0.000000 -0.300000
v 0.246000 0.000000 -0.300000
v 0.574000 0.000000 -0.500000
v 0.246000 0.000000 -0.500000
v 0.508400 0.010000 0.630000
v 0.311600 0.010000 0.630000
v 0.508400 0.010000 -0.630000
v 0.311600 0.010000 -0.630000
v 0.557600 0.010000 -0.450000
v 0.557600 0.010000 -0.270000
v 0.262400 0.010000 -0.450000
v 0.262400 0.010000 -0.270000
v 0.557600 0.010000 -0.090000
v 0.262400 0.010000 -0.090000
v 0.557600 0.010000 0.270000
v 0.557600 0.010000 0.450000
v 0.262400 0.010000 0.270000
v 0.262400 0.010000 0.450000
v 0.557600 0.010000 0.090000
v 0.262400 0.010000 0.090000
v -1.000000 0.000000 1.000000
v -1.000000 0.000000 -1.000000
v -0.800000 0.000000 -1.000000
v -0.800000 0.000000 1.000000
v -0.839877 0.030422 -1.000000
v -0.960123 0.030422 -1.000000
v -0.960123 0.030422 1.000000
v -0.839877 0.030422 1.000000
v -1.000000 0.000000 -0.600000
v -1.000000 0.000000 -0.200000
v -1.000000 0.000000 0.200000
v -1.000000 0.000000 0.600000
v -0.800000 0.000000 -0.600000
v -0.800000 0.000000 -0.200000
v -0.800000 0.000000 0.200000
v -0.800000 0.000000 0.600000
v -0.960123 0.030422 -0.600000
v -0.960123 0.030422 -0.200000
v -0.960123 0.030422 0.200000
v -0.960123 0.030422 0.600000
v -0.839877 0.030422 -0.600000
v -0.839877 0.030422 -0.200000
v -0.839877 0.030422 0.200000
v -0.839877 0.030422 0.600000
v -1.000000 0.000000 0.300000
v -1.000000 0.000000 0.500000
v -0.850000 0.000000 0.300000
v -0.850000 0.000000 0.500000
v -0.960123 0.030422 0.300000
v -0.960123 0.030422 0.500000
v -0.889877 0.030422 0.300000
v -0.889877 0.030422 0.500000
v -1.000000 0.000000 -0.500000
v -1.000000 0.000000 -0.300000
v -0.850000 0.000000 -0.500000
v -0.850000 0.000000 -0.300000
v -0.960123 0.030422 -0.500000
v -0.960123 0.030422 -0.300000
v -0.889877 0.030422 -0.500000
v -0.889877 0.030422 -0.300000
v -0.300667 0.000000 -1.000000
v -0.519333 0.000000 -1.000000
v -0.519333 0.000000 1.000000
v -0.300667 0.000000 1.000000
v -0.519333 0.000000 0.700000
v -0.300667 0.000000 0.700000
v -0.574000 0.000000 0.100000
v -0.246000 0.000000 0.100000
v -0.574000 0.000000 -0.100000
v -0.246000 0.000000 -0.100000
v -0.519333 0.000000 -0.700000
v -0.300667 0.000000 -0.700000
v -0.574000 0.000000 0.500000
v -0.246000 0.000000 0.500000
v -0.574000 0.000000 0.300000
v -0.246000 0.000000 0.300000
v -0.574000 0.000000 -0.300000
v -0.246000 0.000000 -0.300000
v -0.574000 0.000000 -0.500000
v -0.246000 0.000000 -0.500000
v -0.508400 0.010000 0.630000
v -0.311600 0.010000 0.630000
v -0.508400 0.010000 -0.630000
v -0.311600 0.010000 -0.630000
v -0.557600 0.010000 -0.450000
v -0.557600 0.010000 -0.270000
v -0.262400 0.010000 -0.450000
v -0.262400 0.010000 -0.270000
v -0.557600 0.010000 -0.090000
v -0.262400 0.010000 -0.090000
v -0.557600 0.010000 0.270000
v -0.557600 0.010000 0.450000
v -0.262400 0.010000 0.270000
v -0.262400 0.010000 0.450000
v -0.557600 0.010000 0.090000
v -0.262400 0.010000 0.090000
v 0.850000 0.000000 0.340000
v 0.850000 0.000000 0.460000
v 0.889877 0.030422 0.340000
v 0.889877 0.030422 0.460000
v 0.850000 0.000000 -0.460000
v 0.850000 0.000000 -0.340000
v 0.889877 0.030422 -0.460000
v 0.889877 0.030422 -0.340000
v 0.832446 0.023917 0.339913
v 0.832446 0.023917 0.460087
v 0.857016 0.050723 0.339913
v 0.857016 0.050723 0.460087
v 0.832446 0.023917 -0.460087
v 0.832446 0.023917 -0.339913
v 0.857016 0.050723 -0.460087
v 0.857016 0.050723 -0.339913
v 0.824397 0.015135 0.328000
v 0.824397 0.015135 0.472000
v 0.865065 0.059505 0.328000
v 0.865065 0.059505 0.472000
v 0.824397 0.015135 -0.472000
v 0.824397 0.015135 -0.328000
v 0.865065 0.059505 -0.472000
v 0.865065 0.059505 -0.328000
v -0.850000 0.000000 0.340000
v -0.850000 0.000000 0.460000
v -0.889877 0.030422 0.340000
v -0.889877 0.030422 0.460000
v -0.850000 0.000000 -0.460000
v -0.850000 0.000000 -0.340000
v -0.889877 0.030422 -0.460000
v -0.889877 0.030422 -0.340000
v -0.832446 0.023917 0.339913
v -0.832446 0.023917 0.460087
v -0.857016 0.050723 0.339913
v -0.857016 0.050723 0.460087
v -0.832446 0.023917 -0.460087
v -0.832446 0.023917 -0.339913
v -0.857016 0.050723 -0.460087
v -0.857016 0.050723 -0.339913
v -0.824397 0.015135 0.328000
v -0.824397 0.015135 0.472000
v -0.865065 0.059505 0.328000
v -0.865065 0.059505 0.472000
v -0.824397 0.015135 -0.472000
v -0.824397 0.015135 -0.328000
v -0.865065 0.059505 -0.472000
v -0.865065 0.059505 -0.328000
vt 0.835450 0.311326
vt 0.895449 0.310711
vt 0.881319 0.319789
vt 0.850337 0.319290
vt 0.364486 0.250355
vt 0.364481 0.437699
vt 0.288229 0.437813
vt 0.288211 0.250244
vt 0.886047 0.850696
vt 0.885362 0.968983
vt 0.853815 0.969774
vt 0.845165 0.852911
vt 0.902384 0.850386
vt 0.900648 0.976413
vt 0.828619 0.435346
vt 0.844641 0.435419
vt 0.839929 0.979552
vt 0.827985 0.853416
vt 0.841469 0.746890
vt 0.826339 0.711593
vt 0.843376 0.711161
vt 0.859030 0.746372
vt 0.826378 0.575660
vt 0.843595 0.576065
vt 0.842252 0.470226
vt 0.859669 0.470091
vt 0.902384 0.436210
vt 0.885294 0.436356
vt 0.901268 0.540672
vt 0.901491 0.575111
vt 0.884283 0.575220
vt 0.883838 0.540694
vt 0.901641 0.711945
vt 0.884388 0.711850
vt 0.901865 0.816404
vt 0.884588 0.816680
vt 0.859263 0.540789
vt 0.859930 0.817303
vt 0.135423 0.228777
vt 0.135597 0.459156
vt 0.020485 0.459296
vt 0.020396 0.228561
vt 0.593075 0.249687
vt 0.593223 0.438403
vt 0.517029 0.437840
vt 0.517014 0.250209
vt 0.669564 0.228885
vt 0.669727 0.459290
vt 0.212162 0.438338
vt 0.212003 0.249677
vt 0.440756 0.437710
vt 0.440762 0.250342
vt 0.884448 0.470660
vt 0.901918 0.470923
vt 0.841588 0.540233
vt 0.883896 0.746559
vt 0.901383 0.746614
vt 0.842143 0.817173
vt 0.287790 0.670256
vt 0.211496 0.669837
vt 0.212056 0.564282
vt 0.288167 0.564963
vt 0.326052 0.651347
vt 0.364402 0.565202
vt 0.593671 0.670053
vt 0.517389 0.670425
vt 0.517022 0.565080
vt 0.593239 0.564407
vt 0.631767 0.650857
vt 0.669840 0.543365
vt 0.173489 0.650620
vt 0.135551 0.543231
vt 0.479097 0.651477
vt 0.440724 0.565268
vt 0.785076 0.650554
vt 0.784831 0.543073
vt 0.784688 0.459283
vt 0.020445 0.650463
vt 0.020530 0.543146
vt 0.642801 0.463985
vt 0.574056 0.445531
vt 0.574078 0.557310
vt 0.642765 0.538722
vt 0.505551 0.445130
vt 0.436937 0.445033
vt 0.436903 0.557941
vt 0.505529 0.557797
vt 0.368230 0.557882
vt 0.368298 0.445021
vt 0.299645 0.557696
vt 0.231225 0.557190
vt 0.231273 0.445462
vt 0.299704 0.445105
vt 0.162652 0.463859
vt 0.162493 0.538585
vt 0.914660 0.978936
vt 0.929547 0.970973
vt 0.960529 0.970473
vt 0.974658 0.979552
vt 0.965256 0.439566
vt 0.924375 0.437352
vt 0.933024 0.320489
vt 0.964572 0.321280
vt 0.981594 0.439877
vt 0.979858 0.313849
vt 0.907829 0.854917
vt 0.923851 0.854843
vt 0.919139 0.310711
vt 0.907194 0.436847
vt 0.920678 0.543373
vt 0.938239 0.543891
vt 0.922586 0.579102
vt 0.905549 0.578670
vt 0.922805 0.714198
vt 0.905588 0.714602
vt 0.921462 0.820037
vt 0.938878 0.820172
vt 0.964503 0.853907
vt 0.981594 0.854053
vt 0.980478 0.749591
vt 0.963048 0.749569
vt 0.963493 0.715043
vt 0.980701 0.715152
vt 0.963598 0.578413
vt 0.980851 0.578318
vt 0.981075 0.473859
vt 0.963798 0.473583
vt 0.938473 0.749474
vt 0.939140 0.472960
vt 0.963657 0.819603
vt 0.981128 0.819340
vt 0.920798 0.750030
vt 0.963106 0.543704
vt 0.980593 0.543649
vt 0.921353 0.473090
vt 0.287833 0.017695
vt 0.288156 0.123029
vt 0.211997 0.123673
vt 0.211492 0.018074
vt 0.326103 0.036636
vt 0.364421 0.122826
vt 0.593687 0.018122
vt 0.593197 0.123736
vt 0.517024 0.123024
vt 0.517445 0.017711
vt 0.631758 0.037327
vt 0.669763 0.144818
vt 0.135449 0.144690
vt 0.173457 0.037284
vt 0.479157 0.036627
vt 0.440747 0.122798
vt 0.785076 0.037659
vt 0.784811 0.145152
vt 0.784659 0.228998
vt 0.020454 0.144726
vt 0.020399 0.037403
vt 0.573941 0.242558
vt 0.642649 0.224165
vt 0.642687 0.149441
vt 0.574042 0.130819
vt 0.436943 0.243020
vt 0.505545 0.242923
vt 0.505532 0.130298
vt 0.436922 0.130123
vt 0.368303 0.243031
vt 0.368246 0.130149
vt 0.299637 0.130305
vt 0.299696 0.242949
vt 0.231149 0.242553
vt 0.231174 0.130779
vt 0.162487 0.224097
vt 0.162394 0.149354
vt 0.473440 0.889386
vt 0.559528 0.889386
vt 0.559528 0.915434
vt 0.473440 0.915434
vt 0.593348 0.889386
vt 0.679436 0.889386
vt 0.679436 0.915434
vt 0.593348 0.915434
vt 0.144640 0.900949
vt 0.025897 0.882782
vt 0.064096 0.839262
vt 0.095457 0.845912
vt 0.025872 0.690882
vt 0.071980 0.769192
vt 0.392872 0.900949
vt 0.274128 0.882782
vt 0.312328 0.839262
vt 0.343689 0.845912
vt 0.274104 0.690882
vt 0.320212 0.769192
vt 0.144640 0.740288
vt 0.104097 0.771381
vt 0.392872 0.740288
vt 0.352328 0.771380
vt 0.325992 0.776761
vt 0.320268 0.833654
vt 0.337871 0.836967
vt 0.344050 0.778120
vt 0.077760 0.776761
vt 0.072037 0.833654
vt 0.089639 0.836967
vt 0.095818 0.778121
vt 0.589462 0.975474
vt 0.563414 0.975474
vt 0.563413 0.889386
vt 0.589462 0.889386
vt 0.683322 0.915434
vt 0.683322 0.889386
vt 0.769410 0.889386
vt 0.769410 0.915434
vt 0.516987 0.690882
vt 0.467804 0.745919
vt 0.436443 0.752569
vt 0.398244 0.709049
vt 0.444327 0.822640
vt 0.398219 0.900949
vt 0.268756 0.690882
vt 0.219573 0.745919
vt 0.188212 0.752569
vt 0.150013 0.709049
vt 0.196096 0.822640
vt 0.149988 0.900949
vt 0.476444 0.820451
vt 0.516987 0.851544
vt 0.228212 0.820451
vt 0.268756 0.851544
vt 0.201876 0.815070
vt 0.196153 0.758177
vt 0.213755 0.754865
vt 0.219934 0.813711
vt 0.450107 0.815070
vt 0.444384 0.758177
vt 0.461986 0.754865
vt 0.468165 0.813711
vn 0.0000 0.0000 1.0000
vn 0.0000 1.0000 0.0000
vn 0.6065 0.7950 0.0000
vn -0.6065 0.7950 0.0000
vn 0.0000 0.0000 -1.0000
vn -0.5804 0.7608 -0.2902
vn -0.5804 0.7608 0.2902
vn -0.3144 0.9454 0.0859
vn 0.3144 0.9454 0.0859
vn 0.0000 0.9899 0.1414
vn -0.5206 0.8538 0.0000
vn 0.5206 0.8538 0.0000
vn 0.3144 0.9454 -0.0859
vn -0.3144 0.9454 -0.0859
vn 0.0000 0.9899 -0.1414
vn 0.5804 0.7608 -0.2902
vn 0.5804 0.7608 0.2902
vn -0.7372 0.6757 0.0000
vn 0.2304 -0.2481 -0.9410
vn -0.5089 -0.8608 0.0000
vn 0.2304 -0.2481 0.9410
vn 0.7608 0.6490 0.0000
vn 0.7372 0.6757 0.0000
vn -0.2304 -0.2481 -0.9410
vn 0.5089 -0.8608 0.0000
vn -0.2304 -0.2481 0.9410
vn -0.7608 0.6490 0.0000
usemtl Texture
s off
f 4/1/1 1/2/1 7/3/1 8/4/1
f 126/5/2 50/6/2 58/7/2 134/8/2
f 17/9/2 6/10/2 5/11/2 21/12/2
f 9/13/3 2/14/3 6/10/3 17/9/3
f 16/15/4 4/1/4 8/4/4 24/16/4
f 2/14/5 3/17/5 5/11/5 6/10/5
f 3/17/4 13/18/4 21/12/4 5/11/4
f 36/19/6 14/20/6 22/21/6 40/22/6
f 14/20/4 15/23/4 23/24/4 22/21/4
f 28/25/6 16/15/6 24/16/6 32/26/6
f 1/2/3 12/27/3 20/28/3 7/3/3
f 25/29/3 11/30/3 19/31/3 29/32/3
f 11/30/3 10/33/3 18/34/3 19/31/3
f 33/35/3 9/13/3 17/9/3 37/36/3
f 7/3/2 20/28/2 24/16/2 8/4/2
f 29/32/2 19/31/2 23/24/2 31/37/2
f 19/31/2 18/34/2 22/21/2 23/24/2
f 37/36/2 17/9/2 21/12/2 39/38/2
f 128/39/2 52/40/2 41/41/2 117/42/2
f 130/43/2 54/44/2 56/45/2 132/46/2
f 122/47/2 46/48/2 54/44/2 130/43/2
f 134/8/2 58/7/2 60/49/2 136/50/2
f 132/46/2 56/45/2 48/51/2 124/52/2
f 136/50/2 60/49/2 52/40/2 128/39/2
f 20/28/2 30/53/2 32/26/2 24/16/2
f 30/53/2 29/32/2 31/37/2 32/26/2
f 12/27/3 26/54/3 30/53/3 20/28/3
f 26/54/3 25/29/3 29/32/3 30/53/3
f 15/23/7 27/55/7 31/37/7 23/24/7
f 27/55/4 28/25/4 32/26/4 31/37/4
f 124/52/2 48/51/2 50/6/2 126/5/2
f 18/34/2 38/56/2 40/22/2 22/21/2
f 38/56/2 37/36/2 39/38/2 40/22/2
f 10/33/3 34/57/3 38/56/3 18/34/3
f 34/57/3 33/35/3 37/36/3 38/56/3
f 13/18/7 35/58/7 39/38/7 21/12/7
f 35/58/4 36/19/4 40/22/4 39/38/4
f 36/59/2 35/60/2 59/61/2 57/62/2
f 14/63/2 36/59/2 57/62/2 49/64/2
f 28/65/2 27/66/2 55/67/2 53/68/2
f 16/69/2 28/65/2 53/68/2 45/70/2
f 35/60/2 13/71/2 51/72/2 59/61/2
f 15/73/2 14/63/2 49/64/2 47/74/2
f 27/66/2 15/73/2 47/74/2 55/67/2
f 4/75/2 16/69/2 45/70/2 43/76/2
f 43/76/2 45/70/2 46/48/2 44/77/2
f 13/71/2 3/78/2 42/79/2 51/72/2
f 51/72/2 42/79/2 41/41/2 52/40/2
f 54/44/8 46/48/8 62/80/8 74/81/8
f 45/70/9 53/68/9 72/82/9 61/83/9
f 46/48/10 45/70/10 61/83/10 62/80/10
f 48/51/11 56/45/11 73/84/11 76/85/11
f 56/45/11 54/44/11 74/81/11 73/84/11
f 55/67/12 47/74/12 75/86/12 71/87/12
f 53/68/12 55/67/12 71/87/12 72/82/12
f 75/86/2 69/88/2 70/89/2 76/85/2
f 66/90/2 65/91/2 67/92/2 68/93/2
f 64/94/2 67/92/2 65/91/2 63/95/2
f 69/88/2 66/90/2 68/93/2 70/89/2
f 71/87/2 75/86/2 76/85/2 73/84/2
f 72/82/2 71/87/2 73/84/2 74/81/2
f 62/80/2 61/83/2 72/82/2 74/81/2
f 57/62/12 59/61/12 65/91/12 66/90/12
f 59/61/13 51/72/13 63/95/13 65/91/13
f 60/49/11 58/7/11 68/93/11 67/92/11
f 52/40/14 60/49/14 67/92/14 64/94/14
f 49/64/12 57/62/12 66/90/12 69/88/12
f 51/72/15 52/40/15 64/94/15 63/95/15
f 47/74/12 49/64/12 69/88/12 75/86/12
f 58/7/11 50/6/11 70/89/11 68/93/11
f 50/6/11 48/51/11 76/85/11 70/89/11
f 80/96/1 84/97/1 83/98/1 77/99/1
f 93/100/2 97/101/2 81/102/2 82/103/2
f 85/104/4 93/100/4 82/103/4 78/105/4
f 92/106/3 100/107/3 84/97/3 80/96/3
f 78/105/5 82/103/5 81/102/5 79/108/5
f 79/108/3 81/102/3 97/101/3 89/109/3
f 112/110/16 116/111/16 98/112/16 90/113/16
f 90/113/3 98/112/3 99/114/3 91/115/3
f 104/116/16 108/117/16 100/107/16 92/106/16
f 77/99/4 83/98/4 96/118/4 88/119/4
f 101/120/4 105/121/4 95/122/4 87/123/4
f 87/123/4 95/122/4 94/124/4 86/125/4
f 109/126/4 113/127/4 93/100/4 85/104/4
f 83/98/2 84/97/2 100/107/2 96/118/2
f 105/121/2 107/128/2 99/114/2 95/122/2
f 95/122/2 99/114/2 98/112/2 94/124/2
f 113/127/2 115/129/2 97/101/2 93/100/2
f 96/118/2 100/107/2 108/117/2 106/130/2
f 106/130/2 108/117/2 107/128/2 105/121/2
f 88/119/4 96/118/4 106/130/4 102/131/4
f 102/131/4 106/130/4 105/121/4 101/120/4
f 91/115/17 99/114/17 107/128/17 103/132/17
f 103/132/3 107/128/3 108/117/3 104/116/3
f 94/124/2 98/112/2 116/111/2 114/133/2
f 114/133/2 116/111/2 115/129/2 113/127/2
f 86/125/4 94/124/4 114/133/4 110/134/4
f 110/134/4 114/133/4 113/127/4 109/126/4
f 89/109/17 97/101/17 115/129/17 111/135/17
f 111/135/3 115/129/3 116/111/3 112/110/3
f 112/136/2 133/137/2 135/138/2 111/139/2
f 90/140/2 125/141/2 133/137/2 112/136/2
f 104/142/2 129/143/2 131/144/2 103/145/2
f 92/146/2 121/147/2 129/143/2 104/142/2
f 111/139/2 135/138/2 127/148/2 89/149/2
f 91/150/2 123/151/2 125/141/2 90/140/2
f 103/145/2 131/144/2 123/151/2 91/150/2
f 80/152/2 119/153/2 121/147/2 92/146/2
f 119/153/2 120/154/2 122/47/2 121/147/2
f 89/149/2 127/148/2 118/155/2 79/156/2
f 127/148/2 128/39/2 117/42/2 118/155/2
f 130/43/9 150/157/9 138/158/9 122/47/9
f 121/147/8 137/159/8 148/160/8 129/143/8
f 122/47/10 138/158/10 137/159/10 121/147/10
f 124/52/12 152/161/12 149/162/12 132/46/12
f 132/46/12 149/162/12 150/157/12 130/43/12
f 131/144/11 147/163/11 151/164/11 123/151/11
f 129/143/11 148/160/11 147/163/11 131/144/11
f 151/164/2 152/161/2 146/165/2 145/166/2
f 142/167/2 144/168/2 143/169/2 141/170/2
f 140/171/2 139/172/2 141/170/2 143/169/2
f 145/166/2 146/165/2 144/168/2 142/167/2
f 147/163/2 149/162/2 152/161/2 151/164/2
f 148/160/2 150/157/2 149/162/2 147/163/2
f 138/158/2 150/157/2 148/160/2 137/159/2
f 133/137/11 142/167/11 141/170/11 135/138/11
f 135/138/14 141/170/14 139/172/14 127/148/14
f 136/50/12 143/169/12 144/168/12 134/8/12
f 128/39/13 140/171/13 143/169/13 136/50/13
f 125/141/11 145/166/11 142/167/11 133/137/11
f 127/148/15 139/172/15 140/171/15 128/39/15
f 123/151/11 151/164/11 145/166/11 125/141/11
f 134/8/12 144/168/12 146/165/12 126/5/12
f 126/5/12 146/165/12 152/161/12 124/52/12
f 120/154/2 44/77/2 46/48/2 122/47/2
f 161/173/18 162/174/18 164/175/18 163/176/18
f 165/177/18 166/178/18 168/179/18 167/180/18
f 159/181/19 157/182/19 173/183/19 175/184/19
f 157/182/20 158/185/20 174/186/20 173/183/20
f 155/187/19 153/188/19 169/189/19 171/190/19
f 153/188/20 154/191/20 170/192/20 169/189/20
f 158/185/21 160/193/21 176/194/21 174/186/21
f 160/193/22 159/181/22 175/184/22 176/194/22
f 154/191/21 156/195/21 172/196/21 170/192/21
f 156/195/22 155/187/22 171/190/22 172/196/22
f 162/197/18 161/198/18 169/189/18 170/192/18
f 163/199/18 164/200/18 172/196/18 171/190/18
f 161/198/18 163/199/18 171/190/18 169/189/18
f 164/200/18 162/197/18 170/192/18 172/196/18
f 166/201/18 165/202/18 173/183/18 174/186/18
f 167/203/18 168/204/18 176/194/18 175/184/18
f 165/202/18 167/203/18 175/184/18 173/183/18
f 168/204/18 166/201/18 174/186/18 176/194/18
f 185/205/23 187/206/23 188/207/23 186/208/23
f 189/209/23 191/210/23 192/211/23 190/212/23
f 183/213/24 199/214/24 197/215/24 181/216/24
f 181/216/25 197/215/25 198/217/25 182/218/25
f 179/219/24 195/220/24 193/221/24 177/222/24
f 177/222/25 193/221/25 194/223/25 178/224/25
f 182/218/26 198/217/26 200/225/26 184/226/26
f 184/226/27 200/225/27 199/214/27 183/213/27
f 178/224/26 194/223/26 196/227/26 180/228/26
f 180/228/27 196/227/27 195/220/27 179/219/27
f 186/229/23 194/223/23 193/221/23 185/230/23
f 187/231/23 195/220/23 196/227/23 188/232/23
f 185/230/23 193/221/23 195/220/23 187/231/23
f 188/232/23 196/227/23 194/223/23 186/229/23
f 190/233/23 198/217/23 197/215/23 189/234/23
f 191/235/23 199/214/23 200/225/23 192/236/23
f 189/234/23 197/215/23 199/214/23 191/235/23
f 192/236/23 200/225/23 198/217/23 190/233/23
