# Blender v2.92.0 OBJ File: 'lab_floor_basic_export.blend'
# www.blender.org
mtllib lab_floor_basic.mtl
o Plane
v -1.000000 0.000000 1.000000
v 1.000000 0.000000 1.000000
v -1.000000 0.000000 -1.000000
v 1.000000 0.000000 -1.000000
v -0.750239 -0.025363 -0.870037
v 0.252651 -0.025363 -0.074939
v -0.750239 0.000000 0.870037
v 0.750239 0.000000 0.870037
v 0.750239 0.000000 -0.870037
v -0.750239 0.000000 -0.870037
v -0.862307 0.000000 1.000000
v 0.862307 0.000000 1.000000
v 0.862307 0.000000 -1.000000
v -0.862307 0.000000 -1.000000
v -0.916001 0.000000 -0.282319
v -0.916001 0.000000 0.282319
v 0.916001 0.000000 0.282319
v 0.916001 0.000000 -0.282319
v -1.000000 0.000000 -0.861054
v -1.000000 0.000000 0.861054
v 1.000000 0.000000 0.861054
v 1.000000 0.000000 -0.861054
v -0.436479 -0.025363 0.074939
v -0.252651 -0.025363 0.074939
v -0.870037 -0.025363 -0.749149
v -0.436479 -0.025363 -0.074939
v -0.252651 -0.025363 0.870037
v 0.436479 -0.025363 -0.074939
v 0.436479 -0.025363 0.074939
v -0.252651 -0.025363 -0.074939
v 0.750239 -0.025363 -0.870037
v 0.870037 -0.025363 -0.749149
v 0.252651 -0.025363 0.074939
v -0.252651 -0.025363 -0.749149
v 0.252651 -0.025363 -0.749149
v -0.252651 -0.025363 0.749149
v 0.436479 0.000000 0.074939
v -0.436479 0.000000 0.074939
v 0.436479 0.000000 -0.074939
v -0.436479 0.000000 -0.074939
v -0.252651 0.000000 0.870037
v 0.252651 0.000000 0.870037
v 0.252651 0.000000 -0.870037
v -0.252651 0.000000 -0.870037
v 0.252651 -0.025363 -0.870037
v 0.252651 -0.025363 0.870037
v 0.252651 -0.025363 0.749149
v -0.252651 -0.025363 -0.870037
v 0.252651 0.000000 0.749149
v -0.252651 0.000000 0.749149
v 0.252651 0.000000 -0.749149
v -0.252651 0.000000 -0.749149
v 0.252651 0.000000 0.074939
v -0.252651 0.000000 0.074939
v 0.252651 0.000000 -0.074939
v -0.252651 0.000000 -0.074939
v 0.870037 -0.025363 0.749149
v -0.870037 -0.025363 0.749149
v -0.750239 -0.025363 0.870037
v 0.750239 -0.025363 0.870037
v 0.870037 0.000000 -0.749149
v 0.870037 0.000000 0.749149
v 0.954036 0.000000 -0.295018
v -0.870037 0.000000 0.749149
v 0.954036 0.000000 0.295018
v -0.870037 0.000000 -0.749149
v -0.954036 0.000000 0.295018
v -0.954036 0.025950 -0.272910
v -0.954036 0.000000 -0.295018
v -0.954036 0.025950 0.272910
v 0.954036 0.025950 0.272910
v 0.954036 0.025950 -0.272910
v 0.916001 0.025950 -0.261162
v 0.916001 0.025950 0.261162
v -0.916001 0.025950 0.261162
v -0.916001 0.025950 -0.261162
vt 0.036354 0.068436
vt 0.001865 0.038738
vt 0.001865 0.001865
vt 0.038406 0.001865
vt 0.068146 0.036354
vt 0.732017 0.337752
vt 0.732017 0.288119
vt 0.740416 0.288119
vt 0.740416 0.337752
vt 0.964424 0.333104
vt 0.964424 0.020298
vt 0.980125 0.020298
vt 0.980125 0.333104
vt 0.498135 0.068436
vt 0.466343 0.036354
vt 0.496084 0.001865
vt 0.532625 0.001865
vt 0.532625 0.038738
vt 0.584080 0.977103
vt 0.584080 0.812874
vt 0.618536 0.812874
vt 0.618536 0.977103
vt 0.036354 0.466054
vt 0.068146 0.498135
vt 0.038406 0.532625
vt 0.001865 0.532625
vt 0.001865 0.495751
vt 0.732017 0.064851
vt 0.740416 0.064851
vt 0.745070 0.601053
vt 0.745070 0.561021
vt 0.753469 0.561021
vt 0.753469 0.601053
vt 0.334293 0.068436
vt 0.334293 0.036354
vt 0.334293 0.247357
vt 0.530532 0.977103
vt 0.530532 0.812874
vt 0.564988 0.812874
vt 0.564988 0.977103
vt 0.299804 0.747357
vt 0.348588 0.747357
vt 0.348588 0.787132
vt 0.299804 0.787132
vt 0.466343 0.498135
vt 0.498135 0.466054
vt 0.532625 0.495751
vt 0.532625 0.532625
vt 0.496084 0.532625
vt 0.659584 0.111710
vt 0.659584 0.320941
vt 0.609527 0.320941
vt 0.609527 0.111710
vt 0.745070 0.064851
vt 0.745070 0.024819
vt 0.753469 0.024819
vt 0.753469 0.064851
vt 0.781575 0.812874
vt 0.781575 0.864546
vt 0.746321 0.864546
vt 0.746321 0.812874
vt 0.151412 0.287132
vt 0.151412 0.247357
vt 0.383078 0.247357
vt 0.383078 0.287132
vt 0.116922 0.747357
vt 0.165707 0.747357
vt 0.165707 0.787132
vt 0.116922 0.787132
vt 0.431854 0.536354
vt 0.463646 0.568436
vt 0.609527 0.535990
vt 0.609527 0.326760
vt 0.659584 0.326760
vt 0.659584 0.535990
vt 0.732017 0.561021
vt 0.740416 0.561021
vt 0.848829 0.787850
vt 0.848829 0.494237
vt 0.863566 0.494237
vt 0.863566 0.787850
vt 0.964424 0.654610
vt 0.964424 0.341804
vt 0.980125 0.341804
vt 0.980125 0.654610
vt 0.758123 0.288119
vt 0.758123 0.024819
vt 0.766522 0.024819
vt 0.766522 0.288119
vt 0.784423 0.192152
vt 0.784423 0.024819
vt 0.792822 0.024819
vt 0.792822 0.192152
vt 0.745070 0.337752
vt 0.745070 0.288119
vt 0.753469 0.288119
vt 0.753469 0.337752
vt 0.840663 0.024069
vt 0.840663 0.486071
vt 0.825925 0.486071
vt 0.825925 0.024069
vt 0.732017 0.601053
vt 0.740416 0.601053
vt 0.200196 0.287132
vt 0.200196 0.466054
vt 0.200196 0.498135
vt 0.334293 0.498135
vt 0.334293 0.466054
vt 0.334293 0.287132
vt 0.200196 0.247357
vt 0.200196 0.036354
vt 0.200196 0.068436
vt 0.825925 0.642891
vt 0.825925 0.572647
vt 0.840663 0.572647
vt 0.840663 0.642891
vt 0.463646 0.966054
vt 0.431854 0.998135
vt 0.825925 0.564481
vt 0.825925 0.494237
vt 0.840663 0.494237
vt 0.840663 0.564481
vt 0.745070 0.773041
vt 0.745070 0.605707
vt 0.753469 0.605707
vt 0.753469 0.773041
vt 0.871732 0.486071
vt 0.871732 0.024069
vt 0.886470 0.024069
vt 0.886469 0.486071
vt 0.732017 0.024819
vt 0.740416 0.024819
vt 0.033657 0.998135
vt 0.001865 0.966054
vt 0.672882 0.812874
vt 0.672882 0.864546
vt 0.637628 0.864546
vt 0.637628 0.812874
vt 0.001865 0.568436
vt 0.033657 0.536354
vt 0.863566 0.024069
vt 0.863566 0.486071
vt 0.848829 0.486071
vt 0.848829 0.024069
vt 0.871732 0.787850
vt 0.871732 0.494237
vt 0.886470 0.494237
vt 0.886470 0.787850
vt 0.024157 0.192323
vt 0.014063 0.188953
vt 0.014063 0.345537
vt 0.024157 0.342167
vt 0.510333 0.342167
vt 0.520427 0.345537
vt 0.520427 0.188953
vt 0.510333 0.192323
vt 0.907414 0.027570
vt 0.930960 0.020298
vt 0.930960 0.358186
vt 0.907414 0.350914
vt 0.907414 0.374159
vt 0.930960 0.366886
vt 0.930960 0.704775
vt 0.907414 0.697502
vt 0.939660 0.743797
vt 0.939660 0.394259
vt 0.955724 0.407356
vt 0.955724 0.730699
vt 0.771176 0.220212
vt 0.771176 0.024819
vt 0.779769 0.032140
vt 0.779769 0.212891
vt 0.835921 0.812874
vt 0.835921 0.864546
vt 0.800666 0.864546
vt 0.800666 0.812874
vt 0.939660 0.385559
vt 0.939660 0.020298
vt 0.955724 0.033984
vt 0.955724 0.371873
vt 0.727229 0.812874
vt 0.727229 0.864546
vt 0.691974 0.864546
vt 0.691974 0.812874
vt 0.731822 0.792690
vt 0.731822 0.605707
vt 0.740416 0.612713
vt 0.740416 0.785684
vn 0.0000 1.0000 0.0000
vn 1.0000 0.0000 0.0000
vn 0.0000 0.0000 1.0000
vn 0.8411 0.0000 0.5409
vn -0.7103 0.0000 -0.7039
vn -1.0000 0.0000 0.0000
vn -0.7103 0.0000 0.7039
vn -0.2397 0.6217 0.7457
vn 0.8411 0.0000 -0.5409
vn 0.0000 0.0000 -1.0000
vn -0.8477 0.0000 -0.5305
vn -0.8477 0.0000 0.5305
vn 0.7103 0.0000 0.7039
vn 0.8477 0.0000 0.5305
vn 0.7103 0.0000 -0.7039
vn 0.2397 0.6217 -0.7457
vn -0.8411 0.0000 0.5409
vn 0.8477 0.0000 -0.5305
vn -0.8411 0.0000 -0.5409
vn 0.2397 0.6217 0.7457
vn -0.2397 0.6217 -0.7457
usemtl Texture
s off
f 61/1/1 22/2/1 4/3/1 13/4/1 9/5/1
f 40/6/2 38/7/2 23/8/2 26/9/2
f 55/10/3 56/11/3 30/12/3 6/13/3
f 66/14/1 10/15/1 14/16/1 3/17/1 19/18/1
f 50/19/2 41/20/2 27/21/2 36/22/2
f 62/23/1 8/24/1 12/25/1 2/26/1 21/27/1
f 38/7/4 64/28/4 58/29/4 23/8/4
f 8/30/5 62/31/5 57/32/5 60/33/5
f 52/34/1 44/35/1 10/15/1 56/36/1
f 42/37/6 49/38/6 47/39/6 46/40/6
f 33/41/1 29/42/1 28/43/1 6/44/1
f 7/45/1 64/46/1 20/47/1 1/48/1 11/49/1
f 27/50/1 46/51/1 47/52/1 36/53/1
f 61/54/7 9/55/7 31/56/7 32/57/7
f 17/58/8 65/59/8 71/60/8 74/61/8
f 37/62/1 62/23/1 61/1/1 39/63/1
f 40/64/1 66/14/1 64/46/1 38/65/1
f 23/66/1 24/67/1 30/68/1 26/69/1
f 60/70/1 57/71/1 29/42/1 33/41/1
f 34/72/1 35/73/1 45/74/1 48/75/1
f 24/67/1 33/41/1 6/44/1 30/68/1
f 66/76/9 40/6/9 26/9/9 25/77/9
f 41/78/10 42/79/10 46/80/10 27/81/10
f 49/82/3 50/83/3 36/84/3 47/85/3
f 7/86/11 54/87/11 24/88/11 59/89/11
f 54/90/10 53/91/10 33/92/10 24/93/10
f 37/94/6 39/95/6 28/96/6 29/97/6
f 56/98/12 10/99/12 5/100/12 30/101/12
f 10/102/13 66/76/13 25/77/13 5/103/13
f 8/24/1 53/104/1 49/105/1 42/106/1
f 41/107/1 50/108/1 54/109/1 7/45/1
f 55/110/1 9/5/1 43/111/1 51/112/1
f 51/113/6 43/114/6 45/115/6 35/116/6
f 9/5/1 13/4/1 14/16/1 10/15/1 44/35/1 43/111/1
f 28/43/1 32/117/1 31/118/1 6/44/1
f 41/107/1 7/45/1 11/49/1 12/25/1 8/24/1 42/106/1
f 44/119/2 52/120/2 34/121/2 48/122/2
f 52/123/10 51/124/10 35/125/10 34/126/10
f 56/36/1 55/110/1 51/112/1 52/34/1
f 50/108/1 49/105/1 53/104/1 54/109/1
f 9/127/14 55/128/14 6/129/14 31/130/14
f 64/28/15 7/131/15 59/132/15 58/29/15
f 26/69/1 30/68/1 5/133/1 25/134/1
f 15/135/16 69/136/16 68/137/16 76/138/16
f 58/139/1 59/140/1 24/67/1 23/66/1
f 62/31/17 37/94/17 29/97/17 57/32/17
f 53/141/18 8/142/18 60/143/18 33/144/18
f 39/95/19 61/54/19 32/57/19 28/96/19
f 43/145/3 44/146/3 48/147/3 45/148/3
f 18/149/1 63/150/1 22/2/1 61/1/1
f 65/151/1 17/152/1 62/23/1 21/27/1
f 16/153/1 67/154/1 20/47/1 64/46/1
f 69/155/1 15/156/1 66/14/1 19/18/1
f 67/154/1 69/155/1 19/18/1 20/47/1
f 63/150/1 65/151/1 21/27/1 22/2/1
f 15/156/1 16/153/1 64/46/1 66/14/1
f 17/152/1 18/149/1 61/1/1 62/23/1
f 74/157/1 71/158/1 72/159/1 73/160/1
f 76/161/1 68/162/1 70/163/1 75/164/1
f 16/165/2 15/166/2 76/167/2 75/168/2
f 65/169/2 63/170/2 72/171/2 71/172/2
f 67/173/20 16/174/20 75/175/20 70/176/20
f 69/177/6 67/178/6 70/179/6 68/180/6
f 63/181/21 18/182/21 73/183/21 72/184/21
f 18/185/6 17/186/6 74/187/6 73/188/6
