# Blender v2.92.0 OBJ File: 'nature_ground2_export.blend'
# www.blender.org
mtllib nature_ground2.mtl
o Plane.001
v -1.000000 0.000000 1.000000
v -1.000000 0.000000 -1.000000
v 1.000000 0.000000 1.000000
v 1.000000 0.000000 -1.000000
v -1.000000 0.000000 0.000000
v 0.000000 0.000000 1.000000
v 0.000000 0.000000 -1.000000
v 1.000000 0.000000 0.000000
v 0.386185 0.133362 0.116217
v -1.000000 0.000000 0.750000
v 0.750000 0.000000 1.000000
v 0.750000 0.000000 -1.000000
v 1.000000 0.000000 0.750000
v -1.000000 0.000000 -0.396214
v -0.421207 0.000000 1.000000
v -0.421207 0.000000 -1.000000
v 1.000000 0.000000 -0.396214
v -0.819075 0.005128 -0.172070
v 0.580103 0.095637 -0.008738
v 0.022203 -0.022680 0.842511
v -0.135066 0.095637 -0.338241
v -1.000000 0.000000 0.396214
v 0.421207 0.000000 1.000000
v 0.421207 0.000000 -1.000000
v 1.000000 0.000000 0.396214
v -1.000000 0.000000 -0.750000
v -0.750000 0.000000 1.000000
v -0.750000 0.000000 -1.000000
v 1.000000 0.000000 -0.750000
v -0.340414 0.005128 0.127665
v 0.827093 0.026945 0.138766
v 0.091894 0.005128 0.597272
v -0.027137 -0.018252 -0.712379
v -0.404445 -0.004315 -0.786120
v -0.493366 0.095637 -0.399298
v -0.854229 0.033992 -0.635509
v -0.162176 0.005128 0.392514
v -0.329313 0.005128 0.809824
v -0.731498 0.045810 0.697577
v 0.941189 0.021826 0.494893
v 0.898018 0.005128 0.842511
v 0.542414 -0.019039 0.757880
v 0.676882 0.035855 -0.789300
v 0.817225 0.033376 -0.163703
v 0.517419 0.053519 -0.533131
v 0.267022 -0.000075 -0.674272
v 0.641777 0.025626 0.575411
v -0.848678 0.022938 0.356126
v -0.735815 0.033992 -0.816608
v 0.381408 0.036172 -0.639803
v 0.360175 0.039476 -0.614013
v 0.366206 0.047741 -0.576110
v 0.393515 0.057255 -0.541641
v 0.430178 0.055141 -0.568522
v 0.457422 0.052179 -0.595337
v 0.443162 0.043693 -0.630625
v 0.415363 0.037947 -0.646355
v 0.404616 0.039868 -0.602081
v 0.323240 0.121957 -0.619189
v 0.306568 0.086040 -0.685574
v 0.400143 0.063897 -0.702469
v 0.455050 0.118829 -0.711945
v 0.510640 0.085922 -0.650338
v 0.488809 0.148992 -0.552619
v 0.414807 0.106163 -0.506112
v 0.332836 0.109133 -0.538171
v 0.372091 0.017142 -0.603391
v 0.386211 0.013879 -0.625784
v 0.378020 0.022848 -0.578020
v 0.400523 0.027653 -0.564531
v 0.426418 0.028742 -0.570827
v 0.440538 0.025479 -0.593219
v 0.434609 0.019773 -0.618591
v 0.412106 0.014968 -0.632079
v -0.460774 0.045867 -0.085069
v -0.479907 0.046417 -0.113638
v -0.520009 0.044114 -0.136179
v -0.551018 0.038607 -0.113327
v -0.576419 0.033042 -0.083225
v -0.565692 0.029665 -0.034038
v -0.515548 0.034235 -0.024136
v -0.477778 0.040130 -0.043183
v -0.517532 0.031950 -0.087385
v -0.491404 0.116291 -0.161534
v -0.405823 0.111070 -0.118934
v -0.420994 0.087515 -0.014736
v -0.494414 0.123007 0.001896
v -0.583135 0.083714 0.044845
v -0.610462 0.106255 -0.024970
v -0.653465 0.094674 -0.112101
v -0.561219 0.109956 -0.184358
v -0.484467 0.013627 -0.123445
v -0.469305 0.012359 -0.091813
v -0.517412 0.011119 -0.135295
v -0.548839 0.006304 -0.120423
v -0.560340 0.002003 -0.087540
v -0.545177 0.000735 -0.055909
v -0.512233 0.003243 -0.044059
v -0.480806 0.008058 -0.058931
v 0.802427 0.028571 0.455511
v 0.823891 0.028571 0.446765
v 0.827315 0.028571 0.423415
v 0.818183 0.028571 0.397385
v 0.793213 0.028571 0.388244
v 0.769231 0.028571 0.403182
v 0.765310 0.028571 0.427144
v 0.769905 0.028571 0.458055
v 0.799302 0.023997 0.421840
v 0.860885 0.080320 0.452288
v 0.839840 0.086980 0.491143
v 0.768391 0.057618 0.486703
v 0.722301 0.084218 0.468472
v 0.710194 0.058593 0.411218
v 0.758311 0.086549 0.366697
v 0.820531 0.064454 0.349936
v 0.861597 0.071082 0.381536
v 0.821104 0.009398 0.437352
v 0.803750 0.009398 0.448225
v 0.825687 0.009398 0.417392
v 0.814814 0.009398 0.400038
v 0.794854 0.009398 0.395455
v 0.777500 0.009398 0.406329
v 0.772917 0.009398 0.426288
v 0.783791 0.009398 0.443642
v 0.043112 0.008788 -0.577485
v 0.051257 0.085742 -0.609554
v 0.114064 -0.026141 -0.712881
v 0.110366 0.051431 -0.729230
v 0.238664 0.042191 -0.495582
v 0.238935 0.107771 -0.517933
v 0.338698 -0.003865 -0.642898
v 0.313160 0.066692 -0.681511
v 0.040660 -0.026674 -0.673800
v 0.027071 0.035420 -0.595355
v 0.059412 0.079111 -0.681171
v 0.098002 -0.009516 -0.738967
v 0.213113 -0.026793 -0.674982
v 0.211883 0.072287 -0.703639
v 0.339840 0.013282 -0.667398
v 0.327232 0.020610 -0.524368
v 0.290682 0.093890 -0.571163
v 0.252320 0.072260 -0.478938
v 0.141163 0.018790 -0.502231
v 0.138185 0.110956 -0.554423
v 0.019696 0.006230 -0.688395
v 0.239057 -0.012639 -0.749582
v 0.332520 0.055314 -0.533344
v 0.125960 0.062542 -0.509337
v 0.174631 0.118625 -0.635420
vt 0.122313 0.633974
vt 0.116895 0.695763
vt 0.033633 0.694525
vt 0.034033 0.611184
vt 0.084291 0.243355
vt 0.094093 0.418602
vt 0.033901 0.361645
vt 0.033502 0.230042
vt 0.577462 0.174911
vt 0.555393 0.367466
vt 0.491288 0.327298
vt 0.395570 0.165536
vt 0.453466 0.589527
vt 0.505747 0.696294
vt 0.366061 0.697693
vt 0.356942 0.602692
vt 0.544693 0.112913
vt 0.662862 0.086807
vt 0.675815 0.201492
vt 0.589553 0.624819
vt 0.614606 0.695092
vt 0.123650 0.130992
vt 0.034153 0.112684
vt 0.638807 0.318680
vt 0.084020 0.573167
vt 0.034398 0.493324
vt 0.251757 0.319170
vt 0.311014 0.232328
vt 0.536432 0.540444
vt 0.635412 0.418317
vt 0.232757 0.625709
vt 0.226215 0.696540
vt 0.321336 0.474481
vt 0.204059 0.494720
vt 0.373404 0.083752
vt 0.256685 0.093892
vt 0.366102 0.031150
vt 0.226330 0.030696
vt 0.117300 0.030331
vt 0.034550 0.029934
vt 0.696334 0.233846
vt 0.696522 0.364303
vt 0.696373 0.117747
vt 0.697260 0.034996
vt 0.614502 0.033904
vt 0.505632 0.032165
vt 0.696855 0.612032
vt 0.697260 0.694687
vt 0.696803 0.495040
vt 0.203933 0.850151
vt 0.195908 0.815920
vt 0.293487 0.742556
vt 0.293487 0.858730
vt 0.179511 0.801711
vt 0.150635 0.848070
vt 0.150782 0.817506
vt 0.195894 0.815312
vt 0.195406 0.826333
vt 0.189157 0.886725
vt 0.187725 0.872796
vt 0.158355 0.889025
vt 0.171251 0.886100
vt 0.119566 0.868431
vt 0.142417 0.868696
vt 0.103798 0.838441
vt 0.116212 0.855611
vt 0.118215 0.824440
vt 0.123652 0.806512
vt 0.080791 0.737582
vt 0.183234 0.725028
vt 0.152636 0.983068
vt 0.058301 0.929903
vt 0.269500 0.980759
vt 0.024240 0.829476
vt 0.819582 0.439984
vt 0.799553 0.462493
vt 0.746391 0.447583
vt 0.792936 0.379888
vt 0.798022 0.497691
vt 0.834071 0.482535
vt 0.815127 0.505376
vt 0.803049 0.481974
vt 0.813760 0.451560
vt 0.853894 0.443051
vt 0.840235 0.449547
vt 0.874470 0.463032
vt 0.860761 0.454431
vt 0.874276 0.504477
vt 0.861922 0.481939
vt 0.861157 0.529564
vt 0.866451 0.514636
vt 0.847463 0.525977
vt 0.832063 0.529645
vt 0.797733 0.582687
vt 0.745436 0.521479
vt 0.940256 0.432758
vt 0.940256 0.521850
vt 0.888396 0.354550
vt 0.883794 0.582714
vt 0.355359 0.833733
vt 0.364647 0.866295
vt 0.314298 0.886514
vt 0.295276 0.814789
vt 0.393621 0.894740
vt 0.400920 0.849278
vt 0.415570 0.880638
vt 0.379623 0.875514
vt 0.363695 0.851103
vt 0.378630 0.800540
vt 0.371587 0.824645
vt 0.408594 0.802715
vt 0.393321 0.803711
vt 0.437499 0.819205
vt 0.428029 0.818833
vt 0.450726 0.850415
vt 0.438099 0.829063
vt 0.431639 0.864438
vt 0.430453 0.883734
vt 0.458465 0.951945
vt 0.360391 0.950822
vt 0.437405 0.725028
vt 0.529340 0.759411
vt 0.342461 0.738848
vt 0.529340 0.873339
vt 0.745436 0.266964
vt 0.772351 0.271955
vt 0.806415 0.314334
vt 0.789174 0.347509
vt 0.801666 0.257705
vt 0.822105 0.280421
vt 0.851031 0.293193
vt 0.857169 0.327255
vt 0.869714 0.352414
vt 0.921025 0.285292
vt 0.966285 0.321514
vt 0.885313 0.260848
vt 0.916985 0.234542
vt 0.949390 0.230020
vt 0.966285 0.217853
vt 0.913600 0.152392
vt 0.928249 0.123339
vt 0.891948 0.186705
vt 0.856261 0.175895
vt 0.856510 0.145364
vt 0.842227 0.121370
vt 0.784860 0.187610
vt 0.759943 0.160850
vt 0.820459 0.212890
vt 0.853857 0.236619
vn -0.0755 0.9943 -0.0755
vn -0.0983 0.9949 -0.0223
vn 0.0613 0.9788 0.1955
vn -0.0266 0.9994 0.0220
vn -0.0316 0.9938 0.1066
vn -0.0628 0.9937 -0.0929
vn -0.1627 0.9867 -0.0050
vn 0.2143 0.9722 0.0939
vn -0.1947 0.9799 -0.0431
vn 0.0230 0.9994 -0.0268
vn 0.0858 0.9962 -0.0153
vn 0.0614 0.9950 -0.0791
vn -0.0260 0.9528 -0.3025
vn 0.0133 0.9989 0.0452
vn 0.0649 0.9649 -0.2544
vn -0.1225 0.9830 0.1370
vn -0.0734 0.9966 0.0365
vn -0.1668 0.9746 0.1492
vn -0.1272 0.9810 -0.1468
vn -0.1561 0.9772 0.1437
vn 0.0258 0.9984 0.0511
vn 0.0375 0.9986 -0.0381
vn -0.0797 0.9936 0.0797
vn 0.0382 0.9931 0.1112
vn 0.0905 0.9952 0.0363
vn 0.1849 0.9825 -0.0214
vn 0.2067 0.9777 0.0360
vn 0.0198 0.9996 0.0198
vn -0.0136 0.9940 -0.1087
vn -0.0286 0.9981 -0.0540
vn 0.0295 0.9862 -0.1628
vn 0.0669 0.9955 -0.0669
vn 0.1295 0.9914 -0.0161
vn 0.1739 0.9847 0.0066
vn 0.0514 0.9924 -0.1116
vn 0.2160 0.9745 -0.0610
vn 0.0299 0.9966 -0.0770
vn -0.0058 0.9863 0.1648
vn 0.0152 0.9998 0.0095
vn 0.4347 -0.3484 0.8304
vn 0.5183 0.6335 0.5745
vn 0.6432 0.7591 -0.1002
vn 0.2790 0.7760 -0.5657
vn 0.0247 0.3969 -0.9175
vn -0.5319 0.5490 -0.6448
vn -0.9343 0.2652 -0.2383
vn -0.4961 0.8392 0.2230
vn 0.6701 0.5755 -0.4687
vn 0.2585 0.0552 -0.9644
vn -0.8942 -0.3862 0.2265
vn -0.1747 0.7603 0.6256
vn -0.4305 -0.8692 -0.2431
vn 0.6947 0.7059 0.1380
vn -0.0320 -0.9105 -0.4124
vn 0.4173 0.6362 0.6489
vn 0.4611 -0.6843 -0.5649
vn -0.2535 0.9144 0.3157
vn 0.5285 -0.8489 -0.0094
vn -0.8017 0.4306 0.4147
vn 0.5891 -0.4784 0.6513
vn -0.7739 0.5565 -0.3022
vn 0.4269 -0.6457 0.6331
vn -0.5115 0.2331 -0.8271
vn -0.5102 -0.6355 0.5796
vn -0.8822 -0.3964 0.2543
vn 0.5087 -0.5151 -0.6898
vn 0.7169 -0.2809 0.6381
vn -0.5240 -0.4961 0.6924
vn -0.7200 -0.5221 -0.4571
vn -0.1541 -0.5274 -0.8355
vn 0.8596 -0.4805 -0.1737
vn -0.8427 -0.1497 -0.5172
vn -0.9006 0.4088 0.1476
vn -0.4019 0.6165 0.6770
vn 0.0704 0.4940 0.8666
vn 0.6937 0.3297 0.6404
vn 0.5581 0.8284 -0.0474
vn 0.6116 0.4692 -0.6370
vn -0.2010 0.8885 -0.4124
vn -0.1712 0.5639 0.8079
vn 0.3102 0.5717 0.7596
vn 0.4570 -0.4505 -0.7670
vn -0.5908 0.6363 -0.4960
vn 0.5846 -0.7030 -0.4050
vn -0.6852 0.5076 0.5224
vn 0.5949 -0.7927 0.1330
vn -0.9740 0.2253 0.0224
vn 0.4648 -0.3492 0.8136
vn -0.6177 0.5783 -0.5329
vn -0.0350 -0.8280 0.5596
vn -0.0446 0.6092 -0.7917
vn -0.8458 -0.5121 0.1493
vn 0.4440 0.8192 -0.3629
vn -0.4214 -0.7592 -0.4960
vn 0.8071 0.5812 0.1039
vn -0.3489 -0.6858 -0.6387
vn 0.4175 0.1099 -0.9020
vn 0.4494 -0.4382 0.7784
vn -0.7874 -0.5762 0.2191
vn -0.5218 0.0429 -0.8520
vn 0.8673 -0.0475 -0.4955
vn 0.9117 -0.2676 0.3117
vn -0.1529 -0.6055 0.7810
vn 0.2828 -0.2509 -0.9258
vn -0.0337 0.5035 -0.8633
vn -0.7051 0.5559 -0.4404
vn -0.6510 0.7273 0.2170
vn -0.4311 0.4210 0.7980
vn 0.2005 0.7204 0.6640
vn 0.7004 0.5047 0.5048
vn 0.5502 0.8191 -0.1623
vn -0.8435 0.5371 0.0053
vn -0.6824 0.4243 0.5953
vn 0.8019 -0.5858 0.1176
vn 0.6336 0.3508 -0.6895
vn 0.2937 -0.6278 0.7208
vn -0.6229 0.5326 -0.5729
vn 0.0557 -0.6996 0.7123
vn -0.0513 0.5696 -0.8203
vn -0.7449 -0.6580 0.1107
vn 0.3730 0.8394 -0.3954
vn -0.4601 -0.8847 -0.0753
vn 0.8677 0.4887 -0.0907
vn -0.4466 -0.5353 -0.7170
vn 0.5248 0.6662 0.5298
vn 0.2133 -0.7843 -0.5826
vn -0.1591 0.7550 0.6362
vn 0.6388 -0.7360 -0.2241
vn 0.9667 -0.1832 0.1787
vn -0.7965 -0.5481 0.2553
vn -0.4974 -0.3437 -0.7966
vn 0.9051 -0.0813 -0.4173
vn 0.4180 -0.3761 0.8270
vn -0.0336 -0.5022 0.8641
vn -0.9059 -0.3855 -0.1754
vn -0.8772 -0.4387 0.1953
vn -0.8854 0.4534 -0.1028
vn -0.5124 0.3013 -0.8042
vn -0.3951 -0.7412 -0.5428
vn 0.0180 -0.9567 -0.2907
vn 0.0313 0.3592 -0.9327
vn 0.4014 0.3509 -0.8460
vn 0.3062 -0.9286 -0.2096
vn 0.9938 -0.0646 0.0909
vn 0.8170 0.5732 -0.0627
vn 0.4984 0.7748 0.3890
vn 0.3904 -0.2200 0.8940
vn -0.1432 -0.1298 0.9812
vn -0.2231 0.6884 0.6902
vn -0.5944 0.5636 0.5736
vn -0.6329 -0.0062 0.7742
vn 0.2469 0.9223 -0.2972
vn -0.0456 0.8267 -0.5608
vn -0.2711 0.9598 -0.0727
vn 0.1143 0.9930 0.0292
usemtl Texture
s off
f 49/1/1 28/2/1 2/3/1 26/4/1
f 48/5/2 18/6/2 5/7/2 22/8/2
f 47/9/3 19/10/3 9/11/3 32/12/3
f 46/13/4 24/14/4 7/15/4 33/16/4
f 42/17/5 41/18/5 40/19/5 47/9/5
f 24/14/6 46/13/6 43/20/6 12/21/6
f 39/22/7 48/5/7 22/8/7 10/23/7
f 31/24/8 19/10/8 47/9/8
f 36/25/9 49/1/9 26/4/9 14/26/9
f 30/27/10 18/6/10 48/5/10 37/28/10
f 45/29/11 44/30/11 43/20/11
f 28/2/12 49/1/12 34/31/12 16/32/12
f 45/29/13 46/13/13 33/16/13 21/33/13
f 33/16/14 7/15/14 16/32/14 34/31/14
f 21/33/15 33/16/15 34/31/15 35/34/15
f 9/11/16 21/33/16 35/34/16 30/27/16
f 18/6/17 36/25/17 14/26/17 5/7/17
f 35/34/18 36/25/18 18/6/18 30/27/18
f 46/13/19 45/29/19 43/20/19
f 32/12/20 9/11/20 30/27/20 37/28/20
f 20/35/21 32/12/21 37/28/21 38/36/21
f 6/37/22 20/35/22 38/36/22 15/38/22
f 27/39/23 39/22/23 10/23/23 1/40/23
f 38/36/24 39/22/24 27/39/24 15/38/24
f 39/22/25 38/36/25 37/28/25
f 25/41/26 8/42/26 31/24/26 40/19/26
f 13/43/27 25/41/27 40/19/27 41/18/27
f 3/44/28 13/43/28 41/18/28 11/45/28
f 23/46/29 42/17/29 20/35/29 6/37/29
f 41/18/30 42/17/30 23/46/30 11/45/30
f 36/25/31 35/34/31 34/31/31 49/1/31
f 29/47/32 4/48/32 12/21/32 43/20/32
f 17/49/33 29/47/33 43/20/33 44/30/33
f 8/42/34 17/49/34 44/30/34 31/24/34
f 19/10/35 45/29/35 21/33/35 9/11/35
f 44/30/36 45/29/36 19/10/36 31/24/36
f 48/5/37 39/22/37 37/28/37
f 20/35/38 42/17/38 47/9/38 32/12/38
f 40/19/39 31/24/39 47/9/39
f 54/50/40 53/51/40 70/52/40 71/53/40
f 52/54/41 58/55/41 59/56/41
f 53/51/42 58/55/42 66/57/42
f 54/50/43 58/55/43 65/58/43
f 55/59/44 58/55/44 64/60/44
f 56/61/45 58/55/45 63/62/45
f 57/63/46 58/55/46 62/64/46
f 50/65/47 58/55/47 61/66/47
f 58/55/48 50/65/48 60/67/48
f 58/55/49 51/68/49 59/56/49
f 51/68/50 52/54/50 59/56/50
f 51/68/51 58/55/51 60/67/51
f 50/65/52 51/68/52 60/67/52
f 58/55/53 57/63/53 61/66/53
f 57/63/54 50/65/54 61/66/54
f 58/55/55 56/61/55 62/64/55
f 56/61/56 57/63/56 62/64/56
f 58/55/57 55/59/57 63/62/57
f 55/59/58 56/61/58 63/62/58
f 58/55/59 54/50/59 64/60/59
f 54/50/60 55/59/60 64/60/60
f 58/55/61 53/51/61 65/58/61
f 53/51/62 54/50/62 65/58/62
f 58/55/63 52/54/63 66/57/63
f 52/54/64 53/51/64 66/57/64
f 52/54/65 51/68/65 67/69/65 69/70/65
f 57/63/66 56/61/66 73/71/66 74/72/66
f 55/59/67 54/50/67 71/53/67 72/73/67
f 53/51/68 52/54/68 69/70/68 70/52/68
f 51/68/69 50/65/69 68/74/69 67/69/69
f 50/65/70 57/63/70 74/72/70 68/74/70
f 56/61/71 55/59/71 72/73/71 73/71/71
f 79/75/72 78/76/72 95/77/72 96/78/72
f 77/79/73 83/80/73 84/81/73
f 78/76/74 83/80/74 91/82/74
f 79/75/75 83/80/75 90/83/75
f 80/84/76 83/80/76 89/85/76
f 81/86/77 83/80/77 88/87/77
f 82/88/78 83/80/78 87/89/78
f 75/90/79 83/80/79 86/91/79
f 83/80/80 75/90/80 85/92/80
f 83/80/81 76/93/81 84/81/81
f 76/93/82 77/79/82 84/81/82
f 76/93/83 83/80/83 85/92/83
f 75/90/84 76/93/84 85/92/84
f 83/80/85 82/88/85 86/91/85
f 82/88/86 75/90/86 86/91/86
f 83/80/87 81/86/87 87/89/87
f 81/86/88 82/88/88 87/89/88
f 83/80/89 80/84/89 88/87/89
f 80/84/90 81/86/90 88/87/90
f 83/80/91 79/75/91 89/85/91
f 79/75/92 80/84/92 89/85/92
f 83/80/93 78/76/93 90/83/93
f 78/76/94 79/75/94 90/83/94
f 83/80/95 77/79/95 91/82/95
f 77/79/96 78/76/96 91/82/96
f 77/79/97 76/93/97 92/94/97 94/95/97
f 82/88/98 81/86/98 98/96/98 99/97/98
f 80/84/99 79/75/99 96/78/99 97/98/99
f 78/76/100 77/79/100 94/95/100 95/77/100
f 76/93/101 75/90/101 93/99/101 92/94/101
f 75/90/102 82/88/102 99/97/102 93/99/102
f 81/86/103 80/84/103 97/98/103 98/96/103
f 104/100/104 103/101/104 120/102/104 121/103/104
f 102/104/105 108/105/105 109/106/105
f 103/101/106 108/105/106 116/107/106
f 104/100/107 108/105/107 115/108/107
f 105/109/108 108/105/108 114/110/108
f 106/111/109 108/105/109 113/112/109
f 107/113/110 108/105/110 112/114/110
f 100/115/111 108/105/111 111/116/111
f 108/105/112 100/115/112 110/117/112
f 108/105/113 101/118/113 109/106/113
f 101/118/114 102/104/114 109/106/114
f 101/118/115 108/105/115 110/117/115
f 100/115/116 101/118/116 110/117/116
f 108/105/117 107/113/117 111/116/117
f 107/113/118 100/115/118 111/116/118
f 108/105/119 106/111/119 112/114/119
f 106/111/120 107/113/120 112/114/120
f 108/105/121 105/109/121 113/112/121
f 105/109/122 106/111/122 113/112/122
f 108/105/123 104/100/123 114/110/123
f 104/100/124 105/109/124 114/110/124
f 108/105/125 103/101/125 115/108/125
f 103/101/126 104/100/126 115/108/126
f 108/105/127 102/104/127 116/107/127
f 102/104/128 103/101/128 116/107/128
f 102/104/129 101/118/129 117/119/129 119/120/129
f 107/113/130 106/111/130 123/121/130 124/122/130
f 105/109/131 104/100/131 121/103/131 122/123/131
f 103/101/132 102/104/132 119/120/132 120/102/132
f 101/118/133 100/115/133 118/124/133 117/119/133
f 100/115/134 107/113/134 124/122/134 118/124/134
f 106/111/135 105/109/135 122/123/135 123/121/135
f 125/125/136 134/126/136 145/127/136 133/128/136
f 134/126/137 126/129/137 135/130/137 145/127/137
f 145/127/138 135/130/138 128/131/138 136/132/138
f 133/128/139 145/127/139 136/132/139 127/133/139
f 127/133/140 136/132/140 146/134/140 137/135/140
f 136/132/141 128/131/141 138/136/141 146/134/141
f 146/134/142 138/136/142 132/137/142 139/138/142
f 137/135/143 146/134/143 139/138/143 131/139/143
f 131/139/144 139/138/144 147/140/144 140/141/144
f 139/138/145 132/137/145 141/142/145 147/140/145
f 147/140/146 141/142/146 130/143/146 142/144/146
f 140/141/147 147/140/147 142/144/147 129/145/147
f 129/145/148 142/144/148 148/146/148 143/147/148
f 142/144/149 130/143/149 144/148/149 148/146/149
f 148/146/150 144/148/150 126/129/150 134/126/150
f 143/147/151 148/146/151 134/126/151 125/125/151
f 132/137/152 138/136/152 149/149/152 141/142/152
f 138/136/153 128/131/153 135/130/153 149/149/153
f 149/149/154 135/130/154 126/129/154 144/148/154
f 141/142/155 149/149/155 144/148/155 130/143/155
