# Blender v2.92.0 OBJ File: 'nature_path_corner_export.blend'
# www.blender.org
mtllib nature_path_corner.mtl
o Plane
v -1.000000 0.000000 1.000000
v -1.000000 0.000000 -1.000000
v -1.000000 0.000000 0.000000
v -0.866783 0.000000 -1.000000
v -0.817298 0.000000 1.000000
v -0.849427 0.027951 0.150057
v -1.000000 0.000000 0.936755
v -0.938088 0.000000 -1.000000
v -1.000000 0.000000 -0.236843
v -0.171410 0.000000 1.000000
v -0.927534 0.035299 0.000000
v -1.000000 0.000000 0.340181
v -0.171410 0.000000 -1.000000
v -1.000000 0.000000 -0.836732
v -0.938088 0.000000 1.000000
v -0.178239 -0.003942 -0.045577
v -0.823933 0.035329 0.540781
v -0.804090 0.033068 0.933973
v -0.864736 0.014511 -0.755059
v -0.871320 0.032950 -0.095281
v -0.281003 0.020736 -0.326690
v -0.926283 0.023340 -0.213791
v -0.941063 0.017969 -0.819516
v -0.163738 0.033898 0.931937
v -0.944900 0.022978 0.937653
v -0.934798 0.033885 0.456233
v -0.135013 -0.014772 0.293436
v -0.233313 -0.014476 -0.780790
v -0.800000 0.000000 -1.000000
v -0.744862 -0.008292 0.349088
v -0.694576 0.000000 1.000000
v -0.774273 -0.014759 -0.016581
v -0.676397 0.021287 0.934413
v -0.670946 -0.017827 0.540281
v -0.778821 0.002971 -0.744059
v -0.458669 0.000000 1.000000
v -0.458669 0.000000 -1.000000
v -0.485939 0.007048 0.008088
v -0.510830 0.025594 -0.238082
v -0.450762 0.034946 0.951365
v -0.406265 -0.008859 0.322211
v -0.585907 0.000000 -0.759865
v 1.000000 0.000000 1.000000
v 1.000000 0.000000 -1.000000
v 1.000000 0.000000 0.000000
v 0.848920 0.000000 -1.000000
v 0.810193 0.000000 1.000000
v 0.655527 -0.000522 0.030514
v 1.000062 0.000000 0.946243
v 0.931437 0.000000 -1.000000
v 1.000000 0.000000 -0.360770
v 0.165227 0.000000 1.000000
v 0.833668 0.018370 0.049285
v 1.000000 0.000000 0.340181
v 0.165227 0.000000 -1.000000
v 1.000000 0.000000 -0.895942
v 0.888407 0.000000 1.000000
v 0.079867 -0.013748 -0.020346
v 0.760802 0.033037 0.449179
v 0.792885 0.031159 0.957439
v 0.878621 0.018809 -0.948345
v 0.763333 0.010378 -0.370265
v 0.105789 -0.009762 -0.242656
v 0.913502 0.004956 -0.346000
v 0.947985 0.019311 -0.924322
v 0.169888 0.014038 0.913230
v 0.891938 0.025859 0.946041
v 0.879660 0.007281 0.347215
v 0.141138 0.008646 0.378161
v 0.132406 -0.006660 -0.750593
v 0.800000 0.000000 -1.000000
v 0.468219 0.001245 0.009119
v 0.636485 0.000000 1.000000
v 0.573539 0.000864 -0.334350
v 0.608811 0.008550 0.955855
v 0.539974 0.017458 0.491547
v 0.807474 -0.006057 -0.963442
v 0.411173 0.000000 1.000000
v 0.411173 0.000000 -1.000000
v 0.310420 0.002672 0.068365
v 0.367611 0.002672 -0.265070
v 0.405426 0.004372 0.934125
v 0.387804 0.018284 0.383938
v 0.454777 0.003049 -0.853844
v -1.000000 0.000000 0.800000
v -0.733351 0.032016 0.758073
v -0.890332 0.031541 0.763771
v -0.108740 -0.012119 0.696509
v -0.537248 -0.009387 0.695448
v -0.315819 -0.020370 0.715672
v 1.000968 0.000000 0.804165
v 0.641763 0.000669 0.770896
v 0.859684 0.000427 0.806820
v 0.084014 -0.033426 0.735851
v 0.484425 -0.004754 0.725927
v 0.254595 -0.006507 0.715854
v -1.000000 0.000000 -0.536655
v -0.819259 0.030757 -0.362135
v -0.901871 0.030881 -0.424011
v -0.175069 0.005949 -0.564875
v -0.719888 -0.006046 -0.374906
v -0.451526 -0.002604 -0.518229
v 1.000000 0.000000 -0.800000
v 0.861461 0.005002 -0.850168
v 0.913170 0.006117 -0.820503
v 0.131774 -0.009206 -0.491126
v 0.810306 -0.006797 -0.923553
v 0.442922 0.007854 -0.613533
v -1.000000 0.000000 0.868377
v -0.605273 0.026515 0.842814
v -0.392585 0.048195 0.827322
v 1.000515 0.000000 0.875204
v 0.574502 0.031312 0.879618
v 0.385778 0.030990 0.845128
v -0.768721 0.049929 0.846023
v -0.917616 0.036745 0.850712
v -0.137788 0.038982 0.808027
v 0.756051 0.046753 0.888953
v 0.891302 0.032542 0.870234
v 0.173424 -0.004681 0.816795
v -0.474429 0.051689 0.820881
v -0.477963 0.052488 0.842566
v -0.460769 0.053752 0.856845
v -0.435201 0.054953 0.862282
v -0.415467 0.055024 0.846573
v -0.415696 0.053864 0.819798
v -0.433141 0.052560 0.804816
v -0.460414 0.051033 0.793302
v -0.445487 0.049050 0.835132
v -0.502568 0.101806 0.867683
v -0.523833 0.105762 0.831228
v -0.483878 0.077033 0.776775
v -0.447306 0.102425 0.747367
v -0.394094 0.080927 0.766826
v -0.382865 0.110483 0.826578
v -0.399267 0.091430 0.886104
v -0.445361 0.096732 0.903504
v -0.468286 0.034773 0.845731
v -0.468504 0.033930 0.826324
v -0.454406 0.035881 0.859277
v -0.434996 0.036604 0.859027
v -0.421424 0.036520 0.845129
v -0.421642 0.035677 0.825722
v -0.435522 0.034569 0.812176
v -0.454932 0.033846 0.812426
v -0.152020 0.018512 0.813395
v -0.139741 0.068241 0.818197
v -0.183336 0.028179 0.913889
v -0.179516 0.070075 0.909164
v -0.291565 -0.004010 0.758556
v -0.279877 0.066833 0.789706
v -0.340629 0.029737 0.890473
v -0.308186 0.063175 0.895925
v -0.125235 0.018339 0.868543
v -0.125627 0.037569 0.805293
v -0.137528 0.075955 0.855136
v -0.169783 0.043539 0.925364
v -0.253455 0.011939 0.901654
v -0.240519 0.079377 0.902546
v -0.338680 0.045601 0.902760
v -0.346799 0.016200 0.809498
v -0.317624 0.071530 0.820645
v -0.303049 0.037711 0.769185
v -0.225825 0.005543 0.775041
v -0.218433 0.075023 0.789635
v -0.109850 0.041803 0.868969
v -0.262180 0.043491 0.948684
v -0.349496 0.040453 0.808935
v -0.216910 0.035020 0.762753
v -0.215994 0.089087 0.857492
vt 0.286709 0.862366
vt 0.371003 0.897270
vt 0.403467 0.939864
vt 0.284725 0.923063
vt 0.521488 0.907561
vt 0.578862 0.938246
vt 0.182577 0.518212
vt 0.216590 0.514982
vt 0.213243 0.644547
vt 0.184091 0.648044
vt 0.718939 0.898893
vt 0.869399 0.917133
vt 0.893707 0.946730
vt 0.742290 0.930604
vt 0.963591 0.918995
vt 0.963275 0.946498
vt 0.613179 0.636141
vt 0.703639 0.614341
vt 0.703856 0.690844
vt 0.596125 0.699969
vt 0.521403 0.467733
vt 0.612121 0.483156
vt 0.581811 0.566087
vt 0.514468 0.540171
vt 0.255053 0.512043
vt 0.290687 0.544890
vt 0.306363 0.619512
vt 0.260225 0.633351
vt 0.724370 0.858340
vt 0.865659 0.883766
vt 0.578859 0.969213
vt 0.661460 0.939408
vt 0.670166 0.969290
vt 0.615837 0.917208
vt 0.900481 0.970310
vt 0.963275 0.970310
vt 0.785291 0.970300
vt 0.186948 0.757616
vt 0.209679 0.753655
vt 0.311241 0.784710
vt 0.372203 0.834908
vt 0.193635 0.966233
vt 0.192584 0.942445
vt 0.218037 0.944007
vt 0.217939 0.966832
vt 0.191017 0.896153
vt 0.219102 0.890445
vt 0.447982 0.968513
vt 0.270695 0.967166
vt 0.544623 0.374956
vt 0.624666 0.383179
vt 0.492224 0.694051
vt 0.614494 0.764593
vt 0.529864 0.764723
vt 0.963888 0.893348
vt 0.445461 0.863974
vt 0.570959 0.258854
vt 0.466359 0.310920
vt 0.505665 0.265064
vt 0.190374 0.848870
vt 0.216963 0.841118
vt 0.531682 0.622816
vt 0.435384 0.689500
vt 0.452620 0.580663
vt 0.585986 0.875348
vt 0.632044 0.264307
vt 0.429297 0.764921
vt 0.444789 0.367398
vt 0.436226 0.475175
vt 0.854079 0.242205
vt 0.918631 0.232079
vt 0.924251 0.367149
vt 0.888684 0.337086
vt 0.910740 0.454962
vt 0.858019 0.460422
vt 0.051450 0.734899
vt 0.029231 0.695088
vt 0.107901 0.670046
vt 0.125469 0.720920
vt 0.166680 0.681584
vt 0.165728 0.744495
vt 0.756279 0.449320
vt 0.773231 0.547652
vt 0.695930 0.541108
vt 0.688181 0.475569
vt 0.107348 0.775639
vt 0.138090 0.777031
vt 0.960001 0.469422
vt 0.959935 0.575750
vt 0.934393 0.571396
vt 0.890058 0.578565
vt 0.086056 0.628689
vt 0.165206 0.629047
vt 0.013264 0.629143
vt 0.176848 0.423522
vt 0.202359 0.424274
vt 0.807571 0.255250
vt 0.823908 0.324617
vt 0.165382 0.198486
vt 0.185935 0.196979
vt 0.189013 0.239353
vt 0.166229 0.241300
vt 0.187374 0.276877
vt 0.167169 0.271263
vt 0.959746 0.369190
vt 0.960025 0.232886
vt 0.779094 0.356226
vt 0.706348 0.357895
vt 0.798981 0.721241
vt 0.786120 0.764333
vt 0.713657 0.764362
vt 0.166680 0.782046
vt 0.802829 0.466771
vt 0.739800 0.258200
vt 0.189781 0.346647
vt 0.172009 0.337016
vt 0.795477 0.650399
vt 0.903826 0.741773
vt 0.902988 0.753528
vt 0.834005 0.568043
vt 0.688982 0.251765
vt 0.900703 0.764429
vt 0.238228 0.429600
vt 0.292012 0.477538
vt 0.221356 0.357678
vt 0.284050 0.389512
vt 0.217841 0.238140
vt 0.213133 0.194919
vt 0.240544 0.193101
vt 0.246187 0.247264
vt 0.214190 0.289182
vt 0.263918 0.329670
vt 0.305073 0.699468
vt 0.256016 0.730108
vt 0.252800 0.812652
vt 0.251139 0.932874
vt 0.244274 0.967228
vt 0.252721 0.876530
vt 0.960025 0.705216
vt 0.934376 0.711277
vt 0.919144 0.720039
vt 0.339538 0.119649
vt 0.348216 0.150074
vt 0.301173 0.168967
vt 0.283399 0.101949
vt 0.375289 0.176652
vt 0.382109 0.134175
vt 0.395797 0.163476
vt 0.362210 0.158688
vt 0.347327 0.135880
vt 0.361282 0.088636
vt 0.354701 0.111159
vt 0.389279 0.090668
vt 0.375009 0.091598
vt 0.416287 0.106075
vt 0.407438 0.105728
vt 0.428645 0.135237
vt 0.416847 0.115286
vt 0.410811 0.148339
vt 0.409703 0.166369
vt 0.435877 0.230102
vt 0.344239 0.229053
vt 0.416199 0.018080
vt 0.502099 0.050206
vt 0.327487 0.030993
vt 0.502099 0.156656
vt 0.000392 0.909322
vt 0.021731 0.915960
vt 0.035388 0.942082
vt 0.019786 0.961219
vt 0.038092 0.913266
vt 0.047444 0.925924
vt 0.074512 0.936099
vt 0.076237 0.954669
vt 0.083730 0.971287
vt 0.120176 0.930659
vt 0.152274 0.957614
vt 0.096404 0.917198
vt 0.121822 0.898606
vt 0.141017 0.895064
vt 0.152274 0.887732
vt 0.124096 0.840527
vt 0.136087 0.822903
vt 0.105698 0.862311
vt 0.079819 0.857986
vt 0.083674 0.829093
vt 0.067284 0.796097
vt 0.032874 0.860044
vt 0.014812 0.838327
vt 0.055163 0.879807
vt 0.074955 0.905825
vn -0.0112 0.9998 0.0137
vn 0.0411 0.9991 -0.0079
vn 0.0366 0.9538 0.2982
vn 0.0566 0.9975 -0.0430
vn 0.0564 0.9955 -0.0759
vn 0.0170 0.9991 -0.0396
vn 0.0479 0.9964 0.0701
vn 0.1554 0.8943 -0.4197
vn 0.2518 0.9668 -0.0437
vn -0.3687 0.9292 -0.0257
vn 0.0149 0.9998 -0.0158
vn -0.1395 0.9888 -0.0529
vn -0.2962 0.9551 -0.0010
vn 0.0188 0.8600 0.5099
vn 0.2325 0.9605 -0.1532
vn -0.1907 0.9637 0.1867
vn -0.0297 0.9166 0.3987
vn -0.4473 0.8944 -0.0025
vn -0.3598 0.9327 0.0237
vn 0.0341 0.9988 0.0345
vn 0.0240 0.9989 0.0413
vn 0.0781 0.9962 -0.0384
vn 0.3679 0.9280 -0.0594
vn 0.0055 1.0000 0.0033
vn 0.0426 0.9198 0.3900
vn 0.0050 0.9998 0.0174
vn 0.4285 0.9028 -0.0381
vn 0.0050 0.9991 -0.0410
vn -0.0037 0.9999 0.0117
vn 0.0054 1.0000 -0.0048
vn 0.0055 0.9988 0.0486
vn -0.0426 0.9002 0.4334
vn -0.0776 0.9966 0.0266
vn 0.0896 0.9938 0.0658
vn 0.0135 0.9993 -0.0342
vn -0.0646 0.9912 0.1159
vn 0.0445 0.9525 -0.3013
vn -0.0583 0.9983 -0.0016
vn -0.3294 0.9419 0.0651
vn 0.0898 0.9959 -0.0082
vn -0.0394 0.9991 -0.0124
vn 0.1848 0.9752 -0.1218
vn 0.1484 0.9847 0.0909
vn 0.0147 0.9927 0.1196
vn -0.0558 0.9952 0.0802
vn 0.1134 0.9652 0.2355
vn 0.0581 0.8631 0.5016
vn 0.0912 0.9958 0.0107
vn 0.0297 0.9995 0.0080
vn -0.0457 0.9980 -0.0442
vn -0.0153 0.9998 0.0095
vn -0.1953 0.9790 -0.0592
vn -0.0362 0.9982 -0.0480
vn -0.0253 0.9969 0.0743
vn -0.0586 0.8958 0.4406
vn 0.0250 0.9996 -0.0137
vn -0.0202 0.9998 0.0083
vn -0.0442 0.9990 -0.0056
vn -0.0846 0.9937 0.0730
vn 0.0141 0.9998 0.0125
vn 0.0139 0.9990 -0.0424
vn -0.0158 0.9925 0.1214
vn 0.0095 1.0000 0.0017
vn -0.1566 0.9772 -0.1436
vn 0.0239 0.9629 -0.2690
vn 0.1284 0.9575 -0.2585
vn -0.0143 0.9601 -0.2795
vn 0.0681 0.9976 -0.0107
vn 0.0579 0.8991 -0.4340
vn -0.0387 0.8729 -0.4864
vn -0.0186 0.9236 -0.3829
vn -0.3568 0.9295 -0.0938
vn 0.1469 0.9763 -0.1587
vn 0.0541 0.9974 0.0485
vn -0.0491 0.9877 -0.1482
vn -0.0512 0.9987 0.0009
vn 0.0346 0.9994 0.0089
vn 0.0637 0.9980 0.0012
vn -0.0822 0.9959 -0.0379
vn -0.0229 0.9997 -0.0124
vn 0.0219 0.9998 -0.0022
vn -0.0320 0.9952 -0.0927
vn -0.1167 0.9919 -0.0511
vn -0.3007 0.9537 -0.0003
vn 0.3733 0.9248 0.0732
vn -0.0129 0.9990 0.0424
vn -0.0690 0.9976 0.0001
vn -0.0180 0.9985 0.0510
vn -0.0750 0.9865 0.1459
vn 0.1196 0.9743 0.1908
vn -0.3972 0.9177 0.0116
vn -0.0804 0.9961 0.0371
vn 0.0247 0.9963 0.0821
vn 0.0985 0.9870 0.1268
vn -0.1076 0.9466 0.3038
vn 0.2583 0.9651 0.0436
vn -0.0542 0.9517 0.3021
vn -0.0631 0.9969 0.0479
vn 0.0972 0.9941 -0.0485
vn 0.6516 -0.1951 0.7331
vn 0.7347 0.5493 0.3981
vn 0.7219 0.5670 -0.3968
vn 0.1267 0.7032 -0.6996
vn -0.4718 0.3694 -0.8006
vn -0.6978 0.6864 -0.2047
vn -0.8144 0.4882 0.3138
vn -0.1792 0.8360 0.5187
vn 0.4147 0.5216 -0.7456
vn -0.1681 0.3795 -0.9098
vn -0.4960 -0.5776 0.6484
vn 0.2445 0.3987 0.8839
vn -0.7439 -0.6612 -0.0969
vn 0.7930 0.5524 -0.2568
vn -0.6100 -0.7364 -0.2925
vn 0.7048 0.6125 0.3579
vn 0.3185 -0.6756 -0.6649
vn 0.1111 0.8659 0.4877
vn 0.3373 -0.8869 -0.3156
vn -0.3932 0.5076 0.7667
vn 0.8642 -0.5029 0.0144
vn -0.7504 0.6452 0.1440
vn 0.4153 -0.7476 0.5183
vn -0.4881 0.7163 -0.4987
vn -0.1140 -0.7117 0.6932
vn -0.6491 -0.1762 0.7400
vn 0.2180 -0.5747 -0.7888
vn 0.9513 -0.3081 0.0042
vn -0.1126 -0.0430 0.9927
vn -0.9087 -0.4135 -0.0568
vn -0.7004 -0.5492 -0.4560
vn 0.6361 -0.3907 -0.6654
vn 0.6762 -0.7037 -0.2181
vn 0.8231 0.5277 -0.2098
vn 0.5657 0.6186 0.5453
vn 0.5022 -0.5729 0.6478
vn 0.1201 -0.7793 0.6150
vn 0.1193 0.6901 0.7138
vn -0.2735 0.7984 0.5364
vn -0.2938 -0.7627 0.5761
vn -0.9936 -0.0483 0.1017
vn -0.6169 0.7820 0.0887
vn -0.4239 0.6971 -0.5782
vn -0.6692 -0.0305 -0.7425
vn 0.0670 -0.0208 -0.9975
vn -0.0574 0.5768 -0.8149
vn 0.3412 0.5173 -0.7848
vn 0.4001 -0.5868 -0.7040
vn -0.2231 0.9677 0.1173
vn 0.1464 0.9574 0.2489
vn 0.1570 0.9655 -0.2076
vn -0.1033 0.9698 -0.2211
usemtl Texture
s off
f 86/1/1 17/2/1 26/3/1 87/4/1
f 26/3/2 17/2/2 6/5/2 11/6/2
f 52/7/3 66/8/3 24/9/3 10/10/3
f 98/11/4 19/12/4 23/13/4 99/14/4
f 23/13/5 19/12/5 4/15/5 8/16/5
f 100/17/6 106/18/6 70/19/6 28/20/6
f 38/21/7 16/22/7 21/23/7 39/24/7
f 120/25/8 94/26/8 88/27/8 117/28/8
f 101/29/9 35/30/9 19/12/9 98/11/9
f 3/31/10 11/6/10 22/32/10 9/33/10
f 11/6/11 6/5/11 20/34/11 22/32/11
f 14/35/12 23/13/12 8/16/12 2/36/12
f 99/14/13 23/13/13 14/35/13 97/37/13
f 36/38/14 10/10/14 24/9/14 40/39/14
f 89/40/15 34/41/15 17/2/15 86/1/15
f 1/42/16 15/43/16 25/44/16 7/45/16
f 15/43/17 5/46/17 18/47/17 25/44/17
f 12/48/18 26/3/18 11/6/18 3/31/18
f 87/4/19 26/3/19 12/48/19 85/49/19
f 41/50/20 27/51/20 16/22/20 38/21/20
f 42/52/21 28/20/21 13/53/21 37/54/21
f 19/12/22 35/30/22 29/55/22 4/15/22
f 17/2/23 34/41/23 30/56/23 6/5/23
f 90/57/24 41/50/24 34/58/24 89/59/24
f 5/46/25 31/60/25 33/61/25 18/47/25
f 102/62/26 42/52/26 35/63/26 101/64/26
f 6/5/27 30/56/27 32/65/27 20/34/27
f 100/17/28 28/20/28 42/52/28 102/62/28
f 88/66/29 27/51/29 41/50/29 90/57/29
f 35/63/30 42/52/30 37/54/30 29/67/30
f 34/58/31 41/50/31 38/21/31 30/68/31
f 31/60/32 36/38/32 40/39/32 33/61/32
f 30/68/33 38/21/33 39/24/33 32/69/33
f 92/70/34 93/71/34 68/72/34 59/73/34
f 68/72/35 53/74/35 48/75/35 59/73/35
f 104/76/36 105/77/36 65/78/36 61/79/36
f 65/78/37 50/80/37 46/81/37 61/79/37
f 80/82/38 81/83/38 63/84/38 58/85/38
f 107/86/39 104/76/39 61/79/39 77/87/39
f 45/88/40 51/89/40 64/90/40 53/74/40
f 53/74/41 64/90/41 62/91/41 48/75/41
f 56/92/42 44/93/42 50/80/42 65/78/42
f 105/77/43 103/94/43 56/92/43 65/78/43
f 78/95/44 82/96/44 66/8/44 52/7/44
f 95/97/45 92/70/45 59/73/45 76/98/45
f 43/99/46 49/100/46 67/101/46 57/102/46
f 57/102/47 67/101/47 60/103/47 47/104/47
f 54/105/48 45/88/48 53/74/48 68/72/48
f 93/71/49 91/106/49 54/105/49 68/72/49
f 83/107/50 80/82/50 58/85/50 69/108/50
f 84/109/51 79/110/51 55/111/51 70/19/51
f 61/79/52 46/81/52 71/112/52 77/87/52
f 59/73/53 48/75/53 72/113/53 76/98/53
f 96/114/54 95/97/54 76/98/54 83/107/54
f 47/104/55 60/103/55 75/115/55 73/116/55
f 108/117/56 107/118/56 77/119/56 84/109/56
f 48/75/57 62/91/57 74/120/57 72/113/57
f 106/18/58 108/117/58 84/109/58 70/19/58
f 94/121/59 96/114/59 83/107/59 69/108/59
f 77/119/60 71/122/60 79/110/60 84/109/60
f 76/98/61 72/113/61 80/82/61 83/107/61
f 73/116/62 75/115/62 82/96/62 78/95/62
f 72/113/63 74/120/63 81/83/63 80/82/63
f 120/25/64 114/123/64 96/124/64 94/26/64
f 114/123/65 113/125/65 95/126/65 96/124/65
f 119/127/66 112/128/66 91/129/66 93/130/66
f 113/125/67 118/131/67 92/132/67 95/126/67
f 21/23/68 63/84/68 106/18/68 100/17/68
f 118/131/69 119/127/69 93/130/69 92/132/69
f 117/28/70 88/27/70 90/133/70 111/134/70
f 111/134/71 90/133/71 89/40/71 110/135/71
f 116/136/72 87/4/72 85/49/72 109/137/72
f 110/135/73 89/40/73 86/1/73 115/138/73
f 16/22/74 58/85/74 63/84/74 21/23/74
f 115/138/75 86/1/75 87/4/75 116/136/75
f 63/84/76 81/83/76 108/117/76 106/18/76
f 81/83/77 74/120/77 107/118/77 108/117/77
f 64/90/78 51/89/78 103/139/78 105/140/78
f 74/120/79 62/91/79 104/141/79 107/118/79
f 27/51/80 69/108/80 58/85/80 16/22/80
f 62/91/81 64/90/81 105/140/81 104/141/81
f 21/23/82 100/17/82 102/62/82 39/24/82
f 39/24/83 102/62/83 101/64/83 32/69/83
f 22/32/84 99/14/84 97/37/84 9/33/84
f 32/65/85 101/29/85 98/11/85 20/34/85
f 28/20/86 70/19/86 55/111/86 13/53/86
f 20/34/87 98/11/87 99/14/87 22/32/87
f 88/66/88 94/121/88 69/108/88 27/51/88
f 18/47/89 115/138/89 116/136/89 25/44/89
f 33/61/90 110/135/90 115/138/90 18/47/90
f 25/44/91 116/136/91 109/137/91 7/45/91
f 40/39/92 111/134/92 110/135/92 33/61/92
f 24/9/93 117/28/93 111/134/93 40/39/93
f 60/103/94 67/101/94 119/127/94 118/131/94
f 75/115/95 60/103/95 118/131/95 113/125/95
f 67/101/96 49/100/96 112/128/96 119/127/96
f 82/96/97 75/115/97 113/125/97 114/123/97
f 66/8/98 82/96/98 114/123/98 120/25/98
f 66/8/99 120/25/99 117/28/99 24/9/99
f 125/142/100 124/143/100 141/144/100 142/145/100
f 123/146/101 129/147/101 130/148/101
f 124/143/102 129/147/102 137/149/102
f 125/142/103 129/147/103 136/150/103
f 126/151/104 129/147/104 135/152/104
f 127/153/105 129/147/105 134/154/105
f 128/155/106 129/147/106 133/156/106
f 121/157/107 129/147/107 132/158/107
f 129/147/108 121/157/108 131/159/108
f 129/147/109 122/160/109 130/148/109
f 122/160/110 123/146/110 130/148/110
f 122/160/111 129/147/111 131/159/111
f 121/157/112 122/160/112 131/159/112
f 129/147/113 128/155/113 132/158/113
f 128/155/114 121/157/114 132/158/114
f 129/147/115 127/153/115 133/156/115
f 127/153/116 128/155/116 133/156/116
f 129/147/117 126/151/117 134/154/117
f 126/151/118 127/153/118 134/154/118
f 129/147/119 125/142/119 135/152/119
f 125/142/120 126/151/120 135/152/120
f 129/147/121 124/143/121 136/150/121
f 124/143/122 125/142/122 136/150/122
f 129/147/123 123/146/123 137/149/123
f 123/146/124 124/143/124 137/149/124
f 123/146/125 122/160/125 138/161/125 140/162/125
f 128/155/126 127/153/126 144/163/126 145/164/126
f 126/151/127 125/142/127 142/145/127 143/165/127
f 124/143/128 123/146/128 140/162/128 141/144/128
f 122/160/129 121/157/129 139/166/129 138/161/129
f 121/157/130 128/155/130 145/164/130 139/166/130
f 127/153/131 126/151/131 143/165/131 144/163/131
f 146/167/132 155/168/132 166/169/132 154/170/132
f 155/168/133 147/171/133 156/172/133 166/169/133
f 166/169/134 156/172/134 149/173/134 157/174/134
f 154/170/135 166/169/135 157/174/135 148/175/135
f 148/175/136 157/174/136 167/176/136 158/177/136
f 157/174/137 149/173/137 159/178/137 167/176/137
f 167/176/138 159/178/138 153/179/138 160/180/138
f 158/177/139 167/176/139 160/180/139 152/181/139
f 152/181/140 160/180/140 168/182/140 161/183/140
f 160/180/141 153/179/141 162/184/141 168/182/141
f 168/182/142 162/184/142 151/185/142 163/186/142
f 161/183/143 168/182/143 163/186/143 150/187/143
f 150/187/144 163/186/144 169/188/144 164/189/144
f 163/186/145 151/185/145 165/190/145 169/188/145
f 169/188/146 165/190/146 147/171/146 155/168/146
f 164/189/147 169/188/147 155/168/147 146/167/147
f 153/179/148 159/178/148 170/191/148 162/184/148
f 159/178/149 149/173/149 156/172/149 170/191/149
f 170/191/150 156/172/150 147/171/150 165/190/150
f 162/184/151 170/191/151 165/190/151 151/185/151
