# Blender v2.92.0 OBJ File: 'lab_path_crossing_export.blend'
# www.blender.org
mtllib lab_path_crossing.mtl
o Plane.005
v -0.800000 0.000000 -1.000000
v -0.960123 0.030422 -1.000000
v -0.839877 0.030422 -1.000000
v -1.000000 0.000000 -1.000000
v -1.000000 0.000000 -0.800000
v -1.000000 0.030422 -0.960123
v -1.000000 0.030422 -0.839877
v 0.800000 0.000000 -1.000000
v 0.960123 0.030422 -1.000000
v 0.839877 0.030422 -1.000000
v 1.000000 0.000000 -1.000000
v 1.000000 0.000000 -0.800000
v 1.000000 0.030422 -0.960123
v 1.000000 0.030422 -0.839877
v -0.800000 0.000000 1.000000
v -0.960123 0.030422 1.000000
v -0.839877 0.030422 1.000000
v -1.000000 0.000000 1.000000
v -1.000000 0.000000 0.800000
v -1.000000 0.030422 0.960123
v -1.000000 0.030422 0.839877
v 0.800000 0.000000 1.000000
v 0.960123 0.030422 1.000000
v 0.839877 0.030422 1.000000
v 1.000000 0.000000 1.000000
v 1.000000 0.000000 0.800000
v 1.000000 0.030422 0.960123
v 1.000000 0.030422 0.839877
v -0.800000 0.000000 0.800000
v -0.800000 0.000000 -0.800000
v 0.800000 0.000000 0.800000
v 0.800000 0.000000 -0.800000
v -0.266667 0.000000 -1.000000
v 0.266667 0.000000 -1.000000
v -0.266667 0.000000 1.000000
v 0.266667 0.000000 1.000000
v -0.266667 0.000000 0.800000
v 0.266667 0.000000 0.800000
v -0.266667 0.000000 -0.800000
v 0.266667 0.000000 -0.800000
v -0.102885 0.000000 -0.257213
v 0.102885 0.000000 -0.257213
v -0.102885 0.000000 0.257213
v 0.102885 0.000000 0.257213
v -1.000000 0.000000 -0.266667
v -1.000000 0.000000 0.266667
v 1.000000 0.000000 -0.266667
v 1.000000 0.000000 0.266667
v -0.800000 0.000000 -0.266667
v -0.800000 0.000000 0.266667
v 0.800000 0.000000 -0.266667
v 0.800000 0.000000 0.266667
v 0.257213 0.000000 -0.102885
v 0.257213 0.000000 0.102885
v -0.257212 0.000000 -0.102885
v -0.257212 0.000000 0.102885
v -0.257212 -0.010000 0.102885
v -0.102885 -0.010000 0.257213
v -0.102885 -0.010000 -0.257213
v 0.102885 -0.010000 -0.257213
v 0.102885 -0.010000 0.257213
v 0.257213 -0.010000 0.102885
v 0.257213 -0.010000 -0.102885
v -0.257212 -0.010000 -0.102885
v -0.018000 -0.010000 -0.052282
v -0.052282 -0.010000 -0.018000
v -0.052282 -0.010000 0.018000
v -0.018000 -0.010000 0.052282
v 0.018000 -0.010000 0.052282
v 0.052282 -0.010000 0.018000
v 0.052282 -0.010000 -0.018000
v 0.018000 -0.010000 -0.052282
vt 0.046067 0.826679
vt 0.182831 0.806045
vt 0.146083 0.830884
vt 0.089600 0.836742
vt 0.182831 0.941119
vt 0.167519 0.897213
vt 0.164859 0.845984
vt 0.969005 0.571322
vt 0.944116 0.620368
vt 0.893967 0.669064
vt 0.841489 0.684135
vt 0.969005 0.790836
vt 0.893390 0.698717
vt 0.939652 0.741697
vt 0.271147 0.924606
vt 0.314679 0.914544
vt 0.371163 0.920401
vt 0.407911 0.945240
vt 0.407911 0.810166
vt 0.389939 0.905302
vt 0.392599 0.854072
vt 0.500348 0.818437
vt 0.637112 0.797803
vt 0.600364 0.822642
vt 0.543880 0.828500
vt 0.637112 0.932877
vt 0.621800 0.888971
vt 0.619140 0.837742
vt 0.642710 0.644103
vt 0.711565 0.644016
vt 0.642792 0.712975
vt 0.642647 0.024452
vt 0.711565 0.093733
vt 0.642462 0.093565
vt 0.092121 0.277030
vt 0.024072 0.276896
vt 0.023387 0.093958
vt 0.092060 0.093707
vt 0.091801 0.024946
vt 0.022362 0.641405
vt 0.091603 0.641999
vt 0.090973 0.711323
vt 0.711212 0.278074
vt 0.642395 0.278171
vt 0.458264 0.023918
vt 0.458116 0.092752
vt 0.459015 0.644462
vt 0.459096 0.713191
vt 0.327784 0.277767
vt 0.276214 0.332432
vt 0.275568 0.092855
vt 0.092279 0.456688
vt 0.283081 0.405348
vt 0.335103 0.461237
vt 0.276572 0.644208
vt 0.454356 0.330668
vt 0.399074 0.277268
vt 0.457211 0.403317
vt 0.453586 0.402219
vt 0.450979 0.332396
vt 0.405841 0.459421
vt 0.276089 0.713131
vt 0.275329 0.024189
vt 0.642704 0.460409
vt 0.711315 0.460428
vt 0.023794 0.456717
vt 0.930176 0.841880
vt 0.930176 0.896324
vt 0.901590 0.924911
vt 0.847145 0.924911
vt 0.818559 0.896324
vt 0.818559 0.841880
vt 0.847145 0.813294
vt 0.901590 0.813294
vt 0.397851 0.280830
vt 0.286424 0.403670
vt 0.336381 0.457676
vt 0.329458 0.281113
vt 0.279904 0.333438
vt 0.404094 0.456106
vt 0.978557 0.330082
vt 0.978557 0.428939
vt 0.885734 0.390490
vt 0.885734 0.368530
vt 0.912652 0.494843
vt 0.874204 0.402020
vt 0.813795 0.494843
vt 0.852244 0.402020
vt 0.747890 0.428939
vt 0.840714 0.390490
vt 0.747890 0.330082
vt 0.840714 0.368530
vt 0.813795 0.264177
vt 0.852244 0.357000
vt 0.912652 0.264177
vt 0.874204 0.357000
vn 0.0000 0.0000 -1.0000
vn -1.0000 0.0000 0.0000
vn -0.5186 0.6798 -0.5186
vn 0.0000 1.0000 -0.0000
vn 0.5186 0.6798 0.5186
vn 1.0000 0.0000 0.0000
vn 0.5186 0.6798 -0.5186
vn -0.5186 0.6798 0.5186
vn 0.0000 0.0000 1.0000
vn -0.7071 0.0000 -0.7071
vn 0.7071 0.0000 0.7071
vn 0.7071 0.0000 -0.7071
vn -0.7071 0.0000 0.7071
usemtl Texture
s off
f 1/1/1 4/2/1 2/3/1 3/4/1
f 5/5/2 7/6/2 6/7/2 4/2/2
f 6/7/3 2/3/3 4/2/3
f 3/4/4 2/3/4 6/7/4 7/6/4
f 7/6/5 5/5/5 1/1/5 3/4/5
f 8/8/1 10/9/1 9/10/1 11/11/1
f 12/12/6 11/11/6 13/13/6 14/14/6
f 13/13/7 11/11/7 9/10/7
f 10/9/4 14/14/4 13/13/4 9/10/4
f 14/14/8 10/9/8 8/8/8 12/12/8
f 15/15/9 17/16/9 16/17/9 18/18/9
f 19/19/2 18/18/2 20/20/2 21/21/2
f 20/20/8 18/18/8 16/17/8
f 17/16/4 21/21/4 20/20/4 16/17/4
f 21/21/7 17/16/7 15/15/7 19/19/7
f 22/22/9 25/23/9 23/24/9 24/25/9
f 26/26/6 28/27/6 27/28/6 25/23/6
f 27/28/5 23/24/5 25/23/5
f 24/25/4 23/24/4 27/28/4 28/27/4
f 28/27/3 26/26/3 22/22/3 24/25/3
f 32/29/4 12/30/4 8/31/4
f 22/32/4 26/33/4 31/34/4
f 50/35/4 46/36/4 19/37/4 29/38/4
f 19/37/4 15/39/4 29/38/4
f 5/40/4 30/41/4 1/42/4
f 48/43/4 52/44/4 31/34/4 26/33/4
f 36/45/4 22/32/4 31/34/4 38/46/4
f 40/47/4 32/29/4 8/31/4 34/48/4
f 43/49/4 56/50/4 50/35/4 29/38/4 37/51/4
f 30/41/4 49/52/4 55/53/4 41/54/4 39/55/4
f 54/56/4 44/57/4 38/46/4 31/34/4 52/44/4
f 37/51/4 38/46/4 44/57/4 43/49/4
f 54/56/2 53/58/2 63/59/2 62/60/2
f 40/47/4 39/55/4 41/54/4 42/61/4
f 30/41/4 39/55/4 33/62/4 1/42/4
f 39/55/4 40/47/4 34/48/4 33/62/4
f 15/39/4 35/63/4 37/51/4 29/38/4
f 35/63/4 36/45/4 38/46/4 37/51/4
f 42/61/4 53/58/4 51/64/4 32/29/4 40/47/4
f 52/44/4 51/64/4 53/58/4 54/56/4
f 49/52/4 50/35/4 56/50/4 55/53/4
f 12/30/4 32/29/4 51/64/4 47/65/4
f 47/65/4 51/64/4 52/44/4 48/43/4
f 30/41/4 5/40/4 45/66/4 49/52/4
f 49/52/4 45/66/4 46/36/4 50/35/4
f 65/67/4 66/68/4 67/69/4 68/70/4 69/71/4 70/72/4 71/73/4 72/74/4
f 44/57/10 54/56/10 62/60/10 61/75/10
f 41/54/11 55/53/11 64/76/11 59/77/11
f 56/50/12 43/49/12 58/78/12 57/79/12
f 53/58/13 42/61/13 60/80/13 63/59/13
f 43/49/1 44/57/1 61/75/1 58/78/1
f 55/53/6 56/50/6 57/79/6 64/76/6
f 42/61/9 41/54/9 59/77/9 60/80/9
f 59/81/4 64/82/4 66/83/4 65/84/4
f 64/82/4 57/85/4 67/86/4 66/83/4
f 57/85/4 58/87/4 68/88/4 67/86/4
f 58/87/4 61/89/4 69/90/4 68/88/4
f 61/89/4 62/91/4 70/92/4 69/90/4
f 62/91/4 63/93/4 71/94/4 70/92/4
f 63/93/4 60/95/4 72/96/4 71/94/4
f 60/95/4 59/81/4 65/84/4 72/96/4
