# Blender v2.92.0 OBJ File: 'nature_path_tjunction_export.blend'
# www.blender.org
mtllib nature_path_tjunction.mtl
o Plane
v -1.000000 0.000000 1.000000
v -1.000000 0.000000 -1.000000
v -1.000000 0.000000 0.000000
v -0.866783 0.000000 -1.000000
v -0.817298 0.000000 1.000000
v -0.748736 0.014081 0.014770
v -1.000000 0.000000 0.936755
v -0.938088 0.000000 -1.000000
v -1.000000 0.000000 -0.360770
v -0.171410 0.000000 1.000000
v -0.927534 -0.002912 0.000000
v -1.000000 0.000000 0.340181
v -0.171410 0.000000 -1.000000
v -1.000000 0.000000 -0.836732
v -0.938088 0.000000 1.000000
v -0.178239 -0.006369 -0.045577
v -0.730987 0.001763 0.478818
v -0.804090 0.033068 0.933973
v -0.901914 0.014511 -0.928557
v -0.766498 0.010612 -0.451572
v -0.197352 0.020736 -0.360770
v -0.898399 0.001002 -0.399681
v -0.959652 0.017969 -0.881480
v -0.163738 0.033898 0.931937
v -0.944900 0.022978 0.937653
v -0.934798 -0.000022 0.456233
v -0.100933 0.007335 0.312025
v -0.233313 -0.014476 -0.780790
v -0.800000 0.000000 -1.000000
v -0.596150 0.011965 0.050113
v -0.694576 0.000000 1.000000
v -0.620913 0.005498 -0.548952
v -0.676397 0.021287 0.934413
v -0.550634 -0.017827 0.390019
v -0.819098 0.002971 -0.951637
v -0.458669 0.000000 1.000000
v -0.458669 0.000000 -1.000000
v -0.399190 -0.015465 -0.038385
v -0.374510 0.005474 -0.423973
v -0.450762 0.034946 0.951365
v -0.325712 -0.008859 0.306720
v -0.477470 0.000000 -0.883792
v 1.000000 0.000000 1.000000
v 1.000000 0.000000 -1.000000
v 1.000000 0.000000 0.000000
v 0.848920 0.000000 -1.000000
v 0.810193 0.000000 1.000000
v 0.689607 0.011698 0.033612
v 1.000062 0.000000 0.946243
v 0.931437 0.000000 -1.000000
v 1.000000 0.000000 -0.360770
v 0.165227 0.000000 1.000000
v 0.833668 0.018370 0.049285
v 1.000000 0.000000 0.340181
v 0.165227 0.000000 -1.000000
v 1.000000 0.000000 -0.895942
v 0.888407 0.000000 1.000000
v 0.110849 -0.024699 0.097385
v 0.760802 -0.005772 0.449179
v 0.792885 0.031159 0.957439
v 0.878621 0.018809 -0.948345
v 0.763333 0.010378 -0.370265
v 0.105789 -0.009762 -0.242656
v 0.913502 0.004956 -0.346000
v 0.947985 0.019311 -0.924322
v 0.169888 0.014038 0.913230
v 0.891938 0.025859 0.946041
v 0.879660 -0.004803 0.347215
v 0.141138 0.008646 0.378161
v 0.120013 -0.006660 -0.855931
v 0.800000 0.000000 -1.000000
v 0.548772 0.013465 -0.009470
v 0.636485 0.000000 1.000000
v 0.576637 0.000864 -0.405608
v 0.608811 0.019650 0.955855
v 0.539974 0.000428 0.491547
v 0.807474 -0.006057 -0.963442
v 0.411173 0.000000 1.000000
v 0.411173 0.000000 -1.000000
v 0.310420 0.002672 0.068365
v 0.380004 0.002672 -0.339426
v 0.405426 0.015472 0.934125
v 0.387804 0.018284 0.383938
v 0.420697 0.000000 -0.860041
v -1.000000 0.000000 0.800000
v -0.733351 -0.003268 0.758073
v -0.890332 -0.003483 0.763771
v -0.111838 -0.001995 0.684116
v -0.534150 -0.009387 0.751215
v -0.334408 -0.010246 0.703279
v 1.000968 0.000000 0.804165
v 0.719218 0.000669 0.820467
v 0.890665 0.000427 0.794428
v 0.176960 -0.023301 0.720360
v 0.540192 -0.004754 0.803381
v 0.366129 -0.006507 0.756131
v -1.000000 0.000000 -0.800000
v -0.868830 -0.006511 -0.814470
v -0.920460 -0.006387 -0.783400
v -0.175069 -0.008039 -0.564875
v -0.825226 -0.006046 -0.886106
v -0.448428 0.001001 -0.651451
v 1.000000 0.000000 -0.800000
v 0.861461 0.005002 -0.850168
v 0.913170 0.006117 -0.820503
v 0.131774 0.009604 -0.491126
v 0.810306 -0.006797 -0.923553
v 0.337584 0.020473 -0.632122
v -1.000000 0.000000 0.868377
v -0.605273 0.026515 0.842814
v -0.392585 0.058488 0.827322
v 1.000515 0.000000 0.875204
v 0.574502 0.017436 0.879618
v 0.385778 0.017114 0.845128
v -0.768721 0.049929 0.846023
v -0.917616 0.036745 0.850712
v -0.137788 0.054032 0.808027
v 0.756051 0.046753 0.888953
v 0.891302 0.032542 0.870234
v 0.173424 0.022366 0.816795
vt 0.066697 0.709966
vt 0.175123 0.709010
vt 0.183943 0.788116
vt 0.064511 0.770896
vt 0.355214 0.715616
vt 0.360994 0.785260
vt 0.966609 0.526081
vt 0.926909 0.527864
vt 0.935982 0.377555
vt 0.970092 0.374542
vt 0.106511 0.961592
vt 0.126310 0.895796
vt 0.158512 0.922083
vt 0.136600 0.979330
vt 0.106295 0.854319
vt 0.147368 0.854515
vt 0.580408 0.492808
vt 0.551347 0.373647
vt 0.693183 0.378305
vt 0.664064 0.515389
vt 0.375551 0.579372
vt 0.378325 0.493798
vt 0.500730 0.501155
vt 0.525297 0.570151
vt 0.882933 0.529105
vt 0.834623 0.531958
vt 0.819369 0.401301
vt 0.879782 0.388579
vt 0.081385 0.920390
vt 0.078853 0.882232
vt 0.361014 0.813396
vt 0.516066 0.773771
vt 0.500988 0.813215
vt 0.536124 0.722426
vt 0.183030 0.947574
vt 0.183030 0.855353
vt 0.182621 0.968646
vt 0.970325 0.246403
vt 0.943549 0.250340
vt 0.069279 0.632587
vt 0.209380 0.638612
vt 0.967007 0.001739
vt 0.968192 0.029545
vt 0.938560 0.027640
vt 0.938608 0.001031
vt 0.969660 0.083559
vt 0.936883 0.089681
vt 0.229010 0.813415
vt 0.050473 0.813495
vt 0.241751 0.551353
vt 0.239539 0.463924
vt 0.704006 0.610248
vt 0.749259 0.491405
vt 0.749111 0.602919
vt 0.067842 0.854339
vt 0.341540 0.656401
vt 0.087765 0.554912
vt 0.969186 0.138925
vt 0.937755 0.147172
vt 0.613758 0.598961
vt 0.730518 0.742809
vt 0.704864 0.745238
vt 0.573936 0.665909
vt 0.095089 0.468465
vt 0.749298 0.735361
vt 0.042021 0.145143
vt 0.052181 0.078587
vt 0.225670 0.083046
vt 0.186121 0.129105
vt 0.341465 0.100826
vt 0.347434 0.156794
vt 0.213665 0.934543
vt 0.196882 0.904472
vt 0.256304 0.885557
vt 0.269575 0.923985
vt 0.300703 0.894272
vt 0.299984 0.941792
vt 0.334031 0.304093
vt 0.492336 0.277120
vt 0.454552 0.383534
vt 0.323142 0.381981
vt 0.255887 0.965316
vt 0.279108 0.966367
vt 0.360522 0.035929
vt 0.500659 0.036057
vt 0.494899 0.069712
vt 0.504306 0.128127
vt 0.239804 0.854319
vt 0.299590 0.854589
vt 0.184822 0.854662
vt 0.966413 0.637164
vt 0.935762 0.634669
vt 0.048592 0.214659
vt 0.169670 0.214786
vt 0.968288 0.901632
vt 0.944194 0.902202
vt 0.943073 0.852556
vt 0.969767 0.851569
vt 0.947025 0.808929
vt 0.970325 0.816533
vt 0.228495 0.036302
vt 0.048438 0.035779
vt 0.211621 0.274065
vt 0.213836 0.369829
vt 0.694770 0.261516
vt 0.749125 0.265205
vt 0.749157 0.360705
vt 0.300703 0.970156
vt 0.364146 0.211462
vt 0.066883 0.282242
vt 0.945844 0.727402
vt 0.967937 0.739388
vt 0.606053 0.293683
vt 0.719425 0.110179
vt 0.734911 0.111281
vt 0.518108 0.200727
vt 0.080249 0.356137
vt 0.749298 0.114201
vt 0.895582 0.625614
vt 0.853960 0.616943
vt 0.910719 0.711831
vt 0.874740 0.695631
vt 0.909467 0.852294
vt 0.912292 0.903016
vt 0.880082 0.903448
vt 0.872722 0.853866
vt 0.916463 0.793461
vt 0.880718 0.776919
vt 0.825024 0.300770
vt 0.888598 0.276708
vt 0.847735 0.211137
vt 0.894157 0.179332
vt 0.900414 0.040625
vt 0.857216 0.049862
vt 0.876759 0.001391
vt 0.907785 0.000706
vt 0.852777 0.120024
vt 0.897945 0.104834
vt 0.671290 0.036118
vt 0.679243 0.069931
vt 0.690767 0.090018
vt 0.665014 0.782215
vt 0.671425 0.813175
vt 0.677071 0.762173
vn -0.0062 0.9999 0.0149
vn -0.0501 0.9987 0.0108
vn 0.0366 0.9538 0.2982
vn 0.1457 0.9764 0.1592
vn -0.0392 0.9829 -0.1798
vn -0.0386 0.9987 -0.0344
vn -0.0704 0.9952 0.0677
vn 0.1105 0.9079 -0.4043
vn 0.1863 0.9732 0.1348
vn 0.0122 0.9999 0.0056
vn -0.0854 0.9963 -0.0006
vn -0.2055 0.9755 -0.0779
vn -0.0497 0.9802 0.1916
vn 0.0188 0.8600 0.5099
vn 0.0659 0.9978 -0.0068
vn -0.1907 0.9637 0.1867
vn -0.0297 0.9166 0.3987
vn 0.0242 0.9997 -0.0034
vn 0.0185 0.9998 0.0034
vn -0.0567 0.9983 -0.0167
vn 0.0180 0.9987 0.0474
vn 0.0582 0.9913 -0.1183
vn 0.0724 0.9963 0.0465
vn -0.0219 0.9997 -0.0091
vn 0.0426 0.9198 0.3900
vn -0.0176 0.9994 0.0283
vn 0.0221 0.9997 -0.0102
vn 0.0554 0.9981 -0.0273
vn -0.0542 0.9985 0.0125
vn 0.0060 0.9998 -0.0167
vn 0.0537 0.9983 0.0245
vn -0.0426 0.9002 0.4334
vn 0.0606 0.9981 0.0147
vn -0.0089 0.9999 -0.0146
vn -0.0098 0.9982 0.0585
vn -0.0646 0.9912 0.1159
vn 0.0445 0.9525 -0.3013
vn -0.0803 0.9967 0.0130
vn -0.3294 0.9419 0.0651
vn 0.0898 0.9959 -0.0082
vn -0.0017 0.9998 -0.0188
vn 0.1848 0.9752 -0.1218
vn 0.1484 0.9847 0.0909
vn -0.0112 0.9817 0.1899
vn 0.0018 1.0000 -0.0017
vn 0.1134 0.9652 0.2355
vn 0.0581 0.8631 0.5016
vn 0.0536 0.9980 0.0324
vn -0.0189 0.9998 -0.0055
vn -0.0859 0.9941 -0.0661
vn -0.0120 0.9997 0.0219
vn -0.1953 0.9790 -0.0592
vn 0.0219 0.9993 0.0318
vn 0.0281 0.9986 0.0446
vn -0.0298 0.8556 0.5168
vn 0.0057 0.9974 -0.0718
vn -0.0189 0.9996 -0.0198
vn -0.0540 0.9962 -0.0682
vn -0.0680 0.9944 0.0803
vn 0.0122 0.9994 0.0331
vn 0.0184 0.9998 -0.0047
vn -0.0250 0.9501 0.3109
vn -0.0269 0.9995 -0.0189
vn 0.0293 0.9355 -0.3521
vn 0.0586 0.9569 -0.2844
vn 0.1590 0.9644 -0.2111
vn -0.0586 0.9137 -0.4022
vn 0.0267 0.9995 -0.0179
vn -0.0272 0.8818 -0.4708
vn -0.0442 0.8863 -0.4610
vn -0.1413 0.8547 -0.4995
vn -0.2402 0.9286 -0.2827
vn 0.0625 0.9083 -0.4137
vn 0.0549 0.9966 0.0619
vn -0.0547 0.8724 -0.4856
vn -0.0143 0.9975 0.0689
vn 0.0572 0.9980 0.0260
vn 0.0637 0.9980 0.0012
vn -0.0724 0.9967 -0.0371
vn 0.0650 0.9943 -0.0842
vn 0.0219 0.9998 -0.0022
vn 0.0123 0.9969 -0.0783
vn 0.0071 0.9995 -0.0319
vn 0.0285 0.9995 -0.0097
vn -0.0086 0.9993 -0.0371
vn -0.0051 0.9984 0.0566
vn -0.0617 0.9978 -0.0225
vn 0.0266 0.9980 0.0567
vn -0.0750 0.9865 0.1459
vn 0.1196 0.9743 0.1908
vn -0.3972 0.9177 0.0116
vn -0.1035 0.9921 0.0703
vn 0.0229 0.9832 0.1810
vn 0.0985 0.9870 0.1268
vn -0.1141 0.9825 0.1469
vn 0.2583 0.9651 0.0436
vn -0.0115 0.9999 0.0003
vn 0.0026 0.9986 0.0535
vn 0.0810 0.9871 0.1383
usemtl Texture
s off
f 86/1/1 17/2/1 26/3/1 87/4/1
f 26/3/2 17/2/2 6/5/2 11/6/2
f 52/7/3 66/8/3 24/9/3 10/10/3
f 98/11/4 19/12/4 23/13/4 99/14/4
f 23/13/5 19/12/5 4/15/5 8/16/5
f 100/17/6 106/18/6 70/19/6 28/20/6
f 38/21/7 16/22/7 21/23/7 39/24/7
f 120/25/8 94/26/8 88/27/8 117/28/8
f 101/29/9 35/30/9 19/12/9 98/11/9
f 3/31/10 11/6/10 22/32/10 9/33/10
f 11/6/11 6/5/11 20/34/11 22/32/11
f 14/35/12 23/13/12 8/16/12 2/36/12
f 99/14/13 23/13/13 14/35/13 97/37/13
f 36/38/14 10/10/14 24/9/14 40/39/14
f 89/40/15 34/41/15 17/2/15 86/1/15
f 1/42/16 15/43/16 25/44/16 7/45/16
f 15/43/17 5/46/17 18/47/17 25/44/17
f 12/48/18 26/3/18 11/6/18 3/31/18
f 87/4/19 26/3/19 12/48/19 85/49/19
f 41/50/20 27/51/20 16/22/20 38/21/20
f 42/52/21 28/20/21 13/53/21 37/54/21
f 19/12/22 35/30/22 29/55/22 4/15/22
f 17/2/23 34/41/23 30/56/23 6/5/23
f 90/57/24 41/50/24 34/41/24 89/40/24
f 5/46/25 31/58/25 33/59/25 18/47/25
f 102/60/26 42/52/26 35/61/26 101/62/26
f 6/5/27 30/56/27 32/63/27 20/34/27
f 100/17/28 28/20/28 42/52/28 102/60/28
f 88/64/29 27/51/29 41/50/29 90/57/29
f 35/61/30 42/52/30 37/54/30 29/65/30
f 34/41/31 41/50/31 38/21/31 30/56/31
f 31/58/32 36/38/32 40/39/32 33/59/32
f 30/56/33 38/21/33 39/24/33 32/63/33
f 92/66/34 93/67/34 68/68/34 59/69/34
f 68/68/35 53/70/35 48/71/35 59/69/35
f 104/72/36 105/73/36 65/74/36 61/75/36
f 65/74/37 50/76/37 46/77/37 61/75/37
f 80/78/38 81/79/38 63/80/38 58/81/38
f 107/82/39 104/72/39 61/75/39 77/83/39
f 45/84/40 51/85/40 64/86/40 53/70/40
f 53/70/41 64/86/41 62/87/41 48/71/41
f 56/88/42 44/89/42 50/76/42 65/74/42
f 105/73/43 103/90/43 56/88/43 65/74/43
f 78/91/44 82/92/44 66/8/44 52/7/44
f 95/93/45 92/66/45 59/69/45 76/94/45
f 43/95/46 49/96/46 67/97/46 57/98/46
f 57/98/47 67/97/47 60/99/47 47/100/47
f 54/101/48 45/84/48 53/70/48 68/68/48
f 93/67/49 91/102/49 54/101/49 68/68/49
f 83/103/50 80/78/50 58/81/50 69/104/50
f 84/105/51 79/106/51 55/107/51 70/19/51
f 61/75/52 46/77/52 71/108/52 77/83/52
f 59/69/53 48/71/53 72/109/53 76/94/53
f 96/110/54 95/93/54 76/94/54 83/103/54
f 47/100/55 60/99/55 75/111/55 73/112/55
f 108/113/56 107/114/56 77/115/56 84/105/56
f 48/71/57 62/87/57 74/116/57 72/109/57
f 106/18/58 108/113/58 84/105/58 70/19/58
f 94/117/59 96/110/59 83/103/59 69/104/59
f 77/115/60 71/118/60 79/106/60 84/105/60
f 76/94/61 72/109/61 80/78/61 83/103/61
f 73/112/62 75/111/62 82/92/62 78/91/62
f 72/109/63 74/116/63 81/79/63 80/78/63
f 120/25/64 114/119/64 96/120/64 94/26/64
f 114/119/65 113/121/65 95/122/65 96/120/65
f 119/123/66 112/124/66 91/125/66 93/126/66
f 113/121/67 118/127/67 92/128/67 95/122/67
f 21/23/68 63/80/68 106/18/68 100/17/68
f 118/127/69 119/123/69 93/126/69 92/128/69
f 117/28/70 88/27/70 90/129/70 111/130/70
f 111/130/71 90/129/71 89/131/71 110/132/71
f 116/133/72 87/134/72 85/135/72 109/136/72
f 110/132/73 89/131/73 86/137/73 115/138/73
f 16/22/74 58/81/74 63/80/74 21/23/74
f 115/138/75 86/137/75 87/134/75 116/133/75
f 63/80/76 81/79/76 108/113/76 106/18/76
f 81/79/77 74/116/77 107/114/77 108/113/77
f 64/86/78 51/85/78 103/139/78 105/140/78
f 74/116/79 62/87/79 104/141/79 107/114/79
f 27/51/80 69/104/80 58/81/80 16/22/80
f 62/87/81 64/86/81 105/140/81 104/141/81
f 21/23/82 100/17/82 102/60/82 39/24/82
f 39/24/83 102/60/83 101/62/83 32/63/83
f 22/32/84 99/142/84 97/143/84 9/33/84
f 32/63/85 101/62/85 98/144/85 20/34/85
f 28/20/86 70/19/86 55/107/86 13/53/86
f 20/34/87 98/144/87 99/142/87 22/32/87
f 88/64/88 94/117/88 69/104/88 27/51/88
f 18/47/89 115/138/89 116/133/89 25/44/89
f 33/59/90 110/132/90 115/138/90 18/47/90
f 25/44/91 116/133/91 109/136/91 7/45/91
f 40/39/92 111/130/92 110/132/92 33/59/92
f 24/9/93 117/28/93 111/130/93 40/39/93
f 60/99/94 67/97/94 119/123/94 118/127/94
f 75/111/95 60/99/95 118/127/95 113/121/95
f 67/97/96 49/96/96 112/124/96 119/123/96
f 82/92/97 75/111/97 113/121/97 114/119/97
f 66/8/98 82/92/98 114/119/98 120/25/98
f 66/8/99 120/25/99 117/28/99 24/9/99
